<?xml version="1.0" encoding="iso-8859-1"?>
<!-- Generator: Adobe Illustrator 19.0.0, SVG Export Plug-In . SVG Version: 6.00 Build 0)  -->
<svg version="1.1" id="Layer_1" xmlns="http://www.w3.org/2000/svg" xmlns:xlink="http://www.w3.org/1999/xlink" x="0px" y="0px"
	 viewBox="0 0 513.216 513.216" style="enable-background:new 0 0 513.216 513.216;" xml:space="preserve">
<g>
	<title>Two Fingers Slide to The Left</title>
	<g id="Two_Fingers_Slide_to_The_Left_1_">
		<path style="fill:#FEC33C;" d="M203.386,433.511h177.122c19.564,0,35.424,15.86,35.424,35.424v44.281l0,0h-247.97l0,0v-44.281
			C167.962,449.371,183.822,433.511,203.386,433.511z"/>
		<path style="fill:#F5E6C6;" d="M126.958,340.345c7.543,22.67,22.125,42.341,41.624,56.148l10.804,7.705
			c4.611,3.326,7.345,8.662,7.351,14.347v16.03h212.547v-19.749c0.014-6.415,0.786-12.807,2.303-19.041l7.262-29.934
			c5.001-20.561,6.498-41.819,4.428-62.878l-8.856-71.469c-3.024-25.675-24.629-45.12-50.48-45.432h-2.303
			c-3.667-19.953-20.896-34.552-41.181-34.893h-6.996l-4.074-88.561c-0.383-18.548-15.456-33.425-34.008-33.565h-0.886
			c-18.975,0.291-34.122,15.91-33.831,34.885c0,0.003,0,0.005,0,0.008v4.871c-5.087-3.14-10.937-4.825-16.915-4.871h-1.506
			c-18.034,0.299-32.768,14.491-33.742,32.502l-7.616,112.119c-6.802-6.054-15.081-10.209-24-12.044
			c-8.681-1.746-17.221,3.571-19.483,12.133l-18.421,63.321c-3.595,12.302-3.316,25.412,0.797,37.55L126.958,340.345z"/>
		<path style="fill:#C89406;" d="M221.099,477.792h-17.712c-4.891,0-8.856,3.965-8.856,8.856s3.965,8.856,8.856,8.856h17.712
			c4.891,0,8.856-3.965,8.856-8.856S225.99,477.792,221.099,477.792z"/>
		<path style="fill:#F6D70A;" d="M114.825,88.122c4.891,0.028,8.879-3.913,8.907-8.804c0.014-2.379-0.93-4.664-2.62-6.339
			l-15.144-15.233l-9.653-5.048h71.646c4.891,0,8.856-3.965,8.856-8.856s-3.965-8.856-8.856-8.856H96.316l9.653-5.137l15.233-15.233
			c3.181-3.715,2.749-9.306-0.966-12.487c-3.316-2.839-8.205-2.839-11.521,0L73.29,37.554c-3.434,3.454-3.434,9.033,0,12.487
			l35.424,35.424C110.328,87.113,112.52,88.066,114.825,88.122z"/>
		<path style="fill:#F6D70A;" d="M336.228,52.698h44.281c4.891,0,8.856-3.965,8.856-8.856s-3.965-8.856-8.856-8.856h-44.281
			c-4.891,0-8.856,3.965-8.856,8.856S331.337,52.698,336.228,52.698z"/>
		<path style="fill:#F6D70A;" d="M433.646,34.986h-17.712c-4.891,0-8.856,3.965-8.856,8.856s3.965,8.856,8.856,8.856h17.712
			c4.891,0,8.856-3.965,8.856-8.856C442.502,38.951,438.537,34.986,433.646,34.986z"/>
		<path style="fill:#C89406;" d="M407.077,434.22c0,0,0,0,0-0.708V408.98c-0.026-6.657,0.777-13.291,2.391-19.749l7.616-30.377
			c5.227-20.856,6.785-42.462,4.605-63.853l-9.565-72.532c-3.67-26.277-26.162-45.82-52.694-45.786h-2.391
			c-4.196-20.555-22.239-35.345-43.218-35.424h-7.528l-4.339-90.244c-0.899-18.904-16.499-33.763-35.424-33.742h-1.151
			c-19.564,0-35.424,15.86-35.424,35.424v4.959c-5.364-3.184-11.474-4.895-17.712-4.959h-1.771
			c-18.667-0.043-34.164,14.408-35.424,33.033l-7.793,113.801c-7.163-6.163-15.796-10.372-25.063-12.221
			c-8.976-1.8-17.844,3.537-20.458,12.31l-19.306,64.295c-3.747,12.527-3.437,25.918,0.886,38.258l10.893,31.262
			c8.026,23.195,23.303,43.192,43.572,57.033l11.336,7.793c4.796,3.284,7.675,8.712,7.705,14.524v21.432l0,0
			c-11.69,8.856-17.712,23.026-17.712,43.218v26.568c0,4.891,3.965,8.856,8.856,8.856s8.856-3.965,8.856-8.856v-26.214
			c0-25.506,9.919-35.424,35.424-35.424h159.41c26.568,0,35.424,8.856,35.424,35.424H256.523c-4.891,0-8.856,3.965-8.856,8.856
			s3.965,8.856,8.856,8.856h150.554v8.856c0,4.891,3.965,8.856,8.856,8.856s8.856-3.965,8.856-8.856v-26.568
			C424.789,457.069,418.767,442.367,407.077,434.22z M212.242,424.655c-5.963-0.006-11.906,0.677-17.712,2.037v-13.904
			c-0.001-11.687-5.767-22.622-15.41-29.225l-11.159-7.705c-17.299-11.77-30.318-28.829-37.107-48.62l-10.893-31.262
			c-3.072-8.8-3.289-18.346-0.62-27.277l20.103-64.207c11.767,2.369,21.533,10.536,25.948,21.697l-4.428,64.65
			c-0.548,4.86,2.948,9.245,7.808,9.793c0.142,0.016,0.285,0.029,0.428,0.038h0.62c4.659,0.011,8.53-3.589,8.856-8.236
			l14.17-205.551c0.652-9.295,8.394-16.495,17.712-16.472h1.683c9.782,0,17.712,7.93,17.712,17.712v132.842
			c0,4.891,3.965,8.856,8.856,8.856s8.856-3.965,8.856-8.856V52.698c0-9.782,7.93-17.712,17.712-17.712h1.24
			c9.479-0.01,17.286,7.446,17.712,16.915l7.616,160.207c0,4.891,3.965,8.856,8.856,8.856l0,0c4.891,0,8.856-3.965,8.856-8.856
			l-2.48-53.137h6.642c13.483-0.103,24.906,9.911,26.568,23.292l4.959,39.853c0.568,4.337,4.217,7.611,8.59,7.705h1.151
			c4.855-0.596,8.307-5.015,7.711-9.869c-0.002-0.017-0.004-0.033-0.006-0.05l-3.277-25.506
			c17.73,0.071,32.677,13.239,34.982,30.819l9.565,72.266c1.951,19.285,0.542,38.761-4.162,57.565l-7.616,30.377
			c-1.931,7.704-2.912,15.615-2.923,23.557v17.712c-5.81-1.335-11.751-2.018-17.712-2.037L212.242,424.655L212.242,424.655z"/>
	</g>
</g>
<g>
</g>
<g>
</g>
<g>
</g>
<g>
</g>
<g>
</g>
<g>
</g>
<g>
</g>
<g>
</g>
<g>
</g>
<g>
</g>
<g>
</g>
<g>
</g>
<g>
</g>
<g>
</g>
<g>
</g>
</svg>
