<svg xmlns="http://www.w3.org/2000/svg" xmlns:xlink="http://www.w3.org/1999/xlink" viewBox="0 0 162.88 162.88"><defs><style>.cls-1{fill:#73f4b6;}.cls-2{fill:none;stroke-miterlimit:10;stroke-width:2px;stroke:url(#linear-gradient);}</style><linearGradient id="linear-gradient" y1="385.44" x2="162.88" y2="385.44" gradientTransform="matrix(1, 0, 0, -1, 0, 466.88)" gradientUnits="userSpaceOnUse"><stop offset="0" stop-color="#5357ff"/><stop offset="0.24" stop-color="#6d46ff"/><stop offset="0.49" stop-color="#813aff"/><stop offset="0.74" stop-color="#8d32ff"/><stop offset="1" stop-color="#9130ff"/></linearGradient></defs><title>Asset 2</title><g id="Layer_2" data-name="Layer 2"><g id="Layer_1-2" data-name="Layer 1"><g id="icons"><g id="_Group_" data-name="&lt;Group&gt;"><circle id="_Path_" data-name="&lt;Path&gt;" class="cls-1" cx="81.44" cy="81.44" r="44.61"/><path id="_Compound_Path_" data-name="&lt;Compound Path&gt;" class="cls-2" d="M145.79,145.43,122.39,122m18.28-1.83H120.2v20.47M81.33,99.36V63.16m-18.1,18.1h36.2m56.24,31.63a82.72,82.72,0,0,0,0-62.89A79.91,79.91,0,0,0,112.89,7.22,82.59,82.59,0,0,0,50,7.22,79.82,79.82,0,0,0,7.22,50a82.59,82.59,0,0,0,0,62.89A79.91,79.91,0,0,0,50,155.67a82.72,82.72,0,0,0,62.89,0"/></g></g></g></g></svg>