<?xml version="1.0" encoding="utf-8"?>
<!-- Generator: Adobe Illustrator 22.0.1, SVG Export Plug-In . SVG Version: 6.00 Build 0)  -->
<svg version="1.1" id="Layer_1" xmlns="http://www.w3.org/2000/svg" xmlns:xlink="http://www.w3.org/1999/xlink" x="0px" y="0px"
	 viewBox="0 0 64 64" style="enable-background:new 0 0 64 64;" xml:space="preserve">
<style type="text/css">
	.st0{display:none;}
	.st1{display:inline;fill:#FFFFFF;}
	.st2{display:inline;fill:#DDCDFF;}
	.st3{display:inline;fill:none;stroke:url(#XMLID_4_);stroke-width:2;stroke-miterlimit:10;}
	.st4{display:inline;fill:#CDDCFF;}
	.st5{display:inline;fill:none;stroke:url(#XMLID_5_);stroke-width:2;stroke-miterlimit:10;}
	.st6{display:inline;}
	.st7{fill:#CDDCFF;}
	.st8{display:inline;fill:none;stroke:url(#XMLID_6_);stroke-width:2;stroke-miterlimit:10;}
	.st9{display:inline;fill:none;stroke:url(#XMLID_7_);stroke-width:2;stroke-miterlimit:10;}
	.st10{display:inline;fill:none;stroke:url(#XMLID_8_);stroke-width:2;stroke-miterlimit:10;}
	.st11{display:inline;fill:#DDE7FF;}
	.st12{display:inline;fill:none;stroke:url(#XMLID_9_);stroke-width:2;stroke-miterlimit:10;}
	.st13{display:inline;fill:none;stroke:url(#XMLID_10_);stroke-width:2;stroke-miterlimit:10;}
	.st14{display:inline;fill:none;stroke:url(#XMLID_11_);stroke-width:2;stroke-miterlimit:10;}
	.st15{fill:#FFFFFF;}
	.st16{fill:#DDCDFF;}
	.st17{display:inline;fill:none;stroke:url(#XMLID_12_);stroke-width:2;stroke-miterlimit:10;}
	.st18{display:inline;fill:none;stroke:url(#XMLID_13_);stroke-width:2;stroke-miterlimit:10;}
	.st19{display:inline;fill:none;stroke:url(#XMLID_14_);stroke-width:2;stroke-miterlimit:10;}
	.st20{display:inline;fill:none;stroke:url(#XMLID_15_);stroke-width:2;stroke-miterlimit:10;}
	.st21{display:inline;fill:none;stroke:url(#XMLID_18_);stroke-width:2;stroke-miterlimit:10;}
	.st22{display:inline;fill:none;stroke:url(#XMLID_19_);stroke-width:2;stroke-miterlimit:10;}
	.st23{display:inline;fill:none;stroke:url(#XMLID_20_);stroke-width:2;stroke-miterlimit:10;}
	.st24{fill:#DDE7FF;}
	.st25{display:inline;fill:none;stroke:url(#XMLID_21_);stroke-width:2;stroke-miterlimit:10;}
	.st26{display:inline;fill:none;stroke:url(#XMLID_22_);stroke-width:2;stroke-miterlimit:10;}
	.st27{display:inline;fill:none;stroke:url(#XMLID_23_);stroke-width:2;stroke-miterlimit:10;}
	.st28{display:inline;fill:none;stroke:url(#XMLID_24_);stroke-width:2;stroke-miterlimit:10;}
	.st29{display:inline;fill:none;stroke:url(#XMLID_26_);stroke-width:2;stroke-miterlimit:10;}
	.st30{display:inline;fill:none;stroke:url(#XMLID_27_);stroke-width:2;stroke-miterlimit:10;}
	.st31{display:inline;fill:none;stroke:url(#XMLID_28_);stroke-width:2;stroke-miterlimit:10;}
	.st32{display:inline;fill:none;stroke:url(#XMLID_29_);stroke-width:2;stroke-miterlimit:10;}
	.st33{display:inline;fill:none;stroke:url(#XMLID_30_);stroke-width:2;stroke-miterlimit:10;}
	.st34{fill:none;stroke:url(#XMLID_31_);stroke-width:2;stroke-miterlimit:10;}
</style>
<g id="bg" class="st0">
	<rect id="XMLID_119_" x="-218" y="-268.2" class="st1" width="500" height="600.3"/>
</g>
<g id="guideline" class="st0">
</g>
<g id="icons">
	
		<image style="overflow:visible;opacity:0.72;" width="36" height="50" xlink:href="EF090C14F1C8407B.png"  transform="matrix(1 0 0 1 15 8)">
	</image>
	<g>
		<g>
			<g id="XMLID_1504_" class="st0">
				<path id="XMLID_1506_" class="st2" d="M45.7,30.8c0.1,9.8-12.1,21-13.5,22.4c-0.1,0.1-0.2,0.1-0.3,0
					c-1.5-1.3-13.6-12.6-13.5-22.4c0.1-7.5,6.1-13.7,13.7-13.7C39.5,17.1,45.6,23.2,45.7,30.8z M32,23.2c-4.2,0-7.6,3.4-7.6,7.6
					s3.4,7.6,7.6,7.6s7.6-3.4,7.6-7.6S36.2,23.2,32,23.2z"/>
				
					<linearGradient id="XMLID_4_" gradientUnits="userSpaceOnUse" x1="10.4" y1="33.9625" x2="53.6" y2="33.9625" gradientTransform="matrix(1 0 0 -1 0 66)">
					<stop  offset="0" style="stop-color:#5357FF"/>
					<stop  offset="0.2407" style="stop-color:#6D46FF"/>
					<stop  offset="0.4912" style="stop-color:#813AFF"/>
					<stop  offset="0.7439" style="stop-color:#8D32FF"/>
					<stop  offset="1" style="stop-color:#9130FF"/>
				</linearGradient>
				<path id="XMLID_1505_" class="st3" d="M45.7,30.8c0.1,9.8-12.1,21-13.5,22.4c-0.1,0.1-0.2,0.1-0.3,0
					c-1.5-1.3-13.6-12.6-13.5-22.4c0.1-7.5,6.1-13.7,13.7-13.7C39.5,17.1,45.6,23.2,45.7,30.8z M32,23.2c-4.2,0-7.6,3.4-7.6,7.6
					s3.4,7.6,7.6,7.6s7.6-3.4,7.6-7.6S36.2,23.2,32,23.2z M46.6,46c3.7-3.7,6-8.9,6-14.6s-2.3-10.8-6-14.6c-3.7-3.7-8.9-6-14.6-6
					s-10.8,2.3-14.6,6c-3.7,3.7-6,8.9-6,14.6s2.3,10.8,6,14.6"/>
			</g>
			<g id="XMLID_1499_" class="st0">
				<path id="XMLID_1503_" class="st1" d="M47.5,24.3L32.4,10.8L17,26c-0.2,0-0.3,0.1-0.3,0.3v26.6c0,0.2,0.1,0.3,0.3,0.3h30
					c0.2,0,0.6-0.2,0.6-0.4L47.5,24.3L47.5,24.3z"/>
				<path id="XMLID_1502_" class="st4" d="M32.4,10.8L30,13.1l12.5,11.1v28.5c0,0.2-0.4,0.4-0.6,0.4h5c0.2,0,0.6-0.2,0.6-0.4V24.3
					L32.4,10.8z"/>
				<path id="XMLID_1501_" class="st2" d="M36.8,37.5h-8.9c-0.1,0-0.2,0.1-0.2,0.2v15.5H37V37.7C37,37.6,36.9,37.5,36.8,37.5z"/>
				
					<linearGradient id="XMLID_5_" gradientUnits="userSpaceOnUse" x1="9.7348" y1="34.1197" x2="54.2655" y2="34.1197" gradientTransform="matrix(1 0 0 -1 0 66)">
					<stop  offset="0" style="stop-color:#5357FF"/>
					<stop  offset="0.2407" style="stop-color:#6D46FF"/>
					<stop  offset="0.4912" style="stop-color:#813AFF"/>
					<stop  offset="0.7439" style="stop-color:#8D32FF"/>
					<stop  offset="1" style="stop-color:#9130FF"/>
				</linearGradient>
				<path id="XMLID_1500_" class="st5" d="M10.4,30.5l22-19.6l21.2,18.9 M22.5,26H17c-0.2,0-0.3,0.1-0.3,0.3v26.6
					c0,0.2,0.1,0.3,0.3,0.3h30c0.2,0,0.3-0.1,0.3-0.3V26.3c0-0.2-0.1-0.3-0.3-0.3H36 M25.9,21.7h2.6 M31.1,21.7h2.6 M36.4,21.7H39
					 M37.1,53.2V37.7c0-0.1-0.1-0.2-0.2-0.2H28c-0.1,0-0.2,0.1-0.2,0.2v15.5"/>
			</g>
			<g id="XMLID_1493_" class="st0">
				<path id="XMLID_1498_" class="st1" d="M14.2,48.3l1.7-9.2c-1-2.2-1.5-4.6-1.5-7.1c0-9.6,7.8-17.4,17.4-17.4S49.2,22.4,49.2,32
					s-7.8,17.4-17.4,17.4c-3.4,0-6.6-1-9.2-2.7L14.2,48.3z"/>
				<g id="XMLID_1496_" class="st6">
					<path id="XMLID_1497_" class="st7" d="M30.5,27.1c-0.4-0.4-0.6-0.9-0.6-1.5s0.2-1.1,0.6-1.5s0.9-0.6,1.5-0.6
						c0.6,0,1.1,0.2,1.5,0.6s0.6,0.9,0.6,1.5s-0.2,1.1-0.6,1.5c-0.4,0.4-0.9,0.6-1.5,0.6S30.9,27.5,30.5,27.1z M33.5,40.5h-3.1
						c-0.1,0-0.2-0.1-0.2-0.2v-9.4c0-0.1,0.1-0.2,0.2-0.2h3.1c0.1,0,0.2,0.1,0.2,0.2v9.4C33.8,40.4,33.7,40.5,33.5,40.5z"/>
				</g>
				<path id="XMLID_1495_" class="st2" d="M31.9,14.6c-5.6,0-10.5,2.6-13.7,6.7c3-2.3,6.7-3.7,10.7-3.7c9.6,0,17.4,7.8,17.4,17.4
					c0,4-1.4,7.8-3.7,10.7c4.1-3.2,6.7-8.1,6.7-13.7C49.3,22.4,41.5,14.6,31.9,14.6z"/>
				
					<linearGradient id="XMLID_6_" gradientUnits="userSpaceOnUse" x1="9.2917" y1="34.05" x2="54.7083" y2="34.05" gradientTransform="matrix(1 0 0 -1 0 66)">
					<stop  offset="0" style="stop-color:#5357FF"/>
					<stop  offset="0.2407" style="stop-color:#6D46FF"/>
					<stop  offset="0.4912" style="stop-color:#813AFF"/>
					<stop  offset="0.7439" style="stop-color:#8D32FF"/>
					<stop  offset="1" style="stop-color:#9130FF"/>
				</linearGradient>
				<path id="XMLID_1494_" class="st8" d="M14.2,48.3l1.7-9.2c-1-2.2-1.5-4.6-1.5-7.1c0-9.6,7.8-17.4,17.4-17.4S49.2,22.4,49.2,32
					s-7.8,17.4-17.4,17.4c-3.4,0-6.6-1-9.2-2.7L14.2,48.3z M32,53.7c4.8,0,9.3-1.6,12.9-4.3 M47.4,47.4c3.1-3.1,5.3-7.2,6.1-11.8
					 M53.7,32c0-3.6-0.9-7-2.4-9.9 M49.6,19.3c-0.7-0.9-1.4-1.8-2.2-2.6 M47.4,16.6c-3.9-3.9-9.4-6.4-15.4-6.4s-11.4,2.4-15.4,6.4
					c-3.9,3.9-6.4,9.4-6.4,15.4 M32,27.7c0.6,0,1.1-0.2,1.5-0.6s0.6-0.9,0.6-1.5s-0.2-1.1-0.6-1.5c-0.4-0.4-0.9-0.6-1.5-0.6
					s-1.1,0.2-1.5,0.6s-0.6,0.9-0.6,1.5s0.2,1.1,0.6,1.5S31.4,27.7,32,27.7z M33.8,40.3v-9.4c0-0.1-0.1-0.2-0.2-0.2h-3.1
					c-0.1,0-0.2,0.1-0.2,0.2v9.4c0,0.1,0.1,0.2,0.2,0.2h3.1C33.7,40.5,33.8,40.4,33.8,40.3z"/>
			</g>
			<g id="XMLID_1487_" class="st0">
				<path id="XMLID_1492_" class="st1" d="M49.8,24c0-6.4-5.2-11.6-11.6-11.6c-3.2,0-6.2,1.3-8.3,3.5c-2.1-2.2-5-3.5-8.3-3.5
					C15.2,12.4,10,17.6,10,24c0,3.1,1.2,5.9,3.2,8l16.6,16.5l17-16.8c0.2-0.2,0.7-0.8,0.7-0.8C49,28.9,49.8,26.6,49.8,24z"/>
				<path id="XMLID_1491_" class="st4" d="M40.4,24.7c-7.4,0-13.4,6-13.4,13.4c0,3.7,1.5,7,3.9,9.5l16-15.9c0.2-0.2,0.7-0.8,0.7-0.8
					c0.7-0.9,1.2-1.9,1.6-3C46.8,25.9,43.8,24.7,40.4,24.7z"/>
				<circle id="XMLID_1490_" class="st1" cx="40.4" cy="38.1" r="10.4"/>
				<circle id="XMLID_1489_" class="st2" cx="40.4" cy="38.1" r="7.1"/>
				
					<linearGradient id="XMLID_7_" gradientUnits="userSpaceOnUse" x1="9.1297" y1="34.05" x2="54.8297" y2="34.05" gradientTransform="matrix(1 0 0 -1 0 66)">
					<stop  offset="0" style="stop-color:#5357FF"/>
					<stop  offset="0.2407" style="stop-color:#6D46FF"/>
					<stop  offset="0.4912" style="stop-color:#813AFF"/>
					<stop  offset="0.7439" style="stop-color:#8D32FF"/>
					<stop  offset="1" style="stop-color:#9130FF"/>
				</linearGradient>
				<path id="XMLID_1488_" class="st9" d="M31.1,47.4L30,48.5L13.4,32c-2-2.1-3.2-4.9-3.2-8c0-6.4,5.2-11.6,11.6-11.6
					c3.2,0,6.2,1.3,8.3,3.5c2.1-2.2,5-3.5,8.3-3.5C44.8,12.4,50,17.6,50,24c0,1.7-0.4,3.3-1,4.8 M40.4,27.7
					c-5.7,0-10.4,4.7-10.4,10.4s4.7,10.4,10.4,10.4s10.4-4.7,10.4-10.4C50.8,32.4,46.2,27.7,40.4,27.7z M35.7,50.5
					c1.6,0.7,3.3,1,5.1,1s3.5-0.4,5.1-1c1.6-0.7,3-1.6,4.2-2.8s2.1-2.6,2.8-4.2c0.7-1.6,1-3.3,1-5.1s-0.4-3.5-1-5.1 M36.8,38.1h7.3
					 M40.4,41.8v-7.3"/>
			</g>
			<g id="XMLID_1483_" class="st0">
				<path id="XMLID_1486_" class="st2" d="M28.7,11.9c-9.4,0-16.9,7.6-16.9,16.9c0,9.4,7.6,16.9,16.9,16.9c9.4,0,16.9-7.6,16.9-16.9
					C45.7,19.5,38.1,11.9,28.7,11.9z M28.7,41.9c-7.2,0-13.1-5.9-13.1-13.1s5.9-13.1,13.1-13.1s13.1,5.9,13.1,13.1
					C41.8,36.1,36,41.9,28.7,41.9z"/>
				<path id="XMLID_1485_" class="st4" d="M52.2,49.4l-2.7,2.7c-0.1,0.1-0.2,0.1-0.3,0l-7-7c-0.1-0.1-0.1-0.2,0-0.3l2.7-2.7
					c0.1-0.1,0.2-0.1,0.3,0l7,7C52.3,49.2,52.3,49.3,52.2,49.4z"/>
				
					<linearGradient id="XMLID_8_" gradientUnits="userSpaceOnUse" x1="10.8" y1="33.9625" x2="53.275" y2="33.9625" gradientTransform="matrix(1 0 0 -1 0 66)">
					<stop  offset="0" style="stop-color:#5357FF"/>
					<stop  offset="0.2407" style="stop-color:#6D46FF"/>
					<stop  offset="0.4912" style="stop-color:#813AFF"/>
					<stop  offset="0.7439" style="stop-color:#8D32FF"/>
					<stop  offset="1" style="stop-color:#9130FF"/>
				</linearGradient>
				<path id="XMLID_1484_" class="st10" d="M52.2,49.4l-2.7,2.7c-0.1,0.1-0.2,0.1-0.3,0l-7-7c-0.1-0.1-0.1-0.2,0-0.3l2.7-2.7
					c0.1-0.1,0.2-0.1,0.3,0l7,7C52.3,49.2,52.3,49.3,52.2,49.4z M40.7,40.6l2.4,2.4 M28.7,11.9c-9.4,0-16.9,7.6-16.9,16.9
					c0,9.4,7.6,16.9,16.9,16.9c9.4,0,16.9-7.6,16.9-16.9C45.7,19.5,38.1,11.9,28.7,11.9z M21.1,28.8H19 M25.1,28.8H23 M29.1,28.8H27
					 M33.1,28.8H31 M37.1,28.8H35"/>
			</g>
			<g id="XMLID_1477_" class="st0">
				<path id="XMLID_1482_" class="st1" d="M54.1,24.5c0.1,0,0.1,0.1,0.1,0.1l-2.7,7.8l2.7,8.1c0,0.1,0,0.1-0.1,0.1H10.2
					c-0.1,0-0.1-0.1-0.1-0.1l2.7-8.1l-2.7-7.8c0-0.1,0-0.1,0.1-0.1C10.2,24.5,54.1,24.5,54.1,24.5z"/>
				<path id="XMLID_1481_" class="st11" d="M12.6,31.8l0.2,0.6L10,40.5c0,0.1,0,0.1,0.1,0.1H54c0.1,0,0.1-0.1,0.1-0.1l-2.7-8.1
					l0.2-0.6C51.6,31.8,12.6,31.8,12.6,31.8z"/>
				<path id="XMLID_1480_" class="st2" d="M34.9,37.7l-3-1.6l-3,1.6c-0.4,0.2-0.8-0.1-0.7-0.5l0.6-3.4l-2.4-2.4
					c-0.3-0.3-0.1-0.8,0.3-0.9L30,30l1.5-3.1c0.2-0.4,0.7-0.4,0.9,0l1.5,3.1l3.4,0.5c0.4,0.1,0.6,0.6,0.3,0.9l-2.5,2.4l0.5,3.4
					C35.7,37.6,35.3,37.9,34.9,37.7z"/>
				<circle id="XMLID_1479_" class="st1" cx="32.1" cy="32.5" r="13.1"/>
				
					<linearGradient id="XMLID_9_" gradientUnits="userSpaceOnUse" x1="8.8" y1="34" x2="54.9417" y2="34" gradientTransform="matrix(1 0 0 -1 0 66)">
					<stop  offset="0" style="stop-color:#5357FF"/>
					<stop  offset="0.2407" style="stop-color:#6D46FF"/>
					<stop  offset="0.4912" style="stop-color:#813AFF"/>
					<stop  offset="0.7439" style="stop-color:#8D32FF"/>
					<stop  offset="1" style="stop-color:#9130FF"/>
				</linearGradient>
				<path id="XMLID_1478_" class="st12" d="M34.9,37.7l-3-1.6l-3,1.6c-0.4,0.2-0.8-0.1-0.7-0.5l0.6-3.4l-2.4-2.4
					c-0.3-0.3-0.1-0.8,0.3-0.9L30,30l1.5-3.1c0.2-0.4,0.7-0.4,0.9,0l1.5,3.1l3.4,0.5c0.4,0.1,0.6,0.6,0.3,0.9l-2.5,2.4l0.5,3.4
					C35.7,37.6,35.3,37.9,34.9,37.7z M31.9,19.4c-7.2,0-13.1,5.9-13.1,13.1s5.9,13.1,13.1,13.1S45,39.8,45,32.5
					C45,25.3,39.2,19.4,31.9,19.4z M15.4,43.2c0.7,1.1,1.5,2,2.4,3c0.9,0.9,1.9,1.7,3,2.4s2.2,1.3,3.4,1.8c1.2,0.5,2.4,0.9,3.7,1.2
					c1.3,0.3,2.6,0.4,4,0.4s2.7-0.1,4-0.4c1.3-0.3,2.6-0.7,3.7-1.2c1.2-0.5,2.3-1.1,3.4-1.8c1.1-0.7,2-1.5,3-2.4
					c0.9-0.9,1.7-1.9,2.4-3 M48.5,20.8c-0.7-1.1-1.5-2-2.4-3c-0.9-0.9-1.9-1.7-3-2.4c-1.1-0.7-2.2-1.3-3.4-1.8s-2.4-0.9-3.7-1.2
					S33.4,12,32,12c-1.4,0-2.7,0.1-4,0.4c-1.3,0.3-2.6,0.7-3.7,1.2c-1.2,0.5-2.3,1.1-3.4,1.8c-1.1,0.7-2,1.5-3,2.4
					c-0.9,0.9-1.7,1.9-2.4,3 M31.9,22.6c-5.2,0-9.4,4.2-9.4,9.4 M18.9,24.1h-9c-0.1,0-0.1,0.1-0.1,0.1l2.7,7.8l-2.7,8.1
					c0,0.1,0,0.1,0.1,0.1h9 M44.9,40.3h9c0.1,0,0.1-0.1,0.1-0.1L51.2,32l2.7-7.8c0-0.1,0-0.1-0.1-0.1h-9"/>
			</g>
			<g id="XMLID_1469_" class="st0">
				<path id="XMLID_1476_" class="st1" d="M41.6,27.5c0,5.3-4.3,9.6-9.6,9.6l0,0c-5.3,0-9.6-4.3-9.6-9.6V15.6l-2.3-0.8L20,14.7v-3.9
					c0-0.1,0.1-0.2,0.2-0.2h23.7c0.1,0,0.2,0.1,0.2,0.2v3.9c0,0,0,0.1-0.1,0.1l-2.3,0.8v11.9H41.6z"/>
				<path id="XMLID_1475_" class="st2" d="M43.8,10.6h-5.2c0.1,0,0,0.1,0,0.2v3.9v0.1v0.8v11.9c0,4.8-3.5,8.8-8.1,9.5
					c0.5,0.1,1,0.1,1.5,0.1l0,0c5.3,0,9.6-4.3,9.6-9.6V15.6l2.3-0.8l0.1-0.1v-3.9C44,10.7,43.9,10.6,43.8,10.6z"/>
				<path id="XMLID_1474_" class="st1" d="M41.6,53.4H22.4c-0.1,0-0.2-0.1-0.2-0.2v-6.8c0-0.1,0.1-0.2,0.2-0.2h19.2
					c0.1,0,0.2,0.1,0.2,0.2v6.8C41.8,53.3,41.7,53.4,41.6,53.4z"/>
				<path id="XMLID_1473_" class="st4" d="M41.6,46.3h-3.8v4c0,0.1-0.1,0.2-0.2,0.2H22.3v2.8c0,0.1,0.1,0.2,0.2,0.2h19.2
					c0.1,0,0.2-0.1,0.2-0.2v-6.8C41.8,46.3,41.7,46.3,41.6,46.3z"/>
				<path id="XMLID_1472_" class="st2" d="M28.6,45.8v-0.3c0-1.4,0.8-2.7,2-3.3l0,0v-5.6h2.9v5.6l0,0c1.3,0.6,2,1.9,2,3.3v0.3H28.6z
					"/>
				<path id="XMLID_1471_" class="st4" d="M35,29.2l-3-1.6l-3,1.5c-0.4,0.2-0.8-0.1-0.7-0.5l0.6-3.3L26.6,23
					c-0.3-0.3-0.1-0.8,0.3-0.8l3.3-0.5l1.5-3c0.2-0.4,0.7-0.4,0.9,0l1.5,3l3.3,0.5c0.4,0.1,0.6,0.6,0.3,0.8l-2.4,2.3l0.5,3.3
					C35.7,29.1,35.3,29.4,35,29.2z"/>
				
					<linearGradient id="XMLID_10_" gradientUnits="userSpaceOnUse" x1="14.1" y1="34" x2="49.9" y2="34" gradientTransform="matrix(1 0 0 -1 0 66)">
					<stop  offset="0" style="stop-color:#5357FF"/>
					<stop  offset="0.2407" style="stop-color:#6D46FF"/>
					<stop  offset="0.4912" style="stop-color:#813AFF"/>
					<stop  offset="0.7439" style="stop-color:#8D32FF"/>
					<stop  offset="1" style="stop-color:#9130FF"/>
				</linearGradient>
				<path id="XMLID_1470_" class="st13" d="M41.7,27.5c0,5.3-4.3,9.6-9.6,9.6l0,0c-5.3,0-9.6-4.3-9.6-9.6V15.6l-2.3-0.8l-0.1-0.1
					v-3.9c0-0.1,0.1-0.2,0.2-0.2H44c0.1,0,0.2,0.1,0.2,0.2v3.9c0,0,0,0.1-0.1,0.1l-2.3,0.8v11.9H41.7z M22.4,19.4
					c-0.2-0.5-0.5-0.9-0.8-1.2c-0.3-0.3-0.7-0.6-1.2-0.8c-0.5-0.2-1-0.3-1.5-0.3s-1,0.1-1.5,0.3c-0.5,0.2-0.9,0.5-1.2,0.8
					c-0.3,0.3-0.6,0.7-0.8,1.2s-0.3,0.9-0.3,1.5c0,0.5,0.1,1,0.3,1.5s0.5,0.9,0.8,1.2c0.3,0.3,0.7,0.6,1.2,0.8l2.7,1.3
					c0.3,0.1,0.5,0.3,0.7,0.5s0.4,0.5,0.5,0.7c0.1,0.3,0.2,0.6,0.2,0.9s-0.1,0.6-0.2,0.9s-0.3,0.5-0.5,0.7s-0.5,0.4-0.7,0.5
					C19.8,30,19.5,30,19.2,30s-0.6-0.1-0.9-0.2s-0.5-0.3-0.7-0.5s-0.4-0.5-0.5-0.7c-0.1-0.3-0.2-0.6-0.2-0.9 M47.1,27.7
					c0,0.3-0.1,0.6-0.2,0.9c-0.1,0.3-0.3,0.5-0.5,0.7s-0.5,0.4-0.7,0.5C45.4,30,45.1,30,44.8,30s-0.6-0.1-0.9-0.2
					c-0.3-0.1-0.5-0.3-0.7-0.5s-0.4-0.5-0.5-0.7c-0.1-0.3-0.2-0.6-0.2-0.9s0.1-0.6,0.2-0.9c0.1-0.3,0.3-0.5,0.5-0.7s0.5-0.4,0.7-0.5
					l2.7-1.3c0.5-0.2,0.9-0.5,1.2-0.8s0.6-0.7,0.8-1.2s0.3-1,0.3-1.5s-0.1-1-0.3-1.5s-0.5-0.9-0.8-1.2c-0.3-0.3-0.7-0.6-1.2-0.8
					c-0.5-0.2-1-0.3-1.5-0.3s-1,0.1-1.5,0.3c-0.5,0.2-0.9,0.5-1.2,0.8s-0.6,0.7-0.8,1.2 M41.8,53.2v-6.8c0-0.1-0.1-0.2-0.2-0.2H22.4
					c-0.1,0-0.2,0.1-0.2,0.2v6.8c0,0.1,0.1,0.2,0.2,0.2h19.2C41.7,53.4,41.8,53.3,41.8,53.2z M28.5,46.3V46c0-1.4,0.8-2.7,2-3.3l0,0
					V37 M33.5,37v5.6l0,0c1.3,0.6,2,1.9,2,3.3v0.3 M35.6,28.7l-0.5-3.3l2.4-2.3c0.3-0.3,0.1-0.8-0.3-0.8l-3.3-0.5l-1.5-3
					c-0.2-0.4-0.7-0.4-0.9,0l-1.5,3l-3.3,0.5c-0.4,0.1-0.6,0.5-0.3,0.8l2.4,2.3l-0.6,3.3c-0.1,0.4,0.3,0.7,0.7,0.5l3-1.5l2.9,1.6
					C35.3,29.4,35.7,29.1,35.6,28.7z"/>
			</g>
			<g id="XMLID_1463_" class="st0">
				<path id="XMLID_1468_" class="st4" d="M50.2,19.7H13.8c-0.1,0-0.2,0.1-0.2,0.2v3.8h32.6c0.1,0,0.2,0.1,0.2,0.2v20.3h3.8
					c0.1,0,0.2-0.1,0.2-0.2V20C50.4,19.8,50.3,19.7,50.2,19.7z"/>
				<path id="XMLID_1467_" class="st4" d="M54.2,15.7H17.8c-0.1,0-0.2,0.1-0.2,0.2v3.8h32.6c0.1,0,0.2,0.1,0.2,0.2v20.3h3.8
					c0.1,0,0.2-0.1,0.2-0.2V16C54.4,15.8,54.3,15.7,54.2,15.7z"/>
				<path id="XMLID_1466_" class="st1" d="M46.2,48.2H9.8c-0.1,0-0.2-0.1-0.2-0.2V24c0-0.1,0.1-0.2,0.2-0.2h36.3
					c0.1,0,0.2,0.1,0.2,0.2v24C46.4,48.1,46.3,48.2,46.2,48.2z"/>
				<polygon id="XMLID_1465_" class="st2" points="46.4,42.8 34.6,42.8 30.8,37.4 26.8,42.8 21.1,35.1 14.9,42.8 9.6,42.8 9.6,48.3 
					46.4,48.3 				"/>
				
					<linearGradient id="XMLID_11_" gradientUnits="userSpaceOnUse" x1="8.6" y1="34" x2="55.4334" y2="34" gradientTransform="matrix(1 0 0 -1 0 66)">
					<stop  offset="0" style="stop-color:#5357FF"/>
					<stop  offset="0.2407" style="stop-color:#6D46FF"/>
					<stop  offset="0.4912" style="stop-color:#813AFF"/>
					<stop  offset="0.7439" style="stop-color:#8D32FF"/>
					<stop  offset="1" style="stop-color:#9130FF"/>
				</linearGradient>
				<path id="XMLID_1464_" class="st14" d="M46.2,48.2H9.8c-0.1,0-0.2-0.1-0.2-0.2V24c0-0.1,0.1-0.2,0.2-0.2h36.3
					c0.1,0,0.2,0.1,0.2,0.2v24C46.4,48.1,46.3,48.2,46.2,48.2z M48.3,44.2h1.8c0.1,0,0.2-0.1,0.2-0.2V20c0-0.1-0.1-0.2-0.2-0.2H13.8
					c-0.1,0-0.2,0.1-0.2,0.2v1.6 M52.3,40.2h1.8c0.1,0,0.2-0.1,0.2-0.2V16c0-0.1-0.1-0.2-0.2-0.2H17.8c-0.1,0-0.2,0.1-0.2,0.2v1.6
					 M46.4,42.5H34.6l-3.8-5.3l-4,5.3l-5.7-7.6l-6.2,7.6H9.6 M22.8,29H21 M26.8,29H25 M29,29h1.8 M33,29h1.8"/>
			</g>
			<g id="XMLID_1455_" class="st0">
				<g id="XMLID_1460_" class="st6">
					<path id="XMLID_1462_" class="st7" d="M29.5,20.9L29.5,20.9L26,17.3c0,0,0,0-0.1,0l-3,0.8c-0.1,0-0.1,0.1,0,0.2l2.8,2.8l-1,2.8
						l-2.8,1L19,22.2c-0.1-0.1-0.2,0-0.2,0l-0.8,3c0,0,0,0,0,0.1l3.5,3.5h0.1l3.6-1.2l3.4,3.4l3.3-3.3l-3.5-3.5L29.5,20.9z"/>
					<path id="XMLID_1461_" class="st7" d="M46.5,37.7L43,34.2h-0.1l-3.6,1.2L36,32l-3.3,3.4l3.4,3.3L35,42.1v0.1l3.5,3.5
						c0,0,0,0,0.1,0l3-0.8c0.1,0,0.1-0.1,0-0.2l-2.8-2.8l1-2.8l2.8-1l2.8,2.8c0.1,0.1,0.2,0,0.2,0L46.5,37.7L46.5,37.7z"/>
				</g>
				<g id="XMLID_1457_" class="st6">
					<polygon id="XMLID_1459_" class="st15" points="42.3,19.3 39.2,22 39.5,22.4 28.2,33.7 30.1,35.7 41.4,24.3 41.8,24.7 
						44.6,21.5 					"/>
					<path id="XMLID_1458_" class="st16" d="M27.7,33.4l-8.5,8.5c-0.8,0.8-0.8,2.2,0,3s2.2,0.8,3,0l8.5-8.5L27.7,33.4z"/>
				</g>
				
					<linearGradient id="XMLID_12_" gradientUnits="userSpaceOnUse" x1="10.3499" y1="34" x2="53.6502" y2="34" gradientTransform="matrix(1 0 0 -1 0 66)">
					<stop  offset="0" style="stop-color:#5357FF"/>
					<stop  offset="0.2407" style="stop-color:#6D46FF"/>
					<stop  offset="0.4912" style="stop-color:#813AFF"/>
					<stop  offset="0.7439" style="stop-color:#8D32FF"/>
					<stop  offset="1" style="stop-color:#9130FF"/>
				</linearGradient>
				<path id="XMLID_1456_" class="st17" d="M28.7,31l-3.4-3.4l-3.6,1.2h-0.1l-3.5-3.5c0,0,0,0,0-0.1l0.8-3c0-0.1,0.1-0.1,0.2,0
					l2.8,2.8l2.8-1l1-2.8L23,18.4c-0.1-0.1,0-0.2,0-0.2l3-0.8c0,0,0,0,0.1,0l3.5,3.5V21l-1.1,3.3l3.5,3.5 M32.9,35.4l3.4,3.3
					L35.2,42v0.1l3.5,3.5c0,0,0,0,0.1,0l3-0.8c0.1,0,0.1-0.1,0-0.2L39,41.8l1-2.8l2.8-1l2.8,2.8c0.1,0.1,0.2,0,0.2,0l0.8-3
					c0,0,0,0,0-0.1l-3.5-3.5H43l-3.6,1.2L36.2,32 M26.5,32l5.8,5.8 M30.1,35.8l11.3-11.3l0.3,0.3l2.8-3.2l-2.2-2.2l-3.1,2.8l0.3,0.3
					L28.2,33.9 M27.7,33.5L19.2,42c-0.8,0.8-0.8,2.2,0,3l0,0c0.8,0.8,2.2,0.8,3,0l8.5-8.5 M32,11.3c-11.4,0-20.7,9.2-20.7,20.7
					c0,11.4,9.2,20.7,20.7,20.7c11.4,0,20.7-9.2,20.7-20.7 M51,24c-1-2.5-2.6-4.7-4.4-6.6S42.5,14,40,13"/>
			</g>
			<g id="XMLID_1449_" class="st0">
				<rect id="XMLID_1454_" x="11.9" y="29" class="st1" width="39.2" height="21.5"/>
				<polygon id="XMLID_1453_" class="st2" points="47.1,29 47.1,46.5 11.9,46.5 11.9,50.5 51.1,50.5 51.1,29 				"/>
				<path id="XMLID_1452_" class="st1" d="M51.9,33H12.1c-0.1,0-0.2-0.1-0.2-0.2V20c0-0.1,0.1-0.2,0.2-0.2h39.7
					c0.1,0,0.2,0.1,0.2,0.2v12.8C52.1,33,52,33,51.9,33z"/>
				<path id="XMLID_1451_" class="st2" d="M51.9,19.8H12.1c-0.1,0-0.2,0.1-0.2,0.2v4c0-0.1,0.1-0.2,0.2-0.2h39.7
					c0.1,0,0.2,0.1,0.2,0.2v-4C52.1,19.9,52,19.8,51.9,19.8z"/>
				
					<linearGradient id="XMLID_13_" gradientUnits="userSpaceOnUse" x1="10.9428" y1="34" x2="53.0569" y2="34" gradientTransform="matrix(1 0 0 -1 0 66)">
					<stop  offset="0" style="stop-color:#5357FF"/>
					<stop  offset="0.2407" style="stop-color:#6D46FF"/>
					<stop  offset="0.4912" style="stop-color:#813AFF"/>
					<stop  offset="0.7439" style="stop-color:#8D32FF"/>
					<stop  offset="1" style="stop-color:#9130FF"/>
				</linearGradient>
				<path id="XMLID_1450_" class="st18" d="M51.4,35.3v15c0,0.1-0.1,0.3-0.3,0.3H12.9c-0.1,0-0.3-0.1-0.3-0.3v-15 M52.1,32.8V20
					c0-0.1-0.1-0.2-0.2-0.2H12.1c-0.1,0-0.2,0.1-0.2,0.2v12.8c0,0.1,0.1,0.2,0.2,0.2h39.7C52,33,52.1,33,52.1,32.8z M39.6,19.8v-6.2
					c0-0.1-0.1-0.2-0.2-0.2H24.5c-0.1,0-0.2,0.1-0.2,0.2v6.2 M19.3,34.5v2.9h5.8v-2.9 M39.3,34.5v2.9h5.8v-2.9 M23,25.7h2 M27,25.7
					h2 M31,25.7h2 M35,25.7h2 M39,25.7h2"/>
			</g>
			<g id="XMLID_1445_" class="st0">
				<rect id="XMLID_1448_" x="11.4" y="22.5" class="st1" width="41.5" height="27.3"/>
				<path id="XMLID_1447_" class="st11" d="M54.2,52.6H9.8c-0.1,0-0.2-0.1-0.2-0.2l-1-5c0-0.1,0.1-0.3,0.2-0.3h20.1l1,1H34l1-1h20.1
					c0.1,0,0.3,0.1,0.2,0.3l-1,5C54.4,52.5,54.3,52.6,54.2,52.6z"/>
				
					<linearGradient id="XMLID_14_" gradientUnits="userSpaceOnUse" x1="7.5727" y1="33.9608" x2="56.4" y2="33.9608" gradientTransform="matrix(1 0 0 -1 0 66)">
					<stop  offset="0" style="stop-color:#5357FF"/>
					<stop  offset="0.2407" style="stop-color:#6D46FF"/>
					<stop  offset="0.4912" style="stop-color:#813AFF"/>
					<stop  offset="0.7439" style="stop-color:#8D32FF"/>
					<stop  offset="1" style="stop-color:#9130FF"/>
				</linearGradient>
				<path id="XMLID_1446_" class="st19" d="M22.3,33.7c-2.3-2.6-3.5-6-3.3-9.7s2-7,4.6-9.2c2.6-2.3,6-3.5,9.7-3.3s7,2,9.2,4.6
					c2.3,2.6,3.5,6,3.3,9.7s-2,7-4.6,9.2 M54.4,52.4l1-5c0-0.1-0.1-0.3-0.2-0.3H35.1l-1,1H30l-1-1H8.8c-0.1,0-0.3,0.1-0.2,0.3l1,5
					c0,0.1,0.1,0.2,0.2,0.2h44.5C54.3,52.6,54.4,52.5,54.4,52.4z M15.3,22.7h-3.9c-0.2,0-0.3,0.1-0.3,0.3v21.7 M52.9,44.7V23
					c0-0.2-0.1-0.3-0.3-0.3h-4.2 M15.9,42.1h32.5v-7 M31.9,20.5c-1.9,0-3.4,1.5-3.4,3.4s1.5,3.4,3.4,3.4s3.4-1.5,3.4-3.4
					S33.7,20.5,31.9,20.5z M39.9,23.9c0-1.1-0.2-2.2-0.6-3.1c-0.4-1-1-1.8-1.7-2.6c-0.7-0.7-1.6-1.3-2.6-1.7c-1-0.4-2-0.6-3.1-0.6
					s-2.2,0.2-3.1,0.6s-1.8,1-2.6,1.7c-0.7,0.7-1.3,1.6-1.7,2.6s-0.6,2-0.6,3.1s0.2,2.2,0.6,3.1c0.4,1,1,1.8,1.7,2.6
					c0.7,0.7,1.6,1.3,2.6,1.7c1,0.4,2,0.6,3.1,0.6s2.2-0.2,3.1-0.6 M35.1,24.9v0.5c0,1.3,1.1,2.4,2.4,2.4l0,0c1.3,0,2.4-1.1,2.4-2.4
					v-1.6"/>
			</g>
			<g id="XMLID_1439_" class="st0">
				<rect id="XMLID_1444_" x="9.3" y="26.3" class="st1" width="34.7" height="23.2"/>
				<polygon id="XMLID_1443_" class="st2" points="9.3,26.3 26.5,38 45.1,26.3 				"/>
				<circle id="XMLID_1442_" class="st1" cx="44" cy="25.1" r="7.6"/>
				<path id="XMLID_1441_" class="st4" d="M44,17.5c-2.6,0-4.9,1.3-6.3,3.3c1.2-0.8,2.7-1.3,4.3-1.3c4.2,0,7.6,3.4,7.6,7.6
					c0,1.6-0.5,3.1-1.3,4.3c2-1.4,3.3-3.7,3.3-6.3C51.5,20.9,48.2,17.5,44,17.5z"/>
				
					<linearGradient id="XMLID_15_" gradientUnits="userSpaceOnUse" x1="8.1" y1="33.95" x2="55.9" y2="33.95" gradientTransform="matrix(1 0 0 -1 0 66)">
					<stop  offset="0" style="stop-color:#5357FF"/>
					<stop  offset="0.2407" style="stop-color:#6D46FF"/>
					<stop  offset="0.4912" style="stop-color:#813AFF"/>
					<stop  offset="0.7439" style="stop-color:#8D32FF"/>
					<stop  offset="1" style="stop-color:#9130FF"/>
				</linearGradient>
				<path id="XMLID_1440_" class="st20" d="M44,35.1v14.4c0,0.1-0.1,0.2-0.2,0.2H9.3c-0.1,0-0.2-0.1-0.2-0.2v-23
					c0-0.1,0.1-0.2,0.2-0.2h25.3 M9.1,26.4L26.5,38l10-6.8 M44,17.7c-4.2,0-7.6,3.4-7.6,7.6s3.4,7.6,7.6,7.6s7.6-3.4,7.6-7.6
					S48.2,17.7,44,17.7z M46.9,35.8c4.6-1.3,8-5.5,8-10.5c0-6-4.9-10.9-10.9-10.9 M41.1,14.7c-3.8,1-6.9,4.1-7.8,8 M44.1,29.1v-8h-3
					 M46.8,29.1h-5.7"/>
			</g>
			<g id="XMLID_1434_" class="st0">
				<path id="XMLID_1438_" class="st4" d="M53.2,42.4H15.8c-0.1,0-0.2-0.1-0.2-0.2V16.8c0-0.1,0.1-0.1,0.1-0.1h9.7h0.1l2.7,2.7h25
					c0.1,0,0.1,0.1,0.1,0.1v22.8C53.3,42.3,53.3,42.4,53.2,42.4z"/>
				<path id="XMLID_1437_" class="st1" d="M48.2,47.4H10.8c-0.1,0-0.2-0.1-0.2-0.2V21.8c0-0.1,0.1-0.1,0.1-0.1h9.7h0.1l2.7,2.7h25
					c0.1,0,0.1,0.1,0.1,0.1v22.8C48.3,47.3,48.3,47.4,48.2,47.4z"/>
				<path id="XMLID_1436_" class="st2" d="M14.8,43.4c-0.1,0-0.2-0.1-0.2-0.2V21.6h-3.9c-0.1,0-0.1,0.1-0.1,0.1v25.4
					c0,0.1,0.1,0.2,0.2,0.2h37.4c0.1,0,0.1-0.1,0.1-0.1v-3.9H14.8V43.4z"/>
				
					<linearGradient id="XMLID_18_" gradientUnits="userSpaceOnUse" x1="9.6527" y1="33.75" x2="53.9527" y2="33.75" gradientTransform="matrix(1 0 0 -1 0 66)">
					<stop  offset="0" style="stop-color:#5357FF"/>
					<stop  offset="0.2407" style="stop-color:#6D46FF"/>
					<stop  offset="0.4912" style="stop-color:#813AFF"/>
					<stop  offset="0.7439" style="stop-color:#8D32FF"/>
					<stop  offset="1" style="stop-color:#9130FF"/>
				</linearGradient>
				<path id="XMLID_1435_" class="st21" d="M48.2,47.4H10.8c-0.1,0-0.2-0.1-0.2-0.2V21.8c0-0.1,0.1-0.1,0.1-0.1h9.7h0.1l2.7,2.7h25
					c0.1,0,0.1,0.1,0.1,0.1v22.8C48.3,47.3,48.3,47.4,48.2,47.4z M51.2,42.8h1.6c0.1,0,0.1-0.1,0.1-0.1V19.9c0-0.1-0.1-0.1-0.1-0.1
					h-25l-2.7-2.7c0,0,0,0-0.1,0h-9.7c-0.1,0-0.1,0.1-0.1,0.1V19 M25,35.6h-2 M26.8,35.6h2.1 M30.6,35.6h2.1 M34.4,35.6h2.1"/>
			</g>
			<g id="XMLID_1430_" class="st0">
				<path id="XMLID_1433_" class="st1" d="M50,12H14.4c-0.1,0-0.2,0.1-0.2,0.2v39.3h36V12.3C50.2,12.1,50.1,12,50,12z"/>
				<path id="XMLID_1432_" class="st2" d="M50,12H14.4c-0.1,0-0.2,0-0.2,0v5.2h36V12C50.2,12.1,50.1,12,50,12z"/>
				
					<linearGradient id="XMLID_19_" gradientUnits="userSpaceOnUse" x1="9.9" y1="34" x2="54.18" y2="34" gradientTransform="matrix(1 0 0 -1 0 66)">
					<stop  offset="0" style="stop-color:#5357FF"/>
					<stop  offset="0.2407" style="stop-color:#6D46FF"/>
					<stop  offset="0.4912" style="stop-color:#813AFF"/>
					<stop  offset="0.7439" style="stop-color:#8D32FF"/>
					<stop  offset="1" style="stop-color:#9130FF"/>
				</linearGradient>
				<path id="XMLID_1431_" class="st22" d="M14.1,52.1v-40c0-0.1,0.1-0.2,0.2-0.2h35.5c0.1,0,0.2,0.1,0.2,0.2v40 M49.9,17.6H14.2
					 M16.5,14.9h2.3 M22.9,14.9h-2.3 M24.8,14.9H27 M54.1,52.1H9.9 M17.7,21.7v9.5h28.6 M17.7,36.2v5h6 M29,36.2v5h6 M40.3,36.2v5h6
					 M36.8,46.5h-10"/>
			</g>
			<g id="XMLID_1425_" class="st0">
				<path id="XMLID_1429_" class="st1" d="M43.3,47H17.5h-3.4c0,2.8,2.3,5.2,5.2,5.2h22.3c2.8,0,5.2-2.3,5.2-5.2H43.3z"/>
				<path id="XMLID_1428_" class="st1" d="M40.5,49H20.3c-0.1,0-0.1-0.1-0.1-0.1l-3.6-20.2c0-0.1,0.1-0.2,0.1-0.2h27.4
					c0.1,0,0.2,0.1,0.1,0.2L40.5,49C40.6,49,40.6,49,40.5,49z"/>
				<path id="XMLID_1427_" class="st2" d="M44.1,28.6h-5.5L35.7,45c0,0.1-0.1,0.1-0.1,0.1H19.4l0.7,3.9c0,0.1,0.1,0.1,0.1,0.1h20.2
					c0.1,0,0.1-0.1,0.1-0.1l3.6-20.2C44.3,28.6,44.2,28.6,44.1,28.6z"/>
				
					<linearGradient id="XMLID_20_" gradientUnits="userSpaceOnUse" x1="13.0622" y1="33.95" x2="50.9378" y2="33.95" gradientTransform="matrix(1 0 0 -1 0 66)">
					<stop  offset="0" style="stop-color:#5357FF"/>
					<stop  offset="0.2407" style="stop-color:#6D46FF"/>
					<stop  offset="0.4912" style="stop-color:#813AFF"/>
					<stop  offset="0.7439" style="stop-color:#8D32FF"/>
					<stop  offset="1" style="stop-color:#9130FF"/>
				</linearGradient>
				<path id="XMLID_1426_" class="st23" d="M40.5,49H20.3c-0.1,0-0.1-0.1-0.1-0.1l-3.6-20.2c0-0.1,0.1-0.2,0.1-0.2h27.4
					c0.1,0,0.2,0.1,0.1,0.2L40.5,49C40.6,49,40.6,49,40.5,49z M17.5,47h-3.4l0,0c0,2.8,2.3,5.2,5.2,5.2h22.3c2.8,0,5.2-2.3,5.2-5.2
					l0,0h-3.4 M42.2,42.2h3.6c2.3,0,4.1-1.8,4.1-4.1l0,0c0-2.3-1.8-4.1-4.1-4.1h-1.9 M39.9,11.9H26.3 M41.8,11.9
					c1.4,0,2.5,1.1,2.5,2.5l0,0c0,1.4-1.1,2.5-2.5,2.5H20.4c-1.7,0-3,1.3-3,3l0,0c0,1.7,1.3,3,3,3h6c1.5,0,2.7,1.2,2.7,2.7v0.8
					 M42.2,21.1h-4.5c-2.1,0-3.8,1.7-3.8,3.8v1.6"/>
			</g>
			<g id="XMLID_1418_" class="st0">
				<path id="XMLID_1424_" class="st1" d="M48.4,13.7H15.9c-2.6,0-4.7,2.1-4.7,4.7v0.4V22v4.9c0,0.1,0.1,0.2,0.2,0.2h10.5
					c0.1,0,0.2-0.1,0.2-0.2V22h20v4.9c0,0.1,0.1,0.2,0.2,0.2h10.5c0.1,0,0.2-0.1,0.2-0.2V22v-3.2v-0.4C53,15.8,51,13.7,48.4,13.7z"
					/>
				<path id="XMLID_1423_" class="st11" d="M48.4,13.7H15.9c-2.6,0-4.7,2.1-4.7,4.7v0.4v2.6c0-2.6,2.1-4.7,4.7-4.7h32.5
					c2.6,0,4.7,2.1,4.7,4.7v-2.6v-0.4C53,15.8,51,13.7,48.4,13.7z"/>
				<path id="XMLID_1422_" class="st1" d="M43.3,30.6h0.2c3,0,5.4,2.4,5.4,5.4v7.1l1.7,0.9l0.1,0.1v6.1c0,0.1-0.1,0.1-0.1,0.1H14.1
					c-0.1,0-0.1-0.1-0.1-0.1v-6.1c0-0.1,0-0.1,0.1-0.1l1.7-0.9V36c0-3,2.4-5.4,5.4-5.4l0,0h4.6v-4.1c0-0.1,0.1-0.3,0.3-0.3h3.8
					c0.1,0,0.3,0.1,0.3,0.3v4.1h4.5v-4.1c0-0.1,0.1-0.3,0.3-0.3h3.7c0.1,0,0.3,0.1,0.3,0.3v4.1H43.3z"/>
				<g id="XMLID_1420_" class="st6">
					<path id="XMLID_1421_" class="st24" d="M50.7,44L49,43.1V36c0-3-2.4-5.4-5.4-5.4h-0.2h-4.6v-4.1c0-0.1-0.1-0.3-0.3-0.3h-3.7
						c-0.1,0-0.3,0.1-0.3,0.3v4.1h-1.9c3,0,5.4,2.4,5.4,5.4v7.1l1.7,0.9l0.1,0.1v6.1c0,0.1-0.1,0.1-0.1,0.1h11
						c0.1,0,0.1-0.1,0.1-0.1L50.7,44C50.7,44.1,50.7,44,50.7,44z"/>
				</g>
				
					<linearGradient id="XMLID_21_" gradientUnits="userSpaceOnUse" x1="10.2" y1="34.05" x2="54.0366" y2="34.05" gradientTransform="matrix(1 0 0 -1 0 66)">
					<stop  offset="0" style="stop-color:#5357FF"/>
					<stop  offset="0.2407" style="stop-color:#6D46FF"/>
					<stop  offset="0.4912" style="stop-color:#813AFF"/>
					<stop  offset="0.7439" style="stop-color:#8D32FF"/>
					<stop  offset="1" style="stop-color:#9130FF"/>
				</linearGradient>
				<path id="XMLID_1419_" class="st25" d="M11.2,21.9v-3.6c0-2.6,2.1-4.7,4.7-4.7h32.5c2.6,0,4.7,2.1,4.7,4.7v3.6 M24.1,21.9h16.2
					 M11,21.9h4.9 M53,21.9h-4.9 M42.1,18.8v8c0,0.1,0.1,0.2,0.2,0.2h10.5c0.1,0,0.2-0.1,0.2-0.2v-8 M11.2,18.8v8
					c0,0.1,0.1,0.2,0.2,0.2h10.5c0.1,0,0.2-0.1,0.2-0.2v-8 M38.5,30.6v-4.1c0-0.1-0.1-0.3-0.3-0.3h-3.7c-0.1,0-0.3,0.1-0.3,0.3v4.1
					h-4.5v-4.1c0-0.1-0.1-0.3-0.3-0.3h-3.8c-0.1,0-0.3,0.1-0.3,0.3v4.1H21l0,0c-3,0-5.4,2.4-5.4,5.4v7.1L13.8,44l-0.1,0.1v6.1
					c0,0.1,0.1,0.1,0.1,0.1h36.6c0.1,0,0.1-0.1,0.1-0.1v-6.1c0-0.1,0-0.1-0.1-0.1l-1.7-0.9V36c0-3-2.4-5.4-5.4-5.4h-0.2H38.5z
					 M27.8,43.1H15.5 M22.4,34.4h2 M26.7,34.4h2 M31,34.4h2 M37.3,34.4h-2 M39.7,34.4h2 M24.3,38.7h-2 M28.7,38.7h-2 M33,38.7h-2
					 M37.3,38.7h-2 M41.6,38.7h-2"/>
			</g>
			<g id="XMLID_1414_" class="st0">
				<path id="XMLID_1417_" class="st1" d="M21.3,45.3c1-0.7,2.1-1.1,3.4-1.1H25c0.9-3.2,3.8-5.5,7.2-5.4l0,0c0.3,0,0.6,0,0.9,0.1
					c1.3-3.3,4.3-5.6,7.7-6.2c-0.4-7-6.2-12.5-13.3-12.5c-7.4,0-13.4,6-13.4,13.4C14.1,38.6,17,43.1,21.3,45.3z"/>
				<path id="XMLID_1416_" class="st2" d="M40.8,32.6c-0.1-2-0.7-3.9-1.7-5.6c0.3,1.1,0.5,2.2,0.6,3.3c-3.8,0.7-7,3.2-8.4,6.8
					C31,37,30.6,37,30.3,37l0,0c-3.7-0.1-6.9,2.4-7.9,5.9h-0.3c-1.1,0-2.2,0.3-3.1,0.9c0.7,0.6,1.5,1.1,2.3,1.5
					c1-0.7,2.1-1.1,3.4-1.1h0.2c0.1-0.2,0.1-0.3,0.2-0.5c1-2.9,3.8-5,7-4.9l0,0c0.3,0,0.6,0,0.9,0.1C34.4,35.6,37.3,33.2,40.8,32.6z
					"/>
				
					<linearGradient id="XMLID_22_" gradientUnits="userSpaceOnUse" x1="8.2" y1="33.5" x2="55.7081" y2="33.5" gradientTransform="matrix(1 0 0 -1 0 66)">
					<stop  offset="0" style="stop-color:#5357FF"/>
					<stop  offset="0.2407" style="stop-color:#6D46FF"/>
					<stop  offset="0.4912" style="stop-color:#813AFF"/>
					<stop  offset="0.7439" style="stop-color:#8D32FF"/>
					<stop  offset="1" style="stop-color:#9130FF"/>
				</linearGradient>
				<path id="XMLID_1415_" class="st26" d="M38.2,38c1.2-0.7,2.5-1.1,4-1.1c2.7,0,5.1,1.4,6.5,3.5 M35.5,42.9c0-1.8-1.5-3.3-3.3-3.3
					 M55.8,41.2h-4c-0.7-4.5-4.5-7.9-9.2-7.9c-4.2,0-7.7,2.8-8.9,6.5c-0.5-0.1-1.1-0.2-1.7-0.2c-3.2,0-5.8,2.3-6.3,5.4h-1
					c-2.6,0-4.8,2.1-4.8,4.8h-5.4 M40.4,30.3c-1.4-5.9-6.6-10.2-12.9-10.2c-7.3,0-13.3,5.9-13.3,13.3c0,4.5,2.2,8.4,5.6,10.8
					 M27.4,18v-3.8 M35.1,20.1l1.9-3.3 M40.8,25.7l3.3-1.9 M10.8,43l3.3-1.9 M8.2,33.4H12 M14.1,25.7l-3.3-1.9 M19.7,20.1l-1.9-3.3"
					/>
			</g>
			<g id="XMLID_1410_" class="st0">
				<path id="XMLID_1413_" class="st1" d="M52.1,34.4v-5.1l-4.3-1.2c-0.4-1.7-1.1-3.3-2-4.8l2.5-4.2l-3.6-3.6L40.5,18
					c-1.5-0.9-3.1-1.6-4.8-2l-1.2-4.6h-5.1L28.2,16c-1.7,0.4-3.3,1.1-4.8,2l-4.1-2.4l-3.6,3.6l2.4,4.1c-0.9,1.5-1.6,3.1-2,4.8
					L12,29.5v5.1l4.3,1c0.4,1.7,1.1,3.3,2,4.8l-2.6,3.9l3.6,3.6l4.2-2.3c1.5,0.9,3.1,1.6,4.8,2l1.2,4.9h5.1l1.2-4.9
					c1.7-0.4,3.3-1.1,4.8-2l4.2,2.5l3.6-3.6l-2.6-4.1c0.9-1.5,1.6-3.1,2-4.8L52.1,34.4z"/>
				<circle id="XMLID_1412_" class="st4" cx="31.5" cy="31.8" r="7.2"/>
				
					<linearGradient id="XMLID_23_" gradientUnits="userSpaceOnUse" x1="10.8737" y1="34.1" x2="52.9655" y2="34.1" gradientTransform="matrix(1 0 0 -1 0 66)">
					<stop  offset="0" style="stop-color:#5357FF"/>
					<stop  offset="0.2407" style="stop-color:#6D46FF"/>
					<stop  offset="0.4912" style="stop-color:#813AFF"/>
					<stop  offset="0.7439" style="stop-color:#8D32FF"/>
					<stop  offset="1" style="stop-color:#9130FF"/>
				</linearGradient>
				<path id="XMLID_1411_" class="st27" d="M41.5,24.2l-9.7,9.7L26.9,29 M35,25.5c-1-0.6-2.2-0.9-3.5-0.9c-4,0-7.2,3.2-7.2,7.2
					s3.2,7.2,7.2,7.2s7.2-3.2,7.2-7.2 M52,34.4v-5.1l-4.3-1.2c-0.4-1.7-1.1-3.3-2-4.8l2.5-4.2l-3.6-3.6L40.4,18
					c-1.5-0.9-3.1-1.6-4.8-2l-1.2-4.6h-5.1L28.1,16c-1.7,0.4-3.3,1.1-4.8,2l-4.1-2.4l-3.6,3.6l2.4,4.1c-0.9,1.5-1.6,3.1-2,4.8
					l-4.3,1.3v5.1l4.3,1c0.4,1.7,1.1,3.3,2,4.8l-2.6,3.9l3.6,3.6l4.2-2.3c1.5,0.9,3.1,1.6,4.8,2l1.2,4.9h5.1l1.2-4.9
					c1.7-0.4,3.3-1.1,4.8-2l4.2,2.5l3.6-3.6l-2.6-4.1c0.9-1.5,1.6-3.1,2-4.8L52,34.4z M32.9,17.2h-2.2 M41.5,20.8l1.5,1.5
					 M46.6,33.1v-2.2 M41.5,43.2l1.5-1.5 M30.7,46.7h2.2 M22.2,43.2l-1.5-1.5 M17.1,33v-2.2 M22.2,20.8l-1.5,1.5"/>
			</g>
			<g id="XMLID_1406_" class="st0">
				<rect id="XMLID_1409_" x="11.4" y="17" class="st1" width="41.5" height="27.3"/>
				<path id="XMLID_1408_" class="st11" d="M54.2,47H9.8c-0.1,0-0.2-0.1-0.2-0.2l-1-5c0-0.1,0.1-0.3,0.2-0.3h20.1l1,1H34l1-1h20.1
					c0.1,0,0.3,0.1,0.2,0.3l-1,5C54.4,46.9,54.3,47,54.2,47z"/>
				
					<linearGradient id="XMLID_24_" gradientUnits="userSpaceOnUse" x1="7.5727" y1="33.85" x2="56.4" y2="33.85" gradientTransform="matrix(1 0 0 -1 0 66)">
					<stop  offset="0" style="stop-color:#5357FF"/>
					<stop  offset="0.2407" style="stop-color:#6D46FF"/>
					<stop  offset="0.4912" style="stop-color:#813AFF"/>
					<stop  offset="0.7439" style="stop-color:#8D32FF"/>
					<stop  offset="1" style="stop-color:#9130FF"/>
				</linearGradient>
				<path id="XMLID_1407_" class="st28" d="M54.4,46.9l1-5c0-0.1-0.1-0.3-0.2-0.3H35.1l-1,1H30l-1-1H8.8c-0.1,0-0.3,0.1-0.2,0.3l1,5
					c0,0.1,0.1,0.2,0.2,0.2h44.5C54.3,47,54.4,46.9,54.4,46.9z M52.9,39.2V17.5c0-0.2-0.1-0.3-0.3-0.3H11.4c-0.2,0-0.3,0.1-0.3,0.3
					v21.7 M47.3,37.6H15.4V19.9 M24.9,28.8h-1.8 M28.9,28.8h-1.8 M32.9,28.8h-1.8 M36.9,28.8h-1.8 M40.9,28.8h-1.8"/>
			</g>
			<g id="XMLID_1402_" class="st0">
				<path id="XMLID_1405_" class="st1" d="M45.7,53H18.5c-0.1,0-0.2-0.1-0.2-0.2V27.3c0-0.1,0.1-0.2,0.2-0.2h27.3
					c0.1,0,0.2,0.1,0.2,0.2v25.5C45.9,52.9,45.8,53,45.7,53z"/>
				<path id="XMLID_1404_" class="st2" d="M45.7,27.1h-4.8v20.7c0,0.1-0.1,0.2-0.2,0.2H18.3v4.8c0,0.1,0.1,0.2,0.2,0.2h27.3
					c0.1,0,0.2-0.1,0.2-0.2V27.3C45.9,27.2,45.8,27.1,45.7,27.1z"/>
				
					<linearGradient id="XMLID_26_" gradientUnits="userSpaceOnUse" x1="17.0676" y1="34" x2="46.7337" y2="34" gradientTransform="matrix(1 0 0 -1 0 66)">
					<stop  offset="0" style="stop-color:#5357FF"/>
					<stop  offset="0.2407" style="stop-color:#6D46FF"/>
					<stop  offset="0.4912" style="stop-color:#813AFF"/>
					<stop  offset="0.7439" style="stop-color:#8D32FF"/>
					<stop  offset="1" style="stop-color:#9130FF"/>
				</linearGradient>
				<path id="XMLID_1403_" class="st29" d="M45.5,53H18.3c-0.1,0-0.2-0.1-0.2-0.2V27.3c0-0.1,0.1-0.2,0.2-0.2h27.3
					c0.1,0,0.2,0.1,0.2,0.2v25.5C45.7,52.9,45.6,53,45.5,53z M41.5,27.1v-6.5c0-5.3-4.3-9.6-9.6-9.6l0,0c-5.3,0-9.6,4.3-9.6,9.6v6.5
					 M37.9,24.8v-4.1c0-3.3-2.7-6-6-6l0,0c-3.3,0-6,2.7-6,6v4.1 M27.7,40h-2.4 M33.1,40h-2.4 M38.5,40h-2.4"/>
			</g>
			<g id="XMLID_1389_" class="st0">
				<g id="XMLID_1399_" class="st6">
					<path id="XMLID_1401_" class="st24" d="M23.1,33.1c0-2.1-1.7-3.8-3.8-3.8s-3.8,1.7-3.8,3.8l0.4,4.6c0,0.6,0.4,1.2,1,1.5
						l1.8,1.2h1.2l1.9-1.2c0.5-0.3,0.9-0.8,1-1.5L23.1,33.1z"/>
					<path id="XMLID_1400_" class="st24" d="M26.5,44l-5-1.7v-2.8H17v2.8L12,44c-0.4,0.1-0.6,0.5-0.6,0.9V49h15.8v-4.1
						C27.1,44.5,26.9,44.2,26.5,44z"/>
				</g>
				<g id="XMLID_1396_" class="st6">
					<path id="XMLID_1398_" class="st24" d="M48.6,33.1c0-2.1-1.7-3.8-3.8-3.8S41,31,41,33.1l0.4,4.6c0,0.6,0.4,1.2,1,1.5l1.8,1.2
						h1.2l1.9-1.2c0.5-0.3,0.9-0.8,1-1.5L48.6,33.1z"/>
					<path id="XMLID_1397_" class="st24" d="M52,44l-5-1.7v-2.8h-4.5v2.8l-5,1.7c-0.4,0.1-0.6,0.5-0.6,0.9V49h15.8v-4.1
						C52.6,44.5,52.4,44.2,52,44z"/>
				</g>
				<g id="XMLID_1393_" class="st6">
					<path id="XMLID_1395_" class="st15" d="M36.5,36.3c0-2.2-1.8-4-4-4s-4,1.8-4,4l0.4,4.8c0,0.7,0.4,1.2,1,1.5l1.9,1.3H33l2-1.3
						c0.6-0.3,1-0.9,1-1.5L36.5,36.3z"/>
					<path id="XMLID_1394_" class="st15" d="M40.1,47.9l-5.3-1.8v-3h-4.7v3l-5.3,1.8c-0.4,0.1-0.6,0.5-0.6,0.9v4.3h16.6v-4.3
						C40.7,48.4,40.5,48,40.1,47.9z"/>
				</g>
				<path id="XMLID_1392_" class="st1" d="M52,10.5H12.7c-0.1,0-0.2,0.1-0.2,0.2v11.9c0,0.1,0.1,0.2,0.2,0.2H17l2.2,2.2
					c0,0,0.1,0,0.2,0l2.2-2.2h8.5l2.2,2.2c0,0,0.1,0,0.2,0l2.2-2.2h7.5l2.2,2.2c0,0,0.1,0,0.2,0l2.2-2.2H52c0.1,0,0.2-0.1,0.2-0.2
					V10.7C52.2,10.6,52.1,10.5,52,10.5z"/>
				<path id="XMLID_1391_" class="st2" d="M52,10.5H12.7c-0.1,0-0.2,0.1-0.2,0.2v2.8H49c0.1,0,0.2,0.1,0.2,0.2v9.1H52
					c0.1,0,0.2-0.1,0.2-0.2V10.7C52.2,10.6,52.1,10.5,52,10.5z"/>
				
					<linearGradient id="XMLID_27_" gradientUnits="userSpaceOnUse" x1="10.6371" y1="33.85" x2="53.4371" y2="33.85" gradientTransform="matrix(1 0 0 -1 0 66)">
					<stop  offset="0" style="stop-color:#5357FF"/>
					<stop  offset="0.2407" style="stop-color:#6D46FF"/>
					<stop  offset="0.4912" style="stop-color:#813AFF"/>
					<stop  offset="0.7439" style="stop-color:#8D32FF"/>
					<stop  offset="1" style="stop-color:#9130FF"/>
				</linearGradient>
				<path id="XMLID_1390_" class="st30" d="M24,53.5v-4.3c0-0.4,0.3-0.8,0.6-0.9l5.3-1.8v-3 M40.7,53.5v-4.3c0-0.4-0.3-0.8-0.6-0.9
					l-5.3-1.8v-3 M36.4,36.7c0-2.2-1.8-4-4-4s-4,1.8-4,4l0.4,4.8c0,0.7,0.4,1.2,1,1.5l1.9,1.3H33l2-1.3c0.6-0.3,1-0.9,1-1.5
					L36.4,36.7z M30,46.4l1.5,1.7h1.8l1.5-1.7 M37.6,43.6l4.9-1.7v-2.8 M52.5,48.5v-4c0-0.4-0.2-0.7-0.6-0.8L47,42v-2.8 M48.5,32.9
					c0-2.1-1.7-3.7-3.7-3.7c-2.1,0-3.7,1.7-3.7,3.7l0.4,4.5c0,0.6,0.4,1.1,0.9,1.4l1.8,1.2h1.2l1.9-1.2c0.5-0.3,0.9-0.8,0.9-1.4
					L48.5,32.9z M42.6,41.9l1.4,1.6h1.6l1.4-1.6 M21.5,39.1v2.8l4.9,1.7 M17.2,39.1v2.8l-4.9,1.7c-0.4,0.1-0.6,0.5-0.6,0.8v4
					 M16,37.3c0,0.6,0.4,1.1,0.9,1.4l1.9,1.2H20l1.8-1.2c0.5-0.3,0.9-0.8,0.9-1.4l0.4-4.5c0-2.1-1.7-3.7-3.7-3.7
					c-2.1,0-3.7,1.7-3.7,3.7L16,37.3z M17.1,41.9l1.4,1.6h1.6l1.4-1.6 M20.8,53.5h23.4 M52,10.8H12.7c-0.1,0-0.2,0.1-0.2,0.2v11.9
					c0,0.1,0.1,0.2,0.2,0.2H17l2.2,2.2c0,0,0.1,0,0.2,0l2.2-2.2h8.5l2.2,2.2c0,0,0.1,0,0.2,0l2.2-2.2h7.5l2.2,2.2c0,0,0.1,0,0.2,0
					l2.2-2.2H52c0.1,0,0.2-0.1,0.2-0.2v-12C52.2,10.8,52.1,10.8,52,10.8z M21.3,16.7h2.4 M26.3,16.7h2.4 M31.3,16.7h2.4 M36.3,16.7
					h2.4 M41.3,16.7h2.4"/>
			</g>
			<g id="XMLID_1378_" class="st0">
				<g id="XMLID_1386_" class="st6">
					<path id="XMLID_1388_" class="st15" d="M44.4,16.8c0-1.7-1.4-3.1-3.1-3.1c-1.7,0-3.1,1.4-3.1,3.1l0.3,3.7
						c0,0.5,0.3,0.9,0.8,1.2l1.5,1h1l1.5-1c0.4-0.2,0.7-0.7,0.8-1.2L44.4,16.8z"/>
					<path id="XMLID_1387_" class="st15" d="M47.2,25.6l-4.1-1.4V22h-3.6v2.3l-4.1,1.4c-0.3,0.1-0.5,0.4-0.5,0.7v3.3h12.7v-3.3
						C47.7,26,47.5,25.7,47.2,25.6z"/>
				</g>
				<path id="XMLID_1385_" class="st1" d="M28.2,35.7l1.3-7c-0.7-1.7-1.2-3.5-1.2-5.4C28.3,16,34.2,10,41.6,10s13.2,6,13.2,13.3
					s-5.9,13.3-13.3,13.3c-2.6,0-5-0.8-7-2L28.2,35.7z"/>
				<path id="XMLID_1384_" class="st2" d="M41.6,10c-4.4,0-8.3,2.2-10.7,5.5C33,14,35.7,13,38.6,13c7.3,0,13.3,5.9,13.3,13.3
					c0,2.9-0.9,5.6-2.5,7.7c3.3-2.4,5.5-6.3,5.5-10.7C54.8,16,48.9,10,41.6,10z"/>
				<path id="XMLID_1383_" class="st1" d="M40.5,47.5l-6.3-6.3c-0.1-0.1-0.2-0.1-0.3,0L31,44.1L19.2,32.3l2.9-2.9
					c0.1-0.1,0.1-0.2,0-0.2l-6.3-6.3c-0.1-0.1-0.2-0.1-0.2,0l-4.8,4.8l-0.2,0.2c-1.5,1.5-1.5,4,0,5.6L30,52.9c1.5,1.5,4,1.5,5.6,0
					l0.2-0.2l0,0l4.8-4.8C40.6,47.7,40.6,47.6,40.5,47.5z"/>
				<g id="XMLID_1380_" class="st6">
					<path id="XMLID_1382_" class="st24" d="M21.2,30.3l0.9-0.9c0.1-0.1,0.1-0.2,0-0.2l-1.9-1.9l-1,1L21.2,30.3z"/>
					<path id="XMLID_1381_" class="st24" d="M38.7,45.7l-2.9,2.9l-0.2,0.2c-1.5,1.5-4,1.5-5.6,0L10.6,29.4c-0.2-0.2-0.4-0.5-0.6-0.8
						c-0.9,1.5-0.7,3.5,0.6,4.8L30,52.8c1.5,1.5,4,1.5,5.6,0l0.2-0.2l4.8-4.8c0.1-0.1,0.1-0.2,0-0.3L38.7,45.7z"/>
				</g>
				
					<linearGradient id="XMLID_28_" gradientUnits="userSpaceOnUse" x1="8.1779" y1="34.1875" x2="55.7349" y2="34.1875" gradientTransform="matrix(1 0 0 -1 0 66)">
					<stop  offset="0" style="stop-color:#5357FF"/>
					<stop  offset="0.2407" style="stop-color:#6D46FF"/>
					<stop  offset="0.4912" style="stop-color:#813AFF"/>
					<stop  offset="0.7439" style="stop-color:#8D32FF"/>
					<stop  offset="1" style="stop-color:#9130FF"/>
				</linearGradient>
				<path id="XMLID_1379_" class="st31" d="M28.1,35.7l1.3-7c-0.7-1.7-1.2-3.5-1.2-5.4c0-7.3,6-13.3,13.3-13.3s13.2,6,13.2,13.3
					s-5.9,13.3-13.3,13.3c-2.6,0-5-0.8-7-2L28.1,35.7z M12.5,25.4l-2.1,2.1c-1.5,1.5-1.5,4,0,5.6l19.4,19.4c1.5,1.5,4,1.5,5.6,0
					l2.1-2.1 M20.2,33.1l9.6,9.6 M12.3,25.2l2.9,2.9 M34.5,47.4l2.9,2.9 M35.5,52.2l4.8-4.8c0.1-0.1,0.1-0.2,0-0.3L34,40.9
					c-0.1-0.1-0.2-0.1-0.3,0L29,45.7 M17.1,33.8l4.8-4.8c0.1-0.1,0.1-0.2,0-0.2l-6.3-6.3c-0.1-0.1-0.2-0.1-0.2,0l-4.8,4.8
					 M39.5,21.7V24l-4,1.4c-0.3,0.1-0.5,0.4-0.5,0.7v3.3 M47.6,29.3V26c0-0.3-0.2-0.6-0.5-0.7l-4-1.4v-2.3 M44.3,16.5
					c0-1.7-1.4-3.1-3.1-3.1c-1.7,0-3.1,1.4-3.1,3.1l0.3,3.7c0,0.5,0.3,0.9,0.8,1.2l1.5,1h1l1.5-1c0.4-0.2,0.7-0.7,0.8-1.2L44.3,16.5
					z M39.5,24l1.1,1.3H42l1.1-1.3 M50.3,29.3H32.5"/>
			</g>
			<g id="XMLID_1370_" class="st0">
				<path id="XMLID_1377_" class="st1" d="M32.1,13.4c-8.3,0-15,6.7-15,15V37H47v-8.7C47,20.1,40.3,13.4,32.1,13.4z"/>
				<path id="XMLID_1376_" class="st2" d="M33.7,13.5c4.4,2.6,7.4,7.4,7.4,12.9V35h-24v2H47v-8.7C47,20.6,41.2,14.3,33.7,13.5z"/>
				<path id="XMLID_1375_" class="st2" d="M30.5,13.5c-4.4,2.6-7.4,7.4-7.4,12.9V35H47v2H17.1v-8.7C17.1,20.6,23,14.3,30.5,13.5z"/>
				<rect id="XMLID_1374_" x="16.1" y="39.9" class="st1" width="31.8" height="13.9"/>
				<rect id="XMLID_1373_" x="16.1" y="39.9" class="st11" width="31.8" height="6.9"/>
				<path id="XMLID_1372_" class="st1" d="M50.9,42.9H13.2c-0.2,0-0.3-0.1-0.3-0.3v-7.7c0-0.2,0.1-0.3,0.3-0.3h37.7
					c0.2,0,0.3,0.1,0.3,0.3v7.7C51.2,42.8,51,42.9,50.9,42.9z"/>
				
					<linearGradient id="XMLID_29_" gradientUnits="userSpaceOnUse" x1="11.8" y1="33.5772" x2="52.0206" y2="33.5772" gradientTransform="matrix(1 0 0 -1 0 66)">
					<stop  offset="0" style="stop-color:#5357FF"/>
					<stop  offset="0.2407" style="stop-color:#6D46FF"/>
					<stop  offset="0.4912" style="stop-color:#813AFF"/>
					<stop  offset="0.7439" style="stop-color:#8D32FF"/>
					<stop  offset="1" style="stop-color:#9130FF"/>
				</linearGradient>
				<path id="XMLID_1371_" class="st32" d="M50.8,42.9H13.1c-0.2,0-0.3-0.1-0.3-0.3v-7.7c0-0.2,0.1-0.3,0.3-0.3h37.7
					c0.2,0,0.3,0.1,0.3,0.3v7.7C51,42.8,50.9,42.9,50.8,42.9z M16.1,45.2v8.6c0,0.1,0.1,0.2,0.2,0.2h31.3c0.1,0,0.2-0.1,0.2-0.2
					v-8.6 M46.8,32.8v-4.7c0-8.3-6.7-15-15-15s-15,6.7-15,15v4.7 M40.9,32.8v-5c0-6.4-3.7-11.9-9-14.5 M31.4,13.2
					c-5.3,2.7-9,8.2-9,14.5v5 M31.7,13.2v19.5 M16.4,31h-3.2 M13.9,24.1l3,1.1 M19.1,19.6l-2.5-2.1 M22.4,12.6l1.6,2.8 M29.9,13.2
					L29.4,10 M50.7,31h-3.2 M47,25.2l3-1.1 M44.8,19.6l2.5-2.1 M39.9,15.5l1.6-2.8 M33.9,13.2l0.5-3.2"/>
			</g>
			<g id="XMLID_1365_" class="st0">
				<circle id="XMLID_1369_" class="st1" cx="32" cy="32" r="21.3"/>
				<circle id="XMLID_1368_" class="st1" cx="32" cy="32" r="16.8"/>
				<path id="XMLID_1367_" class="st2" d="M32,15.2c-5.4,0-10.2,2.6-13.3,6.5c2.8-2.2,6.4-3.5,10.3-3.5c9.3,0,16.8,7.5,16.8,16.8
					c0,3.9-1.3,7.4-3.5,10.3c4-3.1,6.5-7.9,6.5-13.3C48.8,22.7,41.3,15.2,32,15.2z"/>
				
					<linearGradient id="XMLID_30_" gradientUnits="userSpaceOnUse" x1="9.7762" y1="34" x2="54.2808" y2="34" gradientTransform="matrix(1 0 0 -1 0 66)">
					<stop  offset="0" style="stop-color:#5357FF"/>
					<stop  offset="0.2407" style="stop-color:#6D46FF"/>
					<stop  offset="0.4912" style="stop-color:#813AFF"/>
					<stop  offset="0.7439" style="stop-color:#8D32FF"/>
					<stop  offset="1" style="stop-color:#9130FF"/>
				</linearGradient>
				<path id="XMLID_1366_" class="st33" d="M53.3,32c0,11.7-9.5,21.3-21.3,21.3c-11.7,0-21.3-9.5-21.3-21.3
					c0-11.7,9.5-21.3,21.3-21.3C43.8,10.7,53.3,20.2,53.3,32z M32,15.2c-9.3,0-16.8,7.5-16.8,16.8S22.7,48.8,32,48.8
					S48.8,41.3,48.8,32 M48.6,29.2c-1.2-7.3-7.1-13-14.4-13.9 M32,29.8c-1.2,0-2.2,1-2.2,2.2s1,2.2,2.2,2.2s2.2-1,2.2-2.2
					S33.2,29.8,32,29.8z M32,18.5v1.7 M41.6,22.4l-1.2,1.2 M45.5,32h-1.7 M41.5,41.6l-1.2-1.2 M32,45.5v-1.7 M23.6,40.3l-1.2,1.2
					 M18.5,31.9h1.7 M22.6,22.4l1.2,1.2 M32,29.8v-8.3 M39.1,31.9h-4.9"/>
			</g>
			<g id="XMLID_1358_">
				<polygon id="XMLID_1364_" class="st24" points="40.2,49.1 23.6,49.1 22.5,46.7 22.5,39.6 41.3,39.6 41.3,46.6 				"/>
				<rect id="XMLID_1363_" x="29.3" y="49.1" class="st24" width="5.3" height="3"/>
				<path id="XMLID_1362_" class="st15" d="M45.4,25.2c0-7.3-5.9-13.3-13.3-13.3s-13.3,5.9-13.3,13.3c0,4.7,2.4,8.8,6.1,11.1v3.3
					h14.4v-3.3C42.9,34,45.4,29.9,45.4,25.2z"/>
				<g id="XMLID_1360_">
					<path id="XMLID_1361_" class="st16" d="M32.1,11.9c-5.2,0-9.8,3-11.9,7.5c2.4-2.1,5.5-3.5,8.9-3.5c7.3,0,13.3,5.9,13.3,13.3
						c0,2.1-0.5,4-1.3,5.8c2.7-2.4,4.3-5.9,4.3-9.8C45.4,17.9,39.4,11.9,32.1,11.9z"/>
				</g>
				
					<linearGradient id="XMLID_31_" gradientUnits="userSpaceOnUse" x1="17.6339" y1="34" x2="46.1619" y2="34" gradientTransform="matrix(1 0 0 -1 0 66)">
					<stop  offset="0" style="stop-color:#5357FF"/>
					<stop  offset="0.2407" style="stop-color:#6D46FF"/>
					<stop  offset="0.4912" style="stop-color:#813AFF"/>
					<stop  offset="0.7439" style="stop-color:#8D32FF"/>
					<stop  offset="1" style="stop-color:#9130FF"/>
				</linearGradient>
				<path id="XMLID_1359_" class="st34" d="M40.1,49.1H23.5l-1.1-2.4v-7.1h18.8v7L40.1,49.1z M34.5,49.1h-5.3v3h5.3V49.1z
					 M45.2,25.2c0-7.3-5.9-13.3-13.3-13.3s-13.3,5.9-13.3,13.3c0,4.7,2.4,8.8,6.1,11.1v3.3h14.4v-3.3C42.7,34,45.2,29.9,45.2,25.2z
					 M30.6,44.4h-8.1"/>
			</g>
		</g>
	</g>
</g>
</svg>
