<?xml version="1.0" encoding="utf-8"?>
<!-- Generator: Adobe Illustrator 19.0.0, SVG Export Plug-In . SVG Version: 6.00 Build 0)  -->
<svg version="1.1" xmlns="http://www.w3.org/2000/svg" xmlns:xlink="http://www.w3.org/1999/xlink" x="0px" y="0px"
	 viewBox="0 0 64 64" style="enable-background:new 0 0 64 64;" xml:space="preserve">
<style type="text/css">
	.st0{display:none;}
	.st1{display:inline;fill:#FFFFFF;}
	.st2{display:inline;fill:#E8DDFF;}
	.st3{display:inline;fill:#DDE7FF;}
	.st4{display:inline;fill:none;stroke:url(#XMLID_422_);stroke-width:2;stroke-miterlimit:10;}
	.st5{display:inline;fill:none;stroke:url(#XMLID_425_);stroke-width:2;stroke-miterlimit:10;}
	.st6{display:inline;fill:none;stroke:url(#XMLID_426_);stroke-width:2;stroke-miterlimit:10;}
	.st7{display:inline;fill:#C6ABFF;}
	.st8{display:inline;fill:none;stroke:url(#XMLID_427_);stroke-width:2;stroke-miterlimit:10;}
	.st9{display:inline;}
	.st10{fill:#DDE7FF;}
	.st11{display:inline;fill:none;stroke:url(#XMLID_429_);stroke-width:2;stroke-miterlimit:10;}
	.st12{display:inline;fill:#DDCDFF;}
	.st13{fill:#F1EBFF;}
	.st14{display:inline;fill:none;stroke:url(#XMLID_432_);stroke-width:2;stroke-miterlimit:10;}
	.st15{display:inline;fill:none;stroke:url(#XMLID_433_);stroke-width:2;stroke-miterlimit:10;}
	.st16{display:inline;fill:none;stroke:url(#XMLID_434_);stroke-width:2;stroke-miterlimit:10;}
	.st17{display:inline;fill:none;stroke:url(#XMLID_435_);stroke-width:2;stroke-miterlimit:10;}
	.st18{display:inline;fill:none;stroke:url(#XMLID_437_);stroke-width:2;stroke-miterlimit:10;}
	.st19{display:inline;fill:#EEF3FF;}
	.st20{display:inline;fill:none;stroke:url(#XMLID_606_);stroke-width:2;stroke-miterlimit:10;}
	.st21{fill:#E8DDFF;}
	.st22{display:inline;fill:none;stroke:url(#XMLID_607_);stroke-width:2;stroke-miterlimit:10;}
	.st23{display:inline;fill:none;stroke:url(#XMLID_704_);stroke-width:2;stroke-miterlimit:10;}
	.st24{display:inline;fill:none;stroke:url(#XMLID_706_);stroke-width:2;stroke-miterlimit:10;}
	.st25{display:inline;fill:none;stroke:url(#XMLID_707_);stroke-width:2;stroke-miterlimit:10;}
	.st26{display:inline;fill:none;stroke:url(#XMLID_708_);stroke-width:2;stroke-miterlimit:10;}
	.st27{display:inline;fill:none;stroke:url(#XMLID_709_);stroke-width:2;stroke-miterlimit:10;}
	.st28{display:inline;fill:none;stroke:url(#XMLID_710_);stroke-width:2;stroke-miterlimit:10;}
	.st29{fill:#FFFFFF;}
	.st30{fill:none;stroke:url(#XMLID_711_);stroke-width:2;stroke-miterlimit:10;}
	.st31{display:inline;fill:none;stroke:url(#XMLID_712_);stroke-width:2;stroke-miterlimit:10;}
	.st32{display:inline;fill:none;stroke:url(#XMLID_713_);stroke-width:2;stroke-miterlimit:10;}
	.st33{display:inline;fill:none;stroke:url(#XMLID_714_);stroke-width:2;stroke-miterlimit:10;}
	.st34{display:inline;fill:none;stroke:url(#XMLID_715_);stroke-width:2;stroke-miterlimit:10;}
	.st35{display:inline;fill:none;stroke:url(#XMLID_716_);stroke-width:2;stroke-miterlimit:10;}
	.st36{display:inline;fill:none;stroke:url(#XMLID_717_);stroke-width:2;stroke-miterlimit:10;}
	.st37{fill:#5357FF;}
	.st38{font-family:'Montserrat-Bold';}
	.st39{font-size:7px;}
</style>
<g id="bg" class="st0">
	<rect id="XMLID_119_" x="-218" y="-268.2" class="st1" width="500" height="600.3"/>
</g>
<g id="guideline" class="st0">
</g>
<g id="icons">
	<g id="XMLID_1_" class="st0">
		<path id="XMLID_449_" class="st2" d="M30.5,14.9c-8.6,0-15.6,7-15.6,15.6s7,15.6,15.6,15.6s15.6-7,15.6-15.6S39.1,14.9,30.5,14.9z
			 M30.5,42.2c-6.5,0-11.8-5.3-11.8-11.8c0-6.5,5.3-11.8,11.8-11.8c6.5,0,11.8,5.3,11.8,11.8C42.2,37,37,42.2,30.5,42.2z"/>
		
			<rect id="XMLID_60_" x="46.1" y="42.5" transform="matrix(0.7071 -0.7071 0.7071 0.7071 -19.9014 48.0462)" class="st3" width="3.9" height="11"/>
		<linearGradient id="XMLID_422_" gradientUnits="userSpaceOnUse" x1="9.683" y1="32.2071" x2="54.7313" y2="32.2071">
			<stop  offset="0" style="stop-color:#5357FF"/>
			<stop  offset="0.2407" style="stop-color:#6D46FF"/>
			<stop  offset="0.4912" style="stop-color:#813AFF"/>
			<stop  offset="0.7439" style="stop-color:#8D32FF"/>
			<stop  offset="1" style="stop-color:#9130FF"/>
		</linearGradient>
		<path id="XMLID_64_" class="st4" d="M53.3,50.6l-2.7,2.7l-7.8-7.8l2.7-2.7L53.3,50.6z M41.5,41.5l2.2,2.2 M43.7,22.2
			c-0.6-1-1.3-1.9-2.2-2.7c-6.1-6.1-16-6.1-22.1,0c-6.1,6.1-6.1,16,0,22.1c6.1,6.1,16,6.1,22.1,0c4.1-4.1,5.5-10,4-15.3 M16.8,38.9
			l11.8-11.9l6.6,6.6L51,18 M51.8,20.5v-3.2h-3.2 M44.4,16.4c-3.6-3.5-8.5-5.7-13.9-5.7c-10.9,0-19.8,8.9-19.8,19.8
			s8.9,19.8,19.8,19.8c3.3,0,6.4-0.8,9.1-2.2"/>
	</g>
	<g id="XMLID_475_" class="st0">
		<path id="XMLID_476_" class="st1" d="M36.7,9.8H14.8c-1.2,0-2.2,1-2.2,2.2V52c0,1.2,1,2.2,2.2,2.2h21.9c1.2,0,2.2-1,2.2-2.2V40.8
			V20.4V12C38.9,10.8,37.9,9.8,36.7,9.8z"/>
		<polygon id="XMLID_16_" class="st2" points="38.9,16.5 12.5,16.5 12.5,16.5 12.5,47.5 12.5,47.5 38.9,47.5 38.9,38.2 38.9,23.9 
			38.9,16.5 		"/>
		<path id="XMLID_61_" class="st1" d="M49.4,39h-18l-4.9,4.2c0,0-0.1,0-0.1,0v-19c0-1.2,1-2.1,2.1-2.1h20.9c1.2,0,2.1,1,2.1,2.1
			v12.7C51.5,38,50.5,39,49.4,39z"/>
		<path id="XMLID_479_" class="st3" d="M49.4,22.1H28.5c-1.2,0-2.1,1-2.1,2.1v0.9h20c1.2,0,2.1,1,2.1,2.1V39h0.9
			c1.2,0,2.1-1,2.1-2.1V24.2C51.5,23,50.5,22.1,49.4,22.1z"/>
		<linearGradient id="XMLID_425_" gradientUnits="userSpaceOnUse" x1="11.526" y1="32" x2="52.474" y2="32">
			<stop  offset="0" style="stop-color:#5357FF"/>
			<stop  offset="0.2407" style="stop-color:#6D46FF"/>
			<stop  offset="0.4912" style="stop-color:#813AFF"/>
			<stop  offset="0.7439" style="stop-color:#8D32FF"/>
			<stop  offset="1" style="stop-color:#9130FF"/>
		</linearGradient>
		<path id="XMLID_99_" class="st5" d="M38.9,40.8V52c0,1.2-1,2.2-2.2,2.2H14.8c-1.2,0-2.2-1-2.2-2.2V12c0-1.2,1-2.2,2.2-2.2h21.9
			c1.2,0,2.2,1,2.2,2.2v8.4 M12.5,16.5h26.4 M21.5,13.3H30 M12.5,47.5h26.4 M51.5,36.9V24.2c0-1.2-1-2.1-2.1-2.1H28.5
			c-1.2,0-2.1,1-2.1,2.1v19c0,0.1,0.1,0.1,0.1,0l4.9-4.2h18C50.5,39,51.5,38,51.5,36.9z M36.4,34.9h4.5c1.2,0,2.1-1,2.1-2.1l0,0
			c0-1.2-1-2.1-2.1-2.1h-2.1c-1.2,0-2.1-1-2.1-2.1v0c0-1.2,1-2.1,2.1-2.1h4.3 M39.9,26.3v-2.2 M39.9,34.9V37"/>
	</g>
	<g id="XMLID_17_" class="st0">
		<path id="XMLID_129_" class="st2" d="M50.6,36.5H13.5c-1.1,0-2-0.9-2-2V16.9c0-1.1,0.9-2,2-2h37.1c1.1,0,2,0.9,2,2v17.7
			C52.6,35.6,51.7,36.5,50.6,36.5z"/>
		<circle id="XMLID_63_" class="st1" cx="32.1" cy="25.7" r="7.5"/>
		<linearGradient id="XMLID_426_" gradientUnits="userSpaceOnUse" x1="10.4205" y1="32.0617" x2="53.4297" y2="32.0617">
			<stop  offset="0" style="stop-color:#5357FF"/>
			<stop  offset="0.2407" style="stop-color:#6D46FF"/>
			<stop  offset="0.4912" style="stop-color:#813AFF"/>
			<stop  offset="0.7439" style="stop-color:#8D32FF"/>
			<stop  offset="1" style="stop-color:#9130FF"/>
		</linearGradient>
		<path id="XMLID_100_" class="st6" d="M34.8,22.3h-3.6c-1,0-1.8,0.8-1.8,1.8l0,0c0,1,0.8,1.8,1.8,1.8h1.7c1,0,1.8,0.8,1.8,1.8l0,0
			c0,1-0.8,1.8-1.8,1.8h-3.8 M32.1,20.4v1.9 M32.1,31.2v-1.7 M52.4,34.7V17c0-1.1-0.9-2-2-2H13.4c-1.1,0-2,0.9-2,2v17.7
			c0,1.1,0.9,2,2,2h37.1C51.5,36.6,52.4,35.8,52.4,34.7z M11.4,21.4c3.5,0,6.4-2.8,6.4-6.4 M46.1,15c0,3.5,2.8,6.4,6.4,6.4
			 M17.8,36.6c0-3.5-2.8-6.4-6.4-6.4 M52.4,30.3c-3.5,0-6.4,2.8-6.4,6.4 M31.9,18.3c-4.1,0-7.5,3.4-7.5,7.5s3.4,7.5,7.5,7.5
			s7.5-3.4,7.5-7.5S36.1,18.3,31.9,18.3z M19.7,25.8h2.4 M41.4,25.8h2.4 M11.4,41.1h41 M11.4,45.1h41 M11.4,49.1h41"/>
	</g>
	<g id="XMLID_58_" class="st0">
		<polygon id="XMLID_490_" class="st3" points="40.2,52.1 23.6,52.1 22.5,49.7 22.5,42.6 41.3,42.6 41.3,49.6 		"/>
		<rect id="XMLID_489_" x="29.2" y="52.1" class="st3" width="5.3" height="3"/>
		<path id="XMLID_488_" class="st1" d="M45.3,28.1c0-7.3-5.9-13.3-13.3-13.3s-13.3,5.9-13.3,13.3c0,4.7,2.4,8.8,6.1,11.1v3.3h14.4
			v-3.3C42.9,36.9,45.3,32.8,45.3,28.1z"/>
		<path id="XMLID_493_" class="st7" d="M41.4,29.2l0-2l-3.2-0.5c-0.2-0.7-0.4-1.3-0.8-1.9l1.9-2.6L38,20.9l-2.6,1.9
			c-0.6-0.4-1.2-0.6-1.9-0.8l-0.5-3.2h-2L30.6,22c-0.7,0.2-1.3,0.4-1.9,0.8l-2.6-1.9l-1.4,1.4l1.9,2.6c-0.4,0.6-0.6,1.2-0.8,1.9
			l-3.2,0.5l0,2l3.2,0.5c0.2,0.7,0.4,1.3,0.8,1.9l-1.9,2.6l1.4,1.4l2.6-1.9c0.6,0.4,1.2,0.6,1.9,0.8l0.5,3.2l2,0l0.5-3.2
			c0.7-0.2,1.3-0.4,1.9-0.8l2.6,1.9l1.4-1.4l-1.9-2.6c0.4-0.6,0.6-1.2,0.8-1.9L41.4,29.2z M32.1,31c-1.6,0-2.8-1.3-2.8-2.8
			s1.3-2.8,2.8-2.8c1.6,0,2.8,1.3,2.8,2.8S33.7,31,32.1,31z"/>
		<linearGradient id="XMLID_427_" gradientUnits="userSpaceOnUse" x1="11.2281" y1="32" x2="52.7719" y2="32">
			<stop  offset="0" style="stop-color:#5357FF"/>
			<stop  offset="0.2407" style="stop-color:#6D46FF"/>
			<stop  offset="0.4912" style="stop-color:#813AFF"/>
			<stop  offset="0.7439" style="stop-color:#8D32FF"/>
			<stop  offset="1" style="stop-color:#9130FF"/>
		</linearGradient>
		<path id="XMLID_105_" class="st8" d="M40.3,52.1H23.7l-1.1-2.4v-7.1h18.8v7L40.3,52.1z M34.7,52.1h-5.3v3h5.3V52.1z M45.3,28.1
			c0-7.3-5.9-13.3-13.3-13.3s-13.3,5.9-13.3,13.3c0,4.7,2.4,8.8,6.1,11.1v3.3h14.4v-3.3C42.9,36.9,45.3,32.8,45.3,28.1z M22.6,47.3
			h8.1 M14.5,38c0.3,0.6,0.6,1.1,1,1.7 M12.6,32.4c0.2,1.3,0.6,2.6,1.1,3.8 M13.1,22.8c-0.6,1.9-0.9,3.8-0.9,5.9 M51.8,28.7
			C51.8,17.8,42.9,9,32,9c-7.8,0-14.5,4.5-17.7,11 M51.3,33.1c0.2-0.8,0.3-1.7,0.4-2.5 M49.7,37.5c0.5-1.1,1-2.2,1.3-3.3 M47.8,40.6
			c0.5-0.6,0.9-1.2,1.2-1.9 M41.3,29.2l0-2l-3.2-0.5c-0.2-0.7-0.4-1.3-0.8-1.9l1.9-2.6l-1.4-1.4l-2.6,1.9c-0.6-0.4-1.2-0.6-1.9-0.8
			L33,18.9h-2L30.6,22c-0.7,0.2-1.3,0.4-1.9,0.8l-2.6-1.9l-1.4,1.4l1.9,2.6c-0.4,0.6-0.6,1.2-0.8,1.9l-3.2,0.5l0,2l3.2,0.5
			c0.2,0.7,0.4,1.3,0.8,1.9l-1.9,2.6l1.4,1.4l2.6-1.9c0.6,0.4,1.2,0.6,1.9,0.8l0.5,3.2l2,0l0.5-3.2c0.7-0.2,1.3-0.4,1.9-0.8l2.6,1.9
			l1.4-1.4l-1.9-2.6c0.4-0.6,0.6-1.2,0.8-1.9L41.3,29.2z M32,25.3c-1.6,0-2.8,1.3-2.8,2.8S30.4,31,32,31c1.6,0,2.8-1.3,2.8-2.8
			S33.6,25.3,32,25.3z"/>
	</g>
	<g id="XMLID_75_" class="st0">
		<path id="XMLID_21_" class="st1" d="M49,52.7H23.3c-1.3,0-2.3-1-2.3-2.3V19.7c0-1.3,1-2.3,2.3-2.3h30.8v30.3
			C54.1,50.5,51.8,52.7,49,52.7z"/>
		<path id="XMLID_149_" class="st2" d="M32.1,35.8l0-2.4l-3.8-0.5c-0.2-0.8-0.5-1.5-0.9-2.2l2.3-3L28,25.9l-3,2.3
			c-0.7-0.4-1.4-0.7-2.2-0.9l-0.5-3.8h-2.4l-0.5,3.8c-0.8,0.2-1.5,0.5-2.2,0.9l-3-2.3l-1.7,1.7l2.3,3c-0.4,0.7-0.7,1.4-0.9,2.2
			l-3.8,0.5l0,2.4l3.8,0.6c0.2,0.8,0.5,1.5,0.9,2.2l-2.3,3l1.7,1.7l3-2.3c0.7,0.4,1.4,0.7,2.2,0.9l0.5,3.8l2.4,0l0.5-3.8
			c0.8-0.2,1.5-0.5,2.2-0.9l3,2.3l1.7-1.7l-2.3-3c0.4-0.7,0.7-1.4,0.9-2.2L32.1,35.8z M21,38c-1.9,0-3.4-1.5-3.4-3.4
			s1.5-3.4,3.4-3.4c1.9,0,3.4,1.5,3.4,3.4S22.9,38,21,38z"/>
		<path id="XMLID_59_" class="st1" d="M54.1,48.9c0-5.2-7.6-3.9-7.6-3.9V11.3h3.8c2.1,0,3.8,1.7,3.8,3.8v27V48.9z"/>
		<g id="XMLID_78_" class="st9">
			<path id="XMLID_79_" class="st10" d="M50.3,11.3h-3c2.1,0,3.8,1.7,3.8,3.8v27v3.1c1.6,0.4,3,1.5,3,3.7v-6.8v-27
				C54.1,13,52.4,11.3,50.3,11.3z"/>
			<path id="XMLID_155_" class="st10" d="M46.5,44.9L46.5,44.9c0,0.1,0.2,0.1,0.4,0C46.7,44.9,46.6,44.9,46.5,44.9z"/>
		</g>
		<linearGradient id="XMLID_429_" gradientUnits="userSpaceOnUse" x1="8.9297" y1="32" x2="55.0685" y2="32">
			<stop  offset="0" style="stop-color:#5357FF"/>
			<stop  offset="0.2407" style="stop-color:#6D46FF"/>
			<stop  offset="0.4912" style="stop-color:#813AFF"/>
			<stop  offset="0.7439" style="stop-color:#8D32FF"/>
			<stop  offset="1" style="stop-color:#9130FF"/>
		</linearGradient>
		<path id="XMLID_150_" class="st11" d="M28.3,36.3c-0.2,0.8-0.5,1.5-0.9,2.2l2.3,3L28,43.3l-3-2.3c-0.7,0.4-1.4,0.7-2.2,0.9
			l-0.5,3.8l-2.4,0l-0.5-3.8c-0.8-0.2-1.5-0.5-2.2-0.9l-3,2.3l-1.7-1.7l2.3-3c-0.4-0.7-0.7-1.4-0.9-2.2l-3.8-0.6l0-2.4l3.8-0.5
			c0.2-0.8,0.5-1.5,0.9-2.2l-2.3-3l1.7-1.7l3,2.3c0.7-0.4,1.4-0.7,2.2-0.9l0.5-3.8h2.4l0.5,3.8c0.8,0.2,1.5,0.5,2.2,0.9l3-2.3
			l1.7,1.7l-2.3,3c0.4,0.7,0.7,1.4,0.9,2.2l3.8,0.5l0,2.4L28.3,36.3z M21,31.2c-1.9,0-3.4,1.5-3.4,3.4S19.1,38,21,38
			c1.9,0,3.4-1.5,3.4-3.4S22.9,31.2,21,31.2z M54.1,15.1c0-2.1-1.7-3.8-3.8-3.8h-3.8V45c0,0,7.6-1.3,7.6,3.9 M44.2,16.9H22.8
			c-1,0-1.8,0.8-1.8,1.8V21 M20.9,48v2.9c0,1,0.8,1.8,1.8,1.8h27c2.4,0,4.3-1.9,4.3-4.3V14.6 M29.4,48.5c5.2-2.3,8.8-7.5,8.8-13.5
			c0-6.5-4.1-11.9-9.9-14"/>
	</g>
	<g id="XMLID_464_" class="st0">
		<path id="XMLID_462_" class="st1" d="M54.1,40.3l-8.5-8.5c0,0-0.1,0-0.1,0c0,0-0.1,0-0.1,0l-8.5,8.5c-0.1,0.1,0,0.2,0.1,0.2h3.8
			v12.7h9.5V40.5H54C54.1,40.5,54.2,40.4,54.1,40.3z"/>
		<path id="XMLID_471_" class="st3" d="M36.9,40.3c-0.1,0.1,0,0.2,0.1,0.2h3.8v12.7h3V33.4L36.9,40.3z"/>
		<path id="XMLID_630_" class="st12" d="M45.1,22.9L33.3,11.1c0,0-0.1-0.1-0.2,0c-0.1,0-0.1,0-0.2,0L21.1,22.9
			c-0.1,0.1,0,0.3,0.1,0.3h5.2v30h13.2v-30h5.2C45.1,23.3,45.2,23.1,45.1,22.9z"/>
		<circle id="XMLID_463_" class="st1" cx="21.3" cy="41.1" r="12"/>
		<g id="XMLID_603_" class="st9">
			<path id="XMLID_604_" class="st13" d="M27.9,31.2L11.4,47.8c0.7,1.1,1.6,2,2.6,2.8l16.7-16.7C29.9,32.8,29,31.9,27.9,31.2z"/>
			<path id="XMLID_605_" class="st13" d="M21.3,29.2c-0.9,0-1.7,0.1-2.5,0.3l-9.2,9.2c-0.2,0.8-0.3,1.6-0.3,2.5
				c0,2.1,0.6,4.1,1.5,5.8l16.3-16.3C25.4,29.7,23.4,29.2,21.3,29.2z"/>
		</g>
		<linearGradient id="XMLID_432_" gradientUnits="userSpaceOnUse" x1="8.3232" y1="31.914" x2="55.6768" y2="31.914">
			<stop  offset="0" style="stop-color:#5357FF"/>
			<stop  offset="0.2407" style="stop-color:#6D46FF"/>
			<stop  offset="0.4912" style="stop-color:#813AFF"/>
			<stop  offset="0.7439" style="stop-color:#8D32FF"/>
			<stop  offset="1" style="stop-color:#9130FF"/>
		</linearGradient>
		<path id="XMLID_112_" class="st14" d="M25.2,36.2h-5c-1.4,0-2.5,1.1-2.5,2.5l0,0c0,1.4,1.1,2.5,2.5,2.5h2.4c1.4,0,2.5,1.1,2.5,2.5
			l0,0c0,1.4-1.1,2.5-2.5,2.5h-5.2 M21.5,33.6v2.6 M21.5,46.2v2.4 M21.3,29.2c-6.6,0-12,5.4-12,12s5.4,12,12,12s12-5.4,12-12
			S27.9,29.2,21.3,29.2z M12.1,41.1H15 M27.6,41.1h2.8 M39.9,30.3v-7h5.4c0.2,0,0.3-0.2,0.1-0.3L33.3,10.8c-0.1-0.1-0.2-0.1-0.3,0
			L20.8,23c-0.1,0.1,0,0.3,0.1,0.3h5.4v4.5 M50.4,53.2V41.5h4.2c0.1,0,0.2-0.2,0.1-0.3l-9.4-9.4c-0.1-0.1-0.2-0.1-0.2,0l-2.4,2.4
			 M39.9,33.6V52"/>
	</g>
	<g id="XMLID_44_" class="st0">
		<path id="XMLID_459_" class="st1" d="M53.3,31.8c0,0.1,0,0.1,0,0.2C52.2,33.2,40.7,45.6,32,45.6c-8.7,0-20.2-12.5-21.3-13.7
			c0-0.1,0-0.1,0-0.2c1.1-1.2,12.6-13.7,21.3-13.7C40.7,18.1,52.2,30.6,53.3,31.8z"/>
		<circle id="XMLID_29_" class="st3" cx="31.6" cy="32.2" r="4.5"/>
		<path id="XMLID_460_" class="st2" d="M41.5,32c0-5.5-4.4-9.9-9.9-9.9v9.6L41.5,32z"/>
		<linearGradient id="XMLID_433_" gradientUnits="userSpaceOnUse" x1="9.683" y1="32" x2="54.317" y2="32">
			<stop  offset="0" style="stop-color:#5357FF"/>
			<stop  offset="0.2407" style="stop-color:#6D46FF"/>
			<stop  offset="0.4912" style="stop-color:#813AFF"/>
			<stop  offset="0.7439" style="stop-color:#8D32FF"/>
			<stop  offset="1" style="stop-color:#9130FF"/>
		</linearGradient>
		<path id="XMLID_123_" class="st15" d="M53.3,31.8c0,0.1,0,0.1,0,0.2C52.2,33.2,40.7,45.6,32,45.6c-8.7,0-20.2-12.5-21.3-13.7
			c0-0.1,0-0.1,0-0.2c1.1-1.2,12.6-13.7,21.3-13.7C40.7,18.1,52.2,30.6,53.3,31.8z M29.3,22.5c-4.2,1.1-7.4,5-7.4,9.6
			c0,5.5,4.4,9.9,9.9,9.9c4.6,0,8.4-3.1,9.6-7.3 M31.8,20v12h12.6 M41.5,32c0-5.5-4.4-9.9-9.9-9.9 M31.9,15.4v-4.3 M40,17.5l2.1-3.7
			 M23.6,17.7L21.5,14 M31.9,52.9v-4.3 M40,46.5l2.1,3.7 M21.5,50l2.1-3.7 M31.8,27.3c-2.6,0-4.7,2.1-4.7,4.7c0,2.6,2.1,4.7,4.7,4.7
			s4.7-2.1,4.7-4.7"/>
	</g>
	<g id="XMLID_159_" class="st0">
		<path id="XMLID_529_" class="st1" d="M48.3,39.9l-11.2-3.8v-4.3h-0.7l1.4-0.9c1.2-0.6,2-1.9,2.1-3.2l0.4-5.1c0,0,0.1,0,0.1,0
			c0.7,0,1.3-0.6,1.3-1.3c0-0.7-0.5-1.3-1.2-1.3l0.2-2.5c0-4.7-3.8-8.5-8.5-8.5c-4.7,0-8.5,3.8-8.5,8.5l0.2,2
			c-0.7,0.3-1.2,1-1.2,1.8c0,0.9,0.6,1.7,1.5,2l0.4,4.4c0.1,1.4,0.9,2.6,2.1,3.2l1.3,0.9h-0.8v4.3l-11.2,3.8c-0.8,0.3-1.4,1-1.4,1.9
			V55h35.1V41.8C49.6,41,49.1,40.2,48.3,39.9z"/>
		<path id="XMLID_455_" class="st3" d="M37.1,36.1v-4.3h-0.7l1.4-0.9c1.2-0.6,2-1.9,2.1-3.2l0.4-5.1c0,0,0.1,0,0.1,0
			c0.7,0,1.3-0.6,1.3-1.3c0-0.7-0.5-1.3-1.2-1.3l0.2-2.5c0-4.7-3.8-8.5-8.5-8.5c-0.7,0-1.4,0.1-2,0.2c3.7,0.9,6.5,4.2,6.5,8.2
			c0,0-0.4,5.1-0.4,5.1l-0.4,5.1c-0.1,1.4-0.6,2.7-1.8,3.3l-0.9,0.8v7.3L37.1,36.1z"/>
		<path id="XMLID_520_" class="st2" d="M30.4,44.4l-1.1-3.3c0,0,0,0,0,0l2.8-2c0,0,0,0,0,0l2.8,2c0,0,0,0,0,0l-1.1,3.3H30.4z"/>
		<polygon id="XMLID_502_" class="st2" points="30.4,44.4 29.3,55 34.7,55 33.6,44.4 		"/>
		<linearGradient id="XMLID_434_" gradientUnits="userSpaceOnUse" x1="13.3587" y1="31.5482" x2="50.6413" y2="31.5482">
			<stop  offset="0" style="stop-color:#5357FF"/>
			<stop  offset="0.2407" style="stop-color:#6D46FF"/>
			<stop  offset="0.4912" style="stop-color:#813AFF"/>
			<stop  offset="0.7439" style="stop-color:#8D32FF"/>
			<stop  offset="1" style="stop-color:#9130FF"/>
		</linearGradient>
		<path id="XMLID_161_" class="st16" d="M14.4,55V42c0-0.9,0.6-1.6,1.4-1.9L27,36.2v-4.3 M49.6,55V42c0-0.9-0.6-1.6-1.4-1.9L37,36.2
			v-4.3 M40.4,19.3l0.1-1.8c0-4.7-3.8-8.5-8.5-8.5c-4.7,0-8.5,3.8-8.5,8.5l0.1,1.8h-0.1c-1,0-1.7,0.9-1.5,1.9l0.1,0.3
			c0.2,0.9,1,1.6,1.9,1.7l0.4,4.5c0.1,1.4,0.9,2.6,2.1,3.3l4.1,2.7h2.7l4.3-2.7c1.2-0.6,2-1.9,2.1-3.3l0.4-4.5
			c0.8-0.2,1.4-0.9,1.6-1.7l0.1-0.3C42,20.3,41.3,19.4,40.4,19.3z M33.7,43.9l1.1-3.3c0,0,0,0,0,0l-2.8-2c0,0,0,0,0,0l-2.8,2
			c0,0,0,0,0,0l1.1,3.3H33.7z M30.2,43.9L29.1,55 M33.4,43.9L34.5,55 M30.2,39.8L27,36.2 M37.2,36.2L34,39.8 M22.4,54H24l1.3-1.6v-4
			h-6 M23.4,48.3v-3.1"/>
	</g>
	<g id="XMLID_465_" class="st0">
		<path id="XMLID_181_" class="st1" d="M49.4,51.9H10.9c-0.1,0-0.2-0.1-0.2-0.2V24.5c0-0.1,0.1-0.2,0.2-0.2h38.5
			c0.1,0,0.2,0.1,0.2,0.2v27.2C49.6,51.8,49.5,51.9,49.4,51.9z"/>
		<rect id="XMLID_458_" x="14.2" y="27.6" class="st2" width="31.9" height="24.3"/>
		<path id="XMLID_461_" class="st3" d="M49.9,52.9H10.2c-0.5,0-0.9-0.4-1-0.9l-0.4-2.3h17.6l0.7,1H32l0.7-1h18.6L50.9,52
			C50.8,52.5,50.4,52.9,49.9,52.9z"/>
		<path id="XMLID_457_" class="st1" d="M29.8,37.4l5.5-1c1.8,0.8,3.8,1.1,5.9,0.8c4.8-0.7,8.6-4.6,9.2-9.4c0.8-7-5.1-12.8-12.1-12
			c-4.8,0.6-8.7,4.5-9.3,9.3c-0.3,2.6,0.3,5.1,1.6,7.1l-0.9,5C29.6,37.3,29.7,37.4,29.8,37.4z"/>
		<path id="XMLID_177_" class="st1" d="M29.8,37.4l5.5-1c1.8,0.8,3.8,1.1,5.9,0.8c4.8-0.7,8.6-4.6,9.2-9.4c0.8-7-5.1-12.8-12.1-12
			c-4.8,0.6-8.7,4.5-9.3,9.3c-0.3,2.6,0.3,5.1,1.6,7.1l-0.9,5C29.6,37.3,29.7,37.4,29.8,37.4z"/>
		<path id="XMLID_472_" class="st2" d="M38.3,15.8c-3.1,0.4-5.9,2.2-7.6,4.7c1.4-0.9,2.9-1.5,4.6-1.7c7-0.9,12.9,5,12.1,12
			c-0.2,1.7-0.8,3.3-1.7,4.7c2.6-1.7,4.4-4.5,4.7-7.7C51.2,20.8,45.3,15,38.3,15.8z"/>
		<linearGradient id="XMLID_435_" gradientUnits="userSpaceOnUse" x1="7.6465" y1="32" x2="56.1762" y2="32">
			<stop  offset="0" style="stop-color:#5357FF"/>
			<stop  offset="0.2407" style="stop-color:#6D46FF"/>
			<stop  offset="0.4912" style="stop-color:#813AFF"/>
			<stop  offset="0.7439" style="stop-color:#8D32FF"/>
			<stop  offset="1" style="stop-color:#9130FF"/>
		</linearGradient>
		<path id="XMLID_179_" class="st17" d="M10.7,49.4V25.1c0-0.4,0.4-0.8,0.8-0.8h15.9 M49.6,49.4V34.7 M27.4,27.6h-13v19.9
			 M45.9,47.5V37.4 M50.9,52l0.4-2.3H32.7l-0.7,1h-4.9l-0.7-1H8.8L9.2,52c0.1,0.5,0.5,0.9,1,0.9h39.6C50.4,52.9,50.8,52.5,50.9,52z
			 M29.8,37.4l5.5-1c1.8,0.8,3.8,1.1,5.9,0.8c4.8-0.7,8.6-4.6,9.2-9.4c0.8-7-5.1-12.8-12.1-12c-4.8,0.6-8.7,4.5-9.3,9.3
			c-0.3,2.6,0.3,5.1,1.6,7.1l-0.9,5C29.6,37.3,29.7,37.4,29.8,37.4z M42.6,26.5l-5.6-3.3c-0.1,0-0.1,0-0.1,0.1v6.5
			c0,0.1,0.1,0.1,0.1,0.1l5.6-3.3C42.6,26.6,42.6,26.5,42.6,26.5l-5.6-3.3c-0.1,0-0.1,0-0.1,0.1v6.5c0,0.1,0.1,0.1,0.1,0.1l5.6-3.3
			C42.6,26.6,42.6,26.5,42.6,26.5z M52.2,35.7c1.9-2.6,3-5.7,3-9.2c0-8.5-6.9-15.5-15.5-15.5 M27.5,17.1c-1,1.3-1.8,2.7-2.3,4.3
			 M29.7,14.8c-0.5,0.4-0.9,0.8-1.3,1.3 M32.6,12.8c-0.7,0.3-1.3,0.7-1.9,1.1 M36.5,11.4c-0.9,0.2-1.7,0.4-2.5,0.8"/>
	</g>
	<g id="XMLID_244_" class="st0">
		<path id="XMLID_270_" class="st1" d="M18.4,33.1v6.6c0,4.5-1.5,8.9-4.2,12.5l0,0h21l0,0c-2.7-3.6-4.2-8-4.2-12.5v-6.6H18.4z"/>
		<path id="XMLID_498_" class="st3" d="M31,39.7v-6.6h-5v6.6c0,4.5,1.5,8.9,4.2,12.5h5C32.4,48.6,31,44.2,31,39.7z"/>
		<path id="XMLID_480_" class="st1" d="M31.1,51.3H14.2c-1.2,0-2.2,1-2.2,2.2v1.1h19.1V51.3z"/>
		<rect id="XMLID_500_" x="26.1" y="51.3" class="st3" width="5" height="3.3"/>
		<path id="XMLID_277_" class="st1" d="M32.3,22.5h-1.8c-0.2,0-0.4,0.2-0.4,0.4v2.4h-4.5v-2.4c0-0.2-0.2-0.4-0.4-0.4h-2.7
			c-0.2,0-0.4,0.2-0.4,0.4v2.4h-4.5v-2.4c0-0.2-0.2-0.4-0.4-0.4h-1.8c-0.2,0-0.4,0.2-0.4,0.4v2.4v2.9v4.9c0,0,0,0,0,0h18.7v-9.5
			C33.5,23.1,33,22.5,32.3,22.5z"/>
		<g id="XMLID_499_" class="st9">
			<path id="XMLID_505_" class="st10" d="M32.3,22.5h-1.8c-0.2,0-0.4,0.2-0.4,0.4v2.4h-2.5v7.8h6v-9.5C33.5,23.1,33,22.5,32.3,22.5z
				"/>
		</g>
		<path id="XMLID_268_" class="st12" d="M50.2,51.1H32.4c-1,0-1.9,0.8-1.9,1.9v1.8H52V53C52,51.9,51.2,51.1,50.2,51.1z"/>
		<rect id="XMLID_266_" x="34.2" y="26.9" class="st12" width="14.5" height="3.2"/>
		<path id="XMLID_264_" class="st12" d="M48.6,22.7c-0.2-1.6-1.5-3-3.1-3.2c-0.9-0.2-1.8,0-2.6,0.5c0,0-0.1,0-0.1,0v-3.4h2.8
			c0.1,0,0.1,0,0.1-0.1V13c0-0.1,0-0.1-0.1-0.1h-2.8V9.3c0-0.1,0-0.1-0.1-0.1H40c-0.1,0-0.1,0-0.1,0.1v3.5h-2.8
			c-0.1,0-0.1,0-0.1,0.1v3.5c0,0.1,0,0.1,0.1,0.1h2.8v3.4c0,0,0,0-0.1,0c-0.7-0.4-1.6-0.6-2.6-0.5c-1.6,0.3-2.9,1.6-3.1,3.2
			c-0.3,2.3,1.5,4.2,3.7,4.2h7C47.1,26.9,48.9,25,48.6,22.7z"/>
		<path id="XMLID_275_" class="st12" d="M36.6,30c0,0,3.7,3.5,0,8.5c-1.9,2.6-6.1,6.8-2.7,12.8h14.7c3.4-6-0.8-10.1-2.7-12.8
			c-3.7-5,0-8.5,0-8.5H36.6z"/>
		<linearGradient id="XMLID_437_" gradientUnits="userSpaceOnUse" x1="10.9724" y1="32" x2="53.0276" y2="32">
			<stop  offset="0" style="stop-color:#5357FF"/>
			<stop  offset="0.2407" style="stop-color:#6D46FF"/>
			<stop  offset="0.4912" style="stop-color:#813AFF"/>
			<stop  offset="0.7439" style="stop-color:#8D32FF"/>
			<stop  offset="1" style="stop-color:#9130FF"/>
		</linearGradient>
		<path id="XMLID_180_" class="st18" d="M28.2,54.6H12v-1.1c0-1.2,1-2.2,2.2-2.2H29 M31,33.1v6.3c0,1.3,0.1,2.5,0.4,3.8 M14.3,51.3
			L14.3,51.3c2.6-3.4,4-7.6,4-11.9v-6.3 M32.3,22.5h-1.8c-0.2,0-0.4,0.2-0.4,0.4v2.4h-4.5v-2.4c0-0.2-0.2-0.4-0.4-0.4h-2.7
			c-0.2,0-0.4,0.2-0.4,0.4v2.4h-4.5v-2.4c0-0.2-0.2-0.4-0.4-0.4h-1.8c-0.2,0-0.4,0.2-0.4,0.4v2.4v2.9v4.9c0,0,0,0,0,0h18.7
			 M33.9,51.3c-3.4-6,0.8-10.1,2.7-12.8c3.7-5,0-8.5,0-8.5 M45.9,30c0,0-3.7,3.5,0,8.5c1.9,2.6,6.1,6.8,2.7,12.8 M52,53
			c0-1-0.8-1.9-1.9-1.9H32.4c-1,0-1.9,0.8-1.9,1.9v1.8H52V53z M48.6,26.9H34.2V30h14.5V26.9z M44.9,26.9c2.2,0,4-1.9,3.7-4.2
			c-0.2-1.6-1.5-3-3.1-3.2c-0.9-0.2-1.8,0-2.6,0.5c0,0-0.1,0-0.1,0v-3.4h2.8c0.1,0,0.1,0,0.1-0.1v-3.5c0-0.1,0-0.1-0.1-0.1h-2.8V9.3
			c0-0.1,0-0.1-0.1-0.1H40c-0.1,0-0.1,0-0.1,0.1v3.5h-2.8c-0.1,0-0.1,0-0.1,0.1v3.5c0,0.1,0,0.1,0.1,0.1h2.8v3.4c0,0,0,0-0.1,0
			c-0.7-0.4-1.6-0.6-2.6-0.5c-1.6,0.3-2.9,1.6-3.1,3.2c-0.3,2.3,1.5,4.2,3.7,4.2"/>
	</g>
	<g id="XMLID_216_" class="st0">
		<path id="XMLID_543_" class="st12" d="M40.7,32.9l0-1.9l-3-0.4c-0.1-0.6-0.4-1.2-0.7-1.8l1.8-2.4l-1.3-1.3L35.1,27
			c-0.5-0.3-1.1-0.6-1.8-0.7l-0.4-3h-1.9l-0.4,3c-0.6,0.1-1.2,0.4-1.7,0.7l-2.4-1.8l-1.3,1.3l1.8,2.4c-0.3,0.5-0.6,1.1-0.7,1.8
			l-3,0.4l0,1.9l3,0.4c0.1,0.6,0.4,1.2,0.7,1.8l-1.8,2.4l1.3,1.3l2.4-1.8c0.5,0.3,1.1,0.6,1.8,0.7l0.4,3l1.9,0l0.4-3
			c0.6-0.1,1.2-0.4,1.8-0.7l2.4,1.8l1.3-1.3L37,35.1c0.3-0.5,0.6-1.1,0.7-1.8L40.7,32.9z M32,34.7c-1.5,0-2.7-1.2-2.7-2.7
			c0-1.5,1.2-2.7,2.7-2.7c1.5,0,2.7,1.2,2.7,2.7C34.7,33.5,33.5,34.7,32,34.7z"/>
		<path id="XMLID_530_" class="st1" d="M32,13.5c-10.2,0-18.5,8.3-18.5,18.5c0,10.2,8.3,18.5,18.5,18.5c10.2,0,18.5-8.3,18.5-18.5
			C50.5,21.8,42.2,13.5,32,13.5z M32,43.9c-6.6,0-11.9-5.3-11.9-11.9c0-6.6,5.3-11.9,11.9-11.9c6.6,0,11.9,5.3,11.9,11.9
			C43.9,38.6,38.6,43.9,32,43.9z"/>
		<path id="XMLID_513_" class="st19" d="M32,17.5c-8,0-14.5,6.5-14.5,14.5c0,8,6.5,14.5,14.5,14.5c8,0,14.5-6.5,14.5-14.5
			C46.5,24,40,17.5,32,17.5z M32,43.9c-6.6,0-11.9-5.3-11.9-11.9c0-6.6,5.3-11.9,11.9-11.9c6.6,0,11.9,5.3,11.9,11.9
			C43.9,38.6,38.6,43.9,32,43.9z"/>
		<linearGradient id="XMLID_606_" gradientUnits="userSpaceOnUse" x1="8.4954" y1="32" x2="55.5046" y2="32">
			<stop  offset="0" style="stop-color:#5357FF"/>
			<stop  offset="0.2407" style="stop-color:#6D46FF"/>
			<stop  offset="0.4912" style="stop-color:#813AFF"/>
			<stop  offset="0.7439" style="stop-color:#8D32FF"/>
			<stop  offset="1" style="stop-color:#9130FF"/>
		</linearGradient>
		<path id="XMLID_217_" class="st20" d="M37.8,33.4c-0.1,0.6-0.4,1.2-0.7,1.8l1.8,2.4l-1.3,1.3l-2.4-1.8c-0.5,0.3-1.1,0.6-1.8,0.7
			l-0.4,3l-1.9,0l-0.4-3c-0.6-0.1-1.2-0.4-1.8-0.7l-2.4,1.8l-1.3-1.3l1.8-2.4c-0.3-0.5-0.6-1.1-0.7-1.8l-3-0.4l0-1.9l3-0.4
			c0.1-0.6,0.4-1.2,0.7-1.8l-1.8-2.4l1.3-1.3l2.4,1.8c0.5-0.3,1.1-0.6,1.7-0.7l0.4-3h1.9l0.4,3c0.6,0.1,1.2,0.4,1.8,0.7l2.4-1.8
			l1.3,1.3l-1.8,2.4c0.3,0.5,0.6,1.1,0.7,1.8l3,0.4l0,1.9L37.8,33.4z M32,29.3c-1.5,0-2.7,1.2-2.7,2.7c0,1.5,1.2,2.7,2.7,2.7
			c1.5,0,2.7-1.2,2.7-2.7C34.7,30.5,33.5,29.3,32,29.3z M32,13.5c-10.2,0-18.5,8.3-18.5,18.5c0,10.2,8.3,18.5,18.5,18.5
			c10.2,0,18.5-8.3,18.5-18.5C50.5,21.8,42.2,13.5,32,13.5z M54.5,32c0-0.4,0-0.8,0-1.2c-0.2-4.2-1.6-8.1-3.8-11.4 M53.9,37
			c0.2-1.1,0.4-2.2,0.5-3.3 M52.6,41.2c0.3-0.7,0.6-1.5,0.9-2.3 M50.6,44.7c0.4-0.6,0.8-1.2,1.2-1.9 M34.7,9.7
			c-0.9-0.1-1.8-0.2-2.7-0.2c-4.4,0-8.5,1.3-12,3.5 M40.3,11.1c-1.1-0.4-2.2-0.8-3.3-1 M44.6,13.4c-0.8-0.6-1.7-1.1-2.7-1.5
			 M10.6,38.9c0.7,2,1.6,4,2.8,5.7 M9.5,33.2c0.1,1.3,0.2,2.6,0.5,3.8 M10,27.5c-0.2,1.1-0.4,2.2-0.4,3.3c0,0.4,0,0.8,0,1.2
			 M13.9,18.6c-1.7,2.3-2.9,4.8-3.7,7.6 M41.6,52.4c0.7-0.3,1.4-0.7,2-1.1 M35.5,54.2c1.3-0.2,2.6-0.5,3.9-1 M18.3,49.8
			c3.8,2.9,8.5,4.7,13.7,4.7c0.6,0,1.2,0,1.8-0.1 M32,20.1c-6.6,0-11.9,5.3-11.9,11.9c0,6.6,5.3,11.9,11.9,11.9
			c6.6,0,11.9-5.3,11.9-11.9C43.9,25.4,38.6,20.1,32,20.1z M16.9,21.4l4.3,4.3 M21.2,17.1l4.3,4.3 M42.6,47.1L38,42.5 M42.3,38.2
			l4.5,4.5 M47.3,21.4l-4.4,4.4 M38.6,21.5l4.4-4.4 M26,42.7l-4.6,4.6 M21.7,38.4L17.1,43 M17.1,14c-0.7-0.7-1.8-0.7-2.4,0l0,0
			c-0.7,0.7-0.7,1.8,0,2.4l1.7,1.7 M50,17.1c0.7-0.7,0.7-1.8,0-2.4l0,0c-0.7-0.7-1.8-0.7-2.4,0l-1.7,1.7 M46.9,50
			c0.7,0.7,1.8,0.7,2.4,0l0,0c0.7-0.7,0.7-1.8,0-2.4l-1.7-1.7 M14,46.9c-0.7,0.7-0.7,1.8,0,2.4l0,0c0.7,0.7,1.8,0.7,2.4,0l1.7-1.7"
			/>
	</g>
	<g id="XMLID_276_" class="st0">
		<g id="XMLID_654_" class="st9">
			<path id="XMLID_657_" class="st10" d="M36.3,32.2c0-2.4-1.9-4.3-4.3-4.3c-2.4,0-4.3,1.9-4.3,4.3l0.4,5.1c0.1,0.7,0.5,1.3,1.1,1.6
				l2.1,1.4h1.4l2.1-1.4c0.6-0.3,1-0.9,1.1-1.6L36.3,32.2z"/>
			<path id="XMLID_656_" class="st10" d="M40.1,44.4l-5.6-1.9v-5.4h-5v5.4l-5.6,1.9c-0.4,0.1-0.7,0.5-0.7,1l0,8.6h17.6l0-8.6
				C40.8,44.9,40.5,44.6,40.1,44.4z"/>
		</g>
		<g id="XMLID_636_" class="st9">
			<path id="XMLID_638_" class="st21" d="M47.2,37.8c0-2.4-1.9-4.3-4.3-4.3c-2.4,0-4.3,1.9-4.3,4.3L39,43c0.1,0.7,0.5,1.3,1.1,1.6
				l2.1,1.4h1.4l2.1-1.4c0.6-0.3,1-0.9,1.1-1.6L47.2,37.8z"/>
			<path id="XMLID_637_" class="st21" d="M51,50.1l-5.6-1.9v-5.4h-5v5.4l-5.6,1.9c-0.4,0.1-0.7,0.5-0.7,1l0,2.9h17.6l0-2.9
				C51.7,50.6,51.4,50.2,51,50.1z"/>
		</g>
		<g id="XMLID_646_" class="st9">
			<path id="XMLID_652_" class="st21" d="M25.2,37.8c0-2.4-1.9-4.3-4.3-4.3c-2.4,0-4.3,1.9-4.3,4.3L17,43c0.1,0.7,0.5,1.3,1.1,1.6
				l2.1,1.4h1.4l2.1-1.4c0.6-0.3,1-0.9,1.1-1.6L25.2,37.8z"/>
			<path id="XMLID_651_" class="st21" d="M29,50.1l-5.6-1.9v-5.4h-5v5.4l-5.6,1.9c-0.4,0.1-0.7,0.5-0.7,1l0,2.9h17.6l0-2.9
				C29.7,50.6,29.4,50.2,29,50.1z"/>
		</g>
		<linearGradient id="XMLID_607_" gradientUnits="userSpaceOnUse" x1="10.9465" y1="31.4848" x2="53.0535" y2="31.4848">
			<stop  offset="0" style="stop-color:#5357FF"/>
			<stop  offset="0.2407" style="stop-color:#6D46FF"/>
			<stop  offset="0.4912" style="stop-color:#813AFF"/>
			<stop  offset="0.7439" style="stop-color:#8D32FF"/>
			<stop  offset="1" style="stop-color:#9130FF"/>
		</linearGradient>
		<path id="XMLID_394_" class="st22" d="M18.5,45.2v3.3l-5.9,2c-0.4,0.1-0.7,0.5-0.7,1V54 M23.7,45.2v3.3l5.9,2
			c0.4,0.1,0.7,0.5,0.7,1V54 M25.6,37.7c0-2.5-2-4.4-4.4-4.4c-2.5,0-4.4,2-4.4,4.4l0.4,5.3c0.1,0.7,0.5,1.4,1.1,1.7l2.2,1.4h1.4
			l2.2-1.4c0.6-0.3,1.1-1,1.1-1.7L25.6,37.7z M18.5,48.5l1.7,1.9h2l1.7-1.9 M33.7,54v-2.2c0-0.5,0.3-0.9,0.7-1l5.9-2v-3.3
			 M45.5,45.5v3.3l5.9,2c0.4,0.1,0.7,0.5,0.7,1V54 M47.3,38c0-2.5-2-4.4-4.4-4.4c-2.5,0-4.4,2-4.4,4.4l0.4,5.3
			c0.1,0.7,0.5,1.4,1.1,1.7l2.2,1.4h1.4l2.2-1.4c0.6-0.3,1.1-1,1.1-1.7L47.3,38z M40.3,48.8l1.7,1.9h2l1.7-1.9 M27,43l2.5-0.8v-3.1
			 M34.4,39.1v3.1l2.4,0.9 M36.2,32c0-2.3-1.9-4.2-4.2-4.2c-2.3,0-4.2,1.9-4.2,4.2l0.4,5.1c0,0.7,0.4,1.3,1.1,1.6l2,1.3h1.3l2.1-1.3
			c0.6-0.3,1-0.9,1.1-1.6L36.2,32z M29.5,42.2l1.6,1.8h1.9l1.6-1.8 M46.8,32.4l0-3.2l-5-0.7c-0.3-1.1-0.7-2.1-1.2-3l3.1-4.1
			l-2.2-2.2l-4.1,3.1c-0.9-0.6-1.9-1-3-1.2l-0.7-5.1h-3.2l-0.7,5.1c-1.1,0.3-2.1,0.7-3,1.2l-4.1-3.1l-2.3,2.2l3,4.1
			c-0.6,0.9-1,1.9-1.2,3l-5.1,0.7l0,3.2 M13.2,36.7c0.2,0.5,0.4,1,0.6,1.4 M12.1,32.4c0.1,1.1,0.4,2.1,0.7,3.2 M12.3,26
			c-0.2,1.2-0.4,2.5-0.4,3.7c0,0.4,0,0.9,0,1.3 M50.8,25.1C48.7,16.4,40.9,10,31.6,10c-8.9,0-16.5,5.9-18.9,14.1 M51.3,29.7
			c0-1.2-0.1-2.3-0.3-3.4 M50.9,33.9c0.1-0.3,0.1-0.7,0.2-1c0.1-0.7,0.2-1.5,0.2-2.3 M49.6,37.7c0.2-0.3,0.3-0.7,0.4-1.1"/>
	</g>
	<g id="XMLID_226_" class="st0">
		<path id="XMLID_523_" class="st2" d="M31.3,53.3h-4.2c-0.9,0-1.6-0.7-1.6-1.6l0,0c0-0.9,0.7-1.6,1.6-1.6h4.2
			c0.9,0,1.6,0.7,1.6,1.6l0,0C32.9,52.6,32.2,53.3,31.3,53.3z"/>
		<path id="XMLID_522_" class="st1" d="M16.5,35.9h-3.4c-1.6,0-3-1.3-3-3v-4.4c0-1.6,1.3-3,3-3h3.4V35.9z"/>
		<path id="XMLID_552_" class="st3" d="M13.1,32.9v-4.4c0-1.6,1.3-3,3-3h-3c-1.6,0-3,1.3-3,3v4.4c0,1.6,1.3,3,3,3h3
			C14.4,35.9,13.1,34.5,13.1,32.9z"/>
		<path id="XMLID_521_" class="st1" d="M47.5,35.9h3.4c1.6,0,3-1.3,3-3v-4.4c0-1.6-1.3-3-3-3h-3.4V35.9z"/>
		<path id="XMLID_551_" class="st3" d="M50.9,25.5h-3c1.6,0,3,1.3,3,3v4.4c0,1.6-1.3,3-3,3h3c1.6,0,3-1.3,3-3v-4.4
			C53.9,26.9,52.6,25.5,50.9,25.5z"/>
		<linearGradient id="XMLID_704_" gradientUnits="userSpaceOnUse" x1="9.1058" y1="32" x2="54.8954" y2="32">
			<stop  offset="0" style="stop-color:#5357FF"/>
			<stop  offset="0.2407" style="stop-color:#6D46FF"/>
			<stop  offset="0.4912" style="stop-color:#813AFF"/>
			<stop  offset="0.7439" style="stop-color:#8D32FF"/>
			<stop  offset="1" style="stop-color:#9130FF"/>
		</linearGradient>
		<path id="XMLID_224_" class="st23" d="M24.4,27.6v-0.5l0,0c0-0.7,0.6-1.3,1.3-1.3H29c0.7,0,1.3,0.6,1.3,1.3v0.7
			c0,0.5-0.3,1-0.7,1.3L25,32.6c-0.4,0.3-0.6,0.7-0.6,1.1v1.5c0,0.4,0.3,0.7,0.7,0.7h6.2 M37.9,36.7V25.8c0,0,0,0,0,0h-1.1
			c0,0,0,0,0,0L32,31.6c0,0,0,0.1,0,0.1h8.7 M32.9,51.8L32.9,51.8c0-0.9-0.7-1.6-1.6-1.6h-4.2c-0.9,0-1.6,0.7-1.6,1.6l0,0
			c0,0.9,0.7,1.6,1.6,1.6h4.2C32.2,53.4,32.9,52.7,32.9,51.8z M16.5,25.6h-3.4c-1.6,0-3,1.3-3,3v4.4c0,1.6,1.3,3,3,3h3.4V25.6z
			 M47.5,35.9h3.4c1.6,0,3-1.3,3-3v-4.4c0-1.6-1.3-3-3-3h-3.4V35.9z M17,22.2c-0.2,0.7-0.3,1.4-0.4,2.1 M19.2,17.4
			c-0.6,0.9-1.2,2-1.6,3 M46.2,19.8c-2.4-5.4-7.9-9.2-14.2-9.2l0,0c-4.6,0-8.7,2-11.5,5.2 M47.2,22.8c-0.1-0.5-0.2-1-0.4-1.5
			 M32,51.8c8.5,0,15.5-7,15.5-15.5v-3.2"/>
	</g>
	<g id="XMLID_518_" class="st0">
		<circle id="XMLID_562_" class="st1" cx="37.8" cy="20.4" r="11.3"/>
		<path id="XMLID_568_" class="st2" d="M37.8,9.1c-3.9,0-7.3,2-9.4,5c1.8-1.2,4-2,6.4-2c6.2,0,11.3,5.1,11.3,11.3
			c0,2.4-0.7,4.5-2,6.4c3-2,5-5.5,5-9.4C49.1,14.1,44,9.1,37.8,9.1z"/>
		<path id="XMLID_567_" class="st2" d="M17.7,33H9v18h8.6c0,0,0.1,0,0.1-0.1L17.7,33C17.7,33,17.7,33,17.7,33z"/>
		<path id="XMLID_557_" class="st1" d="M18.1,36l11.2,0c0.7,0.1,1.6,0.5,2.1,1l7.3,6.8c2.1,1.6-0.1,5.1-2.1,3.3l-7.5-5.4l0,2.6
			l7,6.6c0,0,4.2,0.4,4.8,0.5l7.8-3.1c1.3-0.5,2.8-0.6,4.1-0.1c1,0.4,1.9,0.8,2.1,1.3l-13.4,5.4C41,55.1,33.7,55,33.7,55l-15.6-7.6
			V36z"/>
		<path id="XMLID_554_" class="st3" d="M45.3,36.2c0,0-1.2,3.2-2.6,3.8c-1.5,0.6-4.6-0.9-4.6-0.9s1.2-3.2,2.6-3.8
			C42.2,34.7,45.3,36.2,45.3,36.2z"/>
		<linearGradient id="XMLID_706_" gradientUnits="userSpaceOnUse" x1="9.0443" y1="32" x2="55.8545" y2="32">
			<stop  offset="0" style="stop-color:#5357FF"/>
			<stop  offset="0.2407" style="stop-color:#6D46FF"/>
			<stop  offset="0.4912" style="stop-color:#813AFF"/>
			<stop  offset="0.7439" style="stop-color:#8D32FF"/>
			<stop  offset="1" style="stop-color:#9130FF"/>
		</linearGradient>
		<path id="XMLID_292_" class="st24" d="M41.5,15.7h-4.8c-1.3,0-2.4,1.1-2.4,2.4l0,0c0,1.3,1.1,2.4,2.4,2.4H39
			c1.3,0,2.4,1.1,2.4,2.4v0c0,1.3-1.1,2.4-2.4,2.4h-4.9 M38,13.2v2.5 M38,25.1v2.3 M37.8,9C31.6,9,26.5,14,26.5,20.3
			s5.1,11.3,11.3,11.3c6.2,0,11.3-5.1,11.3-11.3S44,9,37.8,9z M29.2,20.3h2.7 M46.5,20.3h-2.7 M9,51h8.6c0,0,0.1,0,0.1-0.1V33.1
			c0,0,0-0.1-0.1-0.1H9 M17.7,47.5L33.4,55c0,0,7.2,0.1,7.7-0.2l13.4-5.4c-0.2-0.5-1.1-0.9-2.1-1.3c-1.3-0.5-2.8-0.4-4.1,0.1
			l-7.8,3.1c-0.6-0.2-4.8-0.5-4.8-0.5l-7-6.6l0-2.6l7.5,5.4c2,1.8,4.2-1.6,2.1-3.3L31.1,37c-0.5-0.5-1.5-0.9-2.2-1l-11.2,0
			 M44.9,49.9c-0.5-4.2-4-7.4-8.4-7.4 M37.8,31.6v11.3 M40.7,35.3c-1.5,0.6-2.6,3.8-2.6,3.8s3.1,1.5,4.6,0.9
			c1.5-0.6,2.6-3.8,2.6-3.8S42.2,34.7,40.7,35.3z M24.7,20.4h-4 M25.4,15.9l-3.8-1.4 M53.9,14.3l-3.8,1.4 M55,20.2l-4,0 M50.2,24.7
			l3.8,1.4 M25.5,24.8l-3.8,1.4"/>
	</g>
	<g id="XMLID_248_" class="st0">
		<circle id="XMLID_265_" class="st1" cx="32.1" cy="23.8" r="9.4"/>
		<g id="XMLID_598_" class="st9">
			<path id="XMLID_600_" class="st10" d="M32.1,14.3c-1,0-1.9,0.1-2.8,0.4l12.1,10.6c0.1-0.5,0.1-1,0.1-1.6c0-0.6-0.1-1.3-0.2-1.8
				l-8.6-7.6C32.5,14.4,32.3,14.3,32.1,14.3z"/>
			<path id="XMLID_601_" class="st10" d="M27.1,15.8c-1.2,0.8-2.2,1.8-3,3L38.2,31c1.1-0.9,1.9-2.1,2.5-3.4L27.1,15.8z"/>
		</g>
		<path id="XMLID_250_" class="st2" d="M48.9,46.9H34c0,0-0.1,0-0.1,0.1v7.2H49L48.9,46.9C49,47,48.9,46.9,48.9,46.9z"/>
		<path id="XMLID_255_" class="st1" d="M45.9,47.1l6.3-13c0,0,0-6-0.1-6.4l-4.5-11.2c-0.4,0.2-0.8,0.9-1.1,1.7
			c-0.4,1.1-0.4,2.3,0.1,3.4l2.6,6.5c-0.1,0.5-0.5,4-0.5,4l-5.5,5.8l-2.2,0l4.5-6.3c1.5-1.7-1.4-3.5-2.7-1.7L37.2,36
			c-0.4,0.4-0.8,1.2-0.9,1.8l0,9.3H45.9z"/>
		<path id="XMLID_596_" class="st2" d="M30.2,46.9H15.3c0,0-0.1,0-0.1,0.1v7.2h15.1L30.2,46.9C30.2,47,30.2,46.9,30.2,46.9z"/>
		<path id="XMLID_249_" class="st1" d="M27.7,47.1l0-9.3c-0.1-0.6-0.5-1.4-0.8-1.8l-5.7-6.1c-1.4-1.8-4.3,0.1-2.7,1.7l4.5,6.3
			l-2.2,0l-5.5-5.8c0,0-0.3-3.5-0.5-4l2.6-6.5c0.4-1.1,0.5-2.3,0.1-3.4c-0.3-0.8-0.7-1.5-1.1-1.7l-4.5,11.2
			c-0.2,0.4-0.1,6.4-0.1,6.4l6.3,13H27.7z"/>
		<linearGradient id="XMLID_707_" gradientUnits="userSpaceOnUse" x1="10.7451" y1="31.5" x2="53.2129" y2="31.5">
			<stop  offset="0" style="stop-color:#5357FF"/>
			<stop  offset="0.2407" style="stop-color:#6D46FF"/>
			<stop  offset="0.4912" style="stop-color:#813AFF"/>
			<stop  offset="0.7439" style="stop-color:#8D32FF"/>
			<stop  offset="1" style="stop-color:#9130FF"/>
		</linearGradient>
		<path id="XMLID_293_" class="st25" d="M35.1,19.8h-4c-1.1,0-2,0.9-2,2l0,0c0,1.1,0.9,2,2,2H33c1.1,0,2,0.9,2,2v0c0,1.1-0.9,2-2,2
			h-4.1 M32.2,19.8v-2.1 M32.2,29.6v-1.9 M32,14.3c-5.2,0-9.4,4.2-9.4,9.4c0,5.2,4.2,9.4,9.4,9.4c5.2,0,9.4-4.2,9.4-9.4
			C41.5,18.5,37.2,14.3,32,14.3z M22.6,13.8c-0.5,0.5-1,1.1-1.4,1.7 M26,11.3c-0.7,0.4-1.4,0.8-2,1.3 M39.2,11.2
			c-1.8-0.9-3.8-1.5-6-1.6c-2.3-0.1-4.5,0.4-6.5,1.3 M41.6,12.8c-0.5-0.4-1-0.7-1.5-1.1 M44.6,16.2c-0.4-0.7-0.9-1.4-1.5-2 M27,23.7
			h-2.2 M39.3,23.7H37 M48.9,54.4v-7.2c0,0,0-0.1-0.1-0.1H33.9c0,0-0.1,0-0.1,0.1v7.2 M45.9,47.1l6.3-13c0,0,0-6-0.1-6.4l-4.5-11.2
			c-0.4,0.2-0.8,0.9-1.1,1.7c-0.4,1.1-0.4,2.3,0.1,3.4l2.6,6.5c-0.1,0.5-0.5,4-0.5,4l-5.5,5.8l-2.2,0l4.5-6.3
			c1.5-1.7-1.4-3.5-2.7-1.7L37.1,36c-0.4,0.4-0.8,1.2-0.9,1.8l0,9.3 M30.1,54.4v-7.2c0,0,0-0.1-0.1-0.1H15.2c0,0-0.1,0-0.1,0.1v7.2
			 M27.6,47.1l0-9.3c-0.1-0.6-0.5-1.4-0.8-1.8l-5.7-6.1c-1.4-1.8-4.3,0.1-2.7,1.7l4.5,6.3l-2.2,0l-5.5-5.8c0,0-0.3-3.5-0.5-4
			l2.6-6.5c0.4-1.1,0.5-2.3,0.1-3.4c-0.3-0.8-0.7-1.5-1.1-1.7l-4.5,11.2c-0.2,0.4-0.1,6.4-0.1,6.4l6.3,13"/>
	</g>
	<g id="XMLID_57_" class="st0">
		<polygon id="XMLID_576_" class="st1" points="31.9,9.6 12,21.7 12,23.8 51.6,23.8 51.6,21.5 		"/>
		<polygon id="XMLID_595_" class="st3" points="31.9,9.6 28.9,11.6 48.6,23.5 48.6,23.8 51.6,23.8 51.6,21.5 		"/>
		<rect id="XMLID_569_" x="42.4" y="26.4" class="st1" width="5" height="18.2"/>
		<rect id="XMLID_570_" x="45" y="26.4" class="st2" width="2.4" height="18.2"/>
		<rect id="XMLID_572_" x="29.7" y="26.4" class="st1" width="5" height="18.2"/>
		<rect id="XMLID_571_" x="32.3" y="26.4" class="st2" width="2.4" height="18.2"/>
		<rect id="XMLID_574_" x="17.3" y="26.4" class="st1" width="5" height="18.2"/>
		<rect id="XMLID_573_" x="19.9" y="26.4" class="st2" width="2.4" height="18.2"/>
		<path id="XMLID_549_" class="st1" d="M50,50.6v-2.8c0,0,0,0,0,0H14.3c0,0,0,0,0,0v2.8h-2.5c0,0-0.1,0-0.1,0.1v3.7h40.8v-3.7
			c0,0,0-0.1-0.1-0.1H50z"/>
		<path id="XMLID_555_" class="st3" d="M52.5,51.8v-1.1c0,0,0-0.1-0.1-0.1H50v-2.8c0,0,0,0,0,0H14.3c0,0,0,0,0,0v2.8h-2.5
			c0,0-0.1,0-0.1,0.1v1.1H52.5z"/>
		<rect id="XMLID_53_" x="28.3" y="44.6" class="st1" width="7.6" height="2.8"/>
		<rect id="XMLID_544_" x="41.2" y="44.6" class="st1" width="7.6" height="2.8"/>
		<rect id="XMLID_550_" x="15.8" y="44.6" class="st1" width="7.6" height="2.8"/>
		<rect id="XMLID_566_" x="28.3" y="23.6" class="st1" width="7.6" height="2.8"/>
		<rect id="XMLID_556_" x="41.2" y="23.6" class="st1" width="7.6" height="2.8"/>
		<rect id="XMLID_553_" x="15.8" y="23.6" class="st1" width="7.6" height="2.8"/>
		<linearGradient id="XMLID_708_" gradientUnits="userSpaceOnUse" x1="7.3672" y1="32" x2="56.6251" y2="32">
			<stop  offset="0" style="stop-color:#5357FF"/>
			<stop  offset="0.2407" style="stop-color:#6D46FF"/>
			<stop  offset="0.4912" style="stop-color:#813AFF"/>
			<stop  offset="0.7439" style="stop-color:#8D32FF"/>
			<stop  offset="1" style="stop-color:#9130FF"/>
		</linearGradient>
		<path id="XMLID_289_" class="st26" d="M52.5,50.6C52.5,50.6,52.5,50.7,52.5,50.6l0.1,3.8H11.8v-3.7c0,0,0-0.1,0.1-0.1h2.5v-2.8
			c0,0,0,0,0,0H50c0,0,0,0,0,0v2.8H52.5z M32.8,50.6H16.2 M23.4,47.4v-2.8h-7.6v2.8 M36,47.4v-2.8h-7.6v2.8 M48.6,47.4v-2.8H41v2.8
			 M15.7,23.9v2.8h7.6v-2.8 M12,21.7v2c0,0,0,0,0,0h39.6c0,0,0,0,0,0v-2.8 M28.3,23.9v2.8H36v-2.8 M41,23.9v2.8h7.6v-2.8 M17.3,26.8
			v17.8 M22,26.8v17.8 M29.8,26.8v17.8 M34.5,26.8v17.8 M42.4,44.6V26.8 M47.1,44.6V26.8 M56.1,23.8L31.9,9.6c0,0,0,0,0,0l-24,14.4
			 M30.2,14.9l-9.4,5.6c-0.1,0.1-0.1,0.2,0.1,0.2h18"/>
	</g>
	<g id="XMLID_624_" class="st0">
		<path id="XMLID_280_" class="st1" d="M47,23.7c0,7.4-6,13.4-13.4,13.4c-7.4,0-13.4-6-13.4-13.4s6-13.4,13.4-13.4v13.4H47z"/>
		<path id="XMLID_622_" class="st1" d="M32.3,53.7H12.5c-0.2,0-0.4-0.2-0.4-0.4V25c0-0.2,0.2-0.4,0.4-0.4h19.8
			c0.2,0,0.4,0.2,0.4,0.4v28.3C32.7,53.5,32.5,53.7,32.3,53.7z"/>
		<path id="XMLID_627_" class="st3" d="M15.1,53.3V25c0-0.2,0.2-0.4,0.4-0.4h-3c-0.2,0-0.4,0.2-0.4,0.4v28.3c0,0.2,0.2,0.4,0.4,0.4
			h3C15.3,53.7,15.1,53.5,15.1,53.3z"/>
		<linearGradient id="XMLID_709_" gradientUnits="userSpaceOnUse" x1="11.1462" y1="32" x2="52.8538" y2="32">
			<stop  offset="0" style="stop-color:#5357FF"/>
			<stop  offset="0.2407" style="stop-color:#6D46FF"/>
			<stop  offset="0.4912" style="stop-color:#813AFF"/>
			<stop  offset="0.7439" style="stop-color:#8D32FF"/>
			<stop  offset="1" style="stop-color:#9130FF"/>
		</linearGradient>
		<path id="XMLID_341_" class="st27" d="M32.3,53.9H12.5c-0.2,0-0.4-0.2-0.4-0.4V25.2c0-0.2,0.2-0.4,0.4-0.4h19.8
			c0.2,0,0.4,0.2,0.4,0.4v28.3C32.7,53.7,32.5,53.9,32.3,53.9z M15.1,28.1v5.4h14.5 M17.4,39.3h-1.7 M21.2,39.3h-1.7 M23.4,39.3h1.7
			 M27.2,39.3h1.7 M17.5,42.6h-1.7 M19.7,42.6h1.7 M23.5,42.6h1.7 M27.3,42.6H29 M15.9,45.9h1.7 M19.8,45.9h1.7 M23.6,45.9h1.7
			 M27.4,45.9h1.7 M17.7,49.1H16 M21.5,49.1h-1.7 M23.7,49.1h1.7 M27.5,49.1h1.7 M34.9,37.1C41.7,36.3,47,30.6,47,23.6
			c0-7.5-6-13.5-13.5-13.5c-6.5,0-12,4.6-13.2,10.8 M44.8,38.1c4.3-3.4,7-8.6,7-14.5 M41.1,40.4c0.8-0.4,1.6-0.8,2.3-1.2 M37.7,41.5
			c0.9-0.2,1.7-0.5,2.5-0.8 M35.4,41.9c0.4,0,0.8-0.1,1.1-0.2 M33.7,11v12.6h13.1 M46.6,20.1l-3.5,3.5 M38.4,23.4l6.7-6.7 M42.9,14
			l-9,9 M40.2,11.9l-6.4,6.4 M33.6,13.6l3-3"/>
	</g>
	<g id="XMLID_261_" class="st0">
		<path id="XMLID_653_" class="st1" d="M25,41.2v13.1c0,0.1,0.1,0.1,0.1,0.1l6.8-3.1l6.8,3.1c0,0,0.1,0,0.1-0.1V41.2H25z"/>
		<path id="XMLID_655_" class="st3" d="M31.9,41.2v10.1l0.1,0l6.8,3.1c0,0,0.1,0,0.1-0.1V41.2H31.9z"/>
		<path id="XMLID_269_" class="st1" d="M47.3,28.6c0,2-1.9,3.5-2.6,5.3c-0.7,1.8-0.6,4.2-1.9,5.5c-1.3,1.3-3.8,1.2-5.5,1.9
			C35.6,42,34,43.8,32,43.8s-3.5-1.9-5.3-2.6c-1.8-0.7-4.2-0.6-5.5-1.9c-1.3-1.3-1.2-3.8-1.9-5.5c-0.7-1.7-2.6-3.3-2.6-5.3
			c0-2,1.9-3.5,2.6-5.3c0.7-1.8,0.6-4.2,1.9-5.5c1.3-1.3,3.8-1.2,5.5-1.9c1.7-0.7,3.3-2.6,5.3-2.6s3.5,1.9,5.3,2.6
			c1.8,0.7,4.2,0.6,5.5,1.9c1.3,1.3,1.2,3.8,1.9,5.5C45.5,25,47.3,26.6,47.3,28.6z"/>
		<g id="XMLID_647_" class="st9">
			<path id="XMLID_649_" class="st21" d="M35.9,23.2c0-2.1-1.7-3.8-3.8-3.8c-2.1,0-3.8,1.7-3.8,3.8l0.4,4.6c0,0.6,0.4,1.2,1,1.5
				l1.8,1.2h1.2l1.9-1.2c0.5-0.3,0.9-0.8,1-1.5L35.9,23.2z"/>
			<path id="XMLID_648_" class="st21" d="M39.3,34.2l-5-1.7v-2.8h-4.5v2.8l-5,1.7c-0.4,0.1-0.6,0.5-0.6,0.9l0,2.6h15.8l0-2.6
				C39.9,34.6,39.7,34.3,39.3,34.2z"/>
		</g>
		<linearGradient id="XMLID_710_" gradientUnits="userSpaceOnUse" x1="12.0787" y1="32" x2="51.9213" y2="32">
			<stop  offset="0" style="stop-color:#5357FF"/>
			<stop  offset="0.2407" style="stop-color:#6D46FF"/>
			<stop  offset="0.4912" style="stop-color:#813AFF"/>
			<stop  offset="0.7439" style="stop-color:#8D32FF"/>
			<stop  offset="1" style="stop-color:#9130FF"/>
		</linearGradient>
		<path id="XMLID_380_" class="st28" d="M29.7,30.1V33l-5.2,1.8c-0.4,0.1-0.6,0.5-0.6,0.9v1.9 M34.3,30.1V33l5.2,1.8
			c0.4,0.1,0.6,0.5,0.6,0.9v1.9 M36,23.5c0-2.2-1.8-4-4-4c-2.2,0-4,1.8-4,4l0.4,4.7c0,0.6,0.4,1.2,1,1.5l1.9,1.3h1.3l2-1.3
			c0.6-0.3,0.9-0.9,1-1.5L36,23.5z M29.7,33l1.5,1.7h1.7l1.5-1.7 M44.7,23.3c-0.7-1.8-0.6-4.2-1.9-5.5c-1.3-1.3-3.8-1.2-5.5-1.9
			c-1.7-0.7-3.3-2.6-5.3-2.6s-3.5,1.9-5.3,2.6c-1.8,0.7-4.2,0.6-5.5,1.9c-1.3,1.3-1.2,3.8-1.9,5.5c-0.7,1.7-2.6,3.3-2.6,5.3
			c0,2,1.9,3.5,2.6,5.3c0.7,1.8,0.6,4.2,1.9,5.5c1.3,1.3,3.8,1.2,5.5,1.9c1.7,0.7,3.3,2.6,5.3,2.6s3.5-1.9,5.3-2.6
			c1.8-0.7,4.2-0.6,5.5-1.9c1.3-1.3,1.2-3.8,1.9-5.5c0.7-1.7,2.6-3.3,2.6-5.3S45.4,25,44.7,23.3z M25.1,43.2v11.1
			c0,0.1,0.1,0.1,0.1,0.1l6.8-3.1l6.8,3.1c0,0,0.1,0,0.1-0.1V43.2 M18.8,42c0.5,0.5,1,0.9,1.6,1.4 M16.1,38.7c0.6,1,1.4,1.9,2.1,2.7
			 M14.1,34.7c0.4,1.1,0.9,2.1,1.4,3.1 M50.5,32.3c0.2-1.2,0.4-2.5,0.4-3.8c0-10.4-8.5-18.9-18.9-18.9s-18.9,8.5-18.9,18.9
			c0,1.9,0.3,3.7,0.8,5.4 M48.5,37.9c0.7-1.2,1.3-2.6,1.7-4 M45.2,42c0.9-0.9,1.8-1.9,2.5-3 M43.7,43.4c0.3-0.2,0.6-0.4,0.8-0.7"/>
	</g>
	<g id="XMLID_621_">
		<path id="XMLID_259_" class="st21" d="M31.9,47.6L31.9,47.6c-0.9,0-1.6-0.7-1.6-1.6V11.4c0-0.9,0.7-1.6,1.6-1.6l0,0
			c0.9,0,1.6,0.7,1.6,1.6V46C33.5,46.9,32.8,47.6,31.9,47.6z"/>
		<path id="XMLID_620_" class="st29" d="M42.3,50v-3.5c0-0.1-0.1-0.1-0.1-0.1h-21c-0.1,0-0.1,0.1-0.1,0.1V50h-5.5
			c-0.1,0-0.1,0.1-0.1,0.1v4.1h32.6v-4.1c0-0.1-0.1-0.1-0.1-0.1H42.3z"/>
		<rect id="XMLID_628_" x="15.5" y="50.3" class="st10" width="32.6" height="4"/>
		<circle id="XMLID_615_" class="st29" cx="31.9" cy="18.1" r="4.3"/>
		<path id="XMLID_281_" class="st29" d="M11,31.6c0,3.6,3,6.6,6.6,6.6s6.6-3,6.6-6.6H11z"/>
		<path id="XMLID_273_" class="st29" d="M53.2,31.6c0,3.6-3,6.6-6.6,6.6s-6.6-3-6.6-6.6H53.2z"/>
		<path id="XMLID_626_" class="st21" d="M22.9,31.6c-0.8,2.7-3.3,4.6-6.3,4.6c-2.2,0-4.1-1.1-5.3-2.7c0.8,2.7,3.3,4.7,6.3,4.7
			c3.6,0,6.6-3,6.6-6.6H22.9z"/>
		<path id="XMLID_632_" class="st21" d="M51.9,31.6c-0.8,2.7-3.3,4.6-6.3,4.6c-2.2,0-4.1-1.1-5.3-2.7c0.8,2.7,3.3,4.7,6.3,4.7
			c3.6,0,6.6-3,6.6-6.6H51.9z"/>
		<linearGradient id="XMLID_711_" gradientUnits="userSpaceOnUse" x1="9.7971" y1="32" x2="54.0123" y2="32">
			<stop  offset="0" style="stop-color:#5357FF"/>
			<stop  offset="0.2407" style="stop-color:#6D46FF"/>
			<stop  offset="0.4912" style="stop-color:#813AFF"/>
			<stop  offset="0.7439" style="stop-color:#8D32FF"/>
			<stop  offset="1" style="stop-color:#9130FF"/>
		</linearGradient>
		<path id="XMLID_374_" class="st30" d="M48.1,50c0.1,0,0.1,0.1,0.1,0.1v4.1H15.5v-4.1c0-0.1,0.1-0.1,0.1-0.1h5.5v-3.5
			c0-0.1,0.1-0.1,0.1-0.1h21c0.1,0,0.1,0.1,0.1,0.1V50H48.1z M33.2,50h-9.8 M34.4,12.9v-0.6c0-1.4-1.2-2.6-2.6-2.6l0,0
			c-1.4,0-2.6,1.2-2.6,2.6v0.6 M30.2,45.4V22.1 M33.5,22.1v23.3 M31.8,13.8c-2.4,0-4.3,1.9-4.3,4.3s1.9,4.3,4.3,4.3s4.3-1.9,4.3-4.3
			S34.2,13.8,31.8,13.8z M15.3,17.1v1c0,1.2,1,2.3,2.3,2.3s2.3-1,2.3-2.3h8.8 M35.4,18.1h8.8c0,1.2,1,2.3,2.3,2.3
			c1.2,0,2.3-1,2.3-2.3v-1 M23.5,31.5l-5.1-11.2 M11.5,31.5l5.1-11.2 M10.8,31.6c0,3.6,3,6.6,6.6,6.6s6.6-3,6.6-6.6H10.8z
			 M45.3,20.3l-5.1,11.2 M52.3,31.5l-5.1-11.2 M39.8,31.6c0,3.6,3,6.6,6.6,6.6c3.6,0,6.6-3,6.6-6.6H39.8z M32.8,18.1h-2"/>
	</g>
	<g id="XMLID_610_" class="st0">
		<path id="XMLID_278_" class="st1" d="M49.8,46.9H10.5c-0.2,0-0.3-0.1-0.3-0.3V18c0-0.2,0.1-0.3,0.3-0.3h39.3
			c0.2,0,0.3,0.1,0.3,0.3v28.6C50.1,46.8,50,46.9,49.8,46.9z"/>
		<path id="XMLID_662_" class="st3" d="M13.5,43.9c-0.2,0-0.3-0.1-0.3-0.3V17.6h-2.7c-0.2,0-0.3,0.1-0.3,0.3v28.6
			c0,0.2,0.1,0.3,0.3,0.3h39.3c0.2,0,0.3-0.1,0.3-0.3v-2.7H13.5z"/>
		<path id="XMLID_634_" class="st1" d="M47.8,22.3H34.2c0,0-0.1,0-0.1,0.1V47c0,0,0,0.1,0.1,0.1h19.4c0,0,0.1,0,0.1-0.1V28.3
			L47.8,22.3z"/>
		<path id="XMLID_659_" class="st2" d="M47.8,22.2v5.9c0,0,0,0.1,0.1,0.1h5.9L47.8,22.2z"/>
		<polygon id="XMLID_618_" class="st1" points="48.3,49.3 50.3,51.1 48.3,52.8 19,52.8 19,49.3 		"/>
		<linearGradient id="XMLID_712_" gradientUnits="userSpaceOnUse" x1="9.1432" y1="31.962" x2="54.7806" y2="31.962">
			<stop  offset="0" style="stop-color:#5357FF"/>
			<stop  offset="0.2407" style="stop-color:#6D46FF"/>
			<stop  offset="0.4912" style="stop-color:#813AFF"/>
			<stop  offset="0.7439" style="stop-color:#8D32FF"/>
			<stop  offset="1" style="stop-color:#9130FF"/>
		</linearGradient>
		<path id="XMLID_402_" class="st31" d="M17,47.1h-6.8c-0.1,0-0.1,0-0.1-0.1V17.6c0-0.1,0-0.1,0.1-0.1H50c0.1,0,0.1,0,0.1,0.1V21
			 M50.8,30.7H37.1 M50.8,34.7H37.1 M50.8,38.7H37.1 M44.7,42.6h-7.6 M47.8,22.2H34.2c0,0-0.1,0-0.1,0.1v24.6c0,0,0,0.1,0.1,0.1
			h19.4c0,0,0.1,0,0.1-0.1V28.2L47.8,22.2z M47.8,22.2v5.9c0,0,0,0.1,0.1,0.1h5.9 M17.2,28.8v3.5h3.4v-3.5 M38.7,17.3v-5.2
			c0-0.6-0.4-1-1-1H22c-0.6,0-1,0.4-1,1v5.2 M32,29.2H10.1 M19,49.3v3.5h29.3l2-1.8l-2-1.8H19z M18.5,51.1l-2.9,0 M52.7,51.1h-2.9
			 M35.9,49.3l0,3.7 M45.7,52.9v-3.7 M30.7,46.9h-9.6l0,2.4"/>
	</g>
	<g id="XMLID_612_" class="st0">
		<circle id="XMLID_633_" class="st1" cx="31.4" cy="19.1" r="9"/>
		<path id="XMLID_631_" class="st3" d="M31.4,10.2c-1.6,0-3,0.4-4.3,1.1c0.4-0.1,0.9-0.1,1.3-0.1c4.9,0,9,4,9,9
			c0,3.4-1.9,6.3-4.6,7.8c4.3-0.6,7.6-4.3,7.6-8.8C40.4,14.2,36.4,10.2,31.4,10.2z"/>
		<path id="XMLID_658_" class="st1" d="M51,35.5h-1.3c-0.8,0-1.5-0.5-1.7-1.3c-0.5-1.8-1.5-3.5-2.8-4.9l-0.3,0l1.4-5.1
			c0-0.2-0.2-0.4-0.4-0.3c-1.2,0.4-2.4,0-5.2,1.7l-1.3-0.7c-1.2-0.7-2.5-1.2-3.9-1.4l0,0c-2.2-0.4-4.4-0.1-6.5,0.8L26,25.6
			c-0.8,0.4-1.5,0.8-2.2,1.4c-2.9,2.6-5.3,6.8-5.3,10.4c0,3.2,1.3,6.2,3.6,8.4v7.9c0,0.1,0,0.1,0.1,0.1h7.3c0.1,0,0.1,0,0.1-0.1
			v-3.8c1.3,0.3,2.6,0.5,3.9,0.5c0.8,0,1.7-0.1,2.5-0.2v3.5c0,0.1,0,0.1,0.1,0.1h7.3c0.1,0,0.1,0,0.1-0.1v-6.6
			c1.6-1.2,2.8-2.7,3.7-4.4c0.3-0.6,1-1,1.7-1H51c0,0,0,0,0,0L51,35.5C51,35.5,51,35.5,51,35.5z"/>
		<path id="XMLID_629_" class="st2" d="M48.8,41.7H51c0,0,0,0,0,0v-1.2c-12,2.7-25.1,4.7-32.3-5c-0.1,0.6-0.2,1.2-0.2,1.8
			c0,3.2,1.3,6.2,3.6,8.4v7.9c0,0.1,0,0.1,0.1,0.1h7.3c0.1,0,0.1,0,0.1-0.1v-3.8c1.3,0.3,2.6,0.5,3.9,0.5c0.8,0,1.7-0.1,2.5-0.2v3.5
			c0,0.1,0,0.1,0.1,0.1h7.3c0.1,0,0.1,0,0.1-0.1v-6.6c1.6-1.2,2.8-2.7,3.7-4.4C47.5,42.1,48.1,41.7,48.8,41.7z"/>
		<linearGradient id="XMLID_713_" gradientUnits="userSpaceOnUse" x1="11.9667" y1="32" x2="51.9156" y2="32">
			<stop  offset="0" style="stop-color:#5357FF"/>
			<stop  offset="0.2407" style="stop-color:#6D46FF"/>
			<stop  offset="0.4912" style="stop-color:#813AFF"/>
			<stop  offset="0.7439" style="stop-color:#8D32FF"/>
			<stop  offset="1" style="stop-color:#9130FF"/>
		</linearGradient>
		<path id="XMLID_409_" class="st32" d="M34.8,14.9h-4.3c-1.2,0-2.1,1-2.1,2.1l0,0c0,1.2,1,2.1,2.1,2.1h2.1c1.2,0,2.1,1,2.1,2.1l0,0
			c0,1.2-1,2.1-2.1,2.1H28 M31.6,12.7v2.2 M31.6,23.5v2.1 M31.4,10.2c-4.9,0-9,4-9,9s4,9,9,9c4.9,0,9-4,9-9S36.4,10.2,31.4,10.2z
			 M44.3,31l1.9-6.9c0-0.2-0.2-0.4-0.4-0.3c-1.2,0.4-4.2,1-5.5,4.5 M23.9,27.3c-3.3,2.4-5.4,6-5.4,10.1c0,3.2,1.3,6.2,3.6,8.4v7.9
			c0,0.1,0,0.1,0.1,0.1h7.3c0.1,0,0.1,0,0.1-0.1v-3.8c1.3,0.3,2.6,0.5,3.9,0.5c0.8,0,1.7-0.1,2.5-0.2v3.5c0,0.1,0,0.1,0.1,0.1h7.3
			c0.1,0,0.1,0,0.1-0.1v-6.6c1.6-1.2,2.8-2.7,3.7-4.3c0.3-0.6,1-1,1.7-1h2.2c0,0,0,0,0,0v-6.1c0,0,0,0,0,0h-1.3
			c-0.8,0-1.5-0.6-1.7-1.3c-0.5-1.8-1.5-3.5-2.8-4.9 M41.6,26.4c-0.5-0.3-1.1-0.6-1.6-0.8 M38.5,31.6H25.9 M13,40.8
			c1.7-0.3,3-1.9,2.9-3.6c0-0.6-0.2-1.1-0.5-1.5c-0.4-0.4-1-0.6-1.5-0.4c-0.5,0.2-0.9,0.8-0.9,1.4c0,0.6,0.2,1.2,0.4,1.7
			c0.1,0.3,0.3,0.6,0.6,0.8c0.2,0.1,0.4,0.1,0.6,0.1c1.5,0,2.9-0.8,3.8-1.9 M41.7,35.1h-2.6"/>
	</g>
	<g id="XMLID_613_" class="st0">
		<path id="XMLID_664_" class="st1" d="M33.7,33.4l4.8-0.9c1.6,0.7,3.3,1,5.2,0.7c4.2-0.6,7.6-4,8.1-8.2c0.7-6.1-4.5-11.3-10.6-10.5
			c-4.2,0.5-7.6,3.9-8.2,8.2c-0.3,2.3,0.3,4.5,1.4,6.2l-0.8,4.4C33.6,33.4,33.7,33.4,33.7,33.4z"/>
		<path id="XMLID_672_" class="st3" d="M41.2,14.5c-1.2,0.1-2.2,0.5-3.2,1c0.1,0,0.2,0,0.2,0c6.1-0.8,11.3,4.4,10.6,10.5
			c-0.4,3.1-2.3,5.8-5,7.2c4.2-0.6,7.5-4,8-8.2C52.5,18.9,47.4,13.8,41.2,14.5z"/>
		<path id="XMLID_640_" class="st1" d="M39.7,41.7h-0.8c1.1,0,2-0.9,2-2s-0.9-2-2-2h-7.5h-4.7c0,0,1.6-4.1,1.6-6
			c0-0.9,0.2-2.7-0.3-3.5c-0.2-0.3-1.8-0.3-2,0c0,0-1.5,4.6-2.5,6c-0.6,0.8-2.7,3.6-2.7,3.6h-2v4.3v6.5v1.9H20
			c0.4,0,0.8,0.2,1.1,0.5l2,2c0.4,0.4,0.8,0.6,1.3,0.6h11.2c1.1,0,2-0.9,2-2c0-1.1-0.9-2-2-2h2.1c1.1,0,2-0.9,2-2c0-1.1-0.9-2-2-2
			h2.1c1.1,0,2-0.9,2-2C41.7,42.6,40.8,41.7,39.7,41.7z"/>
		<path id="XMLID_639_" class="st2" d="M19,35.7H8.2v16.7H19c0.1,0,0.1,0,0.1-0.1L19,35.7C19.1,35.7,19.1,35.7,19,35.7z"/>
		<linearGradient id="XMLID_714_" gradientUnits="userSpaceOnUse" x1="8.2267" y1="32" x2="56.7733" y2="32">
			<stop  offset="0" style="stop-color:#5357FF"/>
			<stop  offset="0.2407" style="stop-color:#6D46FF"/>
			<stop  offset="0.4912" style="stop-color:#813AFF"/>
			<stop  offset="0.7439" style="stop-color:#8D32FF"/>
			<stop  offset="1" style="stop-color:#9130FF"/>
		</linearGradient>
		<path id="XMLID_445_" class="st33" d="M33.5,33.3l0.8-4.4c-1.1-1.8-1.7-3.9-1.4-6.2c0.5-4.2,3.9-7.6,8.2-8.2
			c6.1-0.8,11.3,4.4,10.6,10.5c-0.5,4.2-3.9,7.6-8.1,8.2c-1.9,0.3-3.6,0-5.2-0.7l-4.8,0.9C33.6,33.4,33.5,33.4,33.5,33.3z
			 M36.4,45.7h3.4c1.1,0,2-0.9,2-2l0,0c0-1.1-0.9-2-2-2h-3.4 M35,49.6h2.7c1.1,0,2-0.9,2-2l0,0c0-1.1-0.9-2-2-2H35 M18.9,50.5H20
			c0.4,0,0.8,0.2,1.1,0.5l2,2c0.4,0.4,0.8,0.6,1.3,0.6h11.2c1.1,0,2-0.9,2-2l0,0c0-1.1-0.9-2-2-2h-0.8 M35,41.7h4c1.1,0,2-0.9,2-2
			l0,0c0-1.1-0.9-2-2-2h-7.5h-4.7c0,0,1.6-4.1,1.6-6c0-0.9,0.2-2.7-0.3-3.5c-0.2-0.3-1.8-0.3-2,0c0,0-1.5,4.6-2.5,6
			c-0.6,0.8-2.7,3.6-2.7,3.6h-1.3 M8.2,52.4H19c0.1,0,0.1,0,0.1-0.1V35.8c0-0.1,0-0.1-0.1-0.1H8.2 M42.3,37.4
			c7.4,0,13.4-6,13.4-13.4s-6-13.4-13.4-13.4 M28.9,23.1c0,0.3,0,0.5,0,0.8 M29.6,19.7c-0.3,0.9-0.5,1.8-0.6,2.8 M31.8,15.6
			c-0.6,0.8-1.1,1.6-1.5,2.4 M34.6,12.9c-0.8,0.6-1.6,1.2-2.2,2 M39,10.9c-1.2,0.3-2.4,0.8-3.4,1.4 M42.3,10.5c-0.5,0-0.9,0-1.4,0.1
			c-0.3,0-0.7,0.1-1,0.1 M37.3,20.8h9.8 M47.2,23.9h-9.8 M37.5,27.1h4.9"/>
	</g>
	<g id="XMLID_469_" class="st0">
		<polygon id="XMLID_686_" class="st3" points="40.4,53.6 23.8,53.6 22.7,51.3 22.7,44.2 41.5,44.2 41.5,51.2 		"/>
		<rect id="XMLID_685_" x="29.4" y="53.6" class="st3" width="5.3" height="3"/>
		<path id="XMLID_683_" class="st1" d="M45.6,29.7c0-7.3-5.9-13.3-13.3-13.3S19,22.4,19,29.7c0,4.7,2.4,8.8,6.1,11.1v3.3h14.4v-3.3
			C43.1,38.5,45.6,34.4,45.6,29.7z"/>
		<linearGradient id="XMLID_715_" gradientUnits="userSpaceOnUse" x1="11.2281" y1="32" x2="52.7719" y2="32">
			<stop  offset="0" style="stop-color:#5357FF"/>
			<stop  offset="0.2407" style="stop-color:#6D46FF"/>
			<stop  offset="0.4912" style="stop-color:#813AFF"/>
			<stop  offset="0.7439" style="stop-color:#8D32FF"/>
			<stop  offset="1" style="stop-color:#9130FF"/>
		</linearGradient>
		<path id="XMLID_468_" class="st34" d="M40.3,53.6H23.7l-1.1-2.4v-7.1h18.8v7L40.3,53.6z M34.7,53.6h-5.3v3h5.3V53.6z M45.3,29.7
			c0-7.3-5.9-13.3-13.3-13.3s-13.3,5.9-13.3,13.3c0,4.7,2.4,8.8,6.1,11.1v3.3h14.4v-3.3C42.9,38.5,45.3,34.4,45.3,29.7z M30.8,48.9
			h-8.1 M15.4,19.6c-0.6,0.9-1.1,1.9-1.6,3c-0.1,0.2-0.2,0.5-0.3,0.7c-0.8,2.2-1.3,4.5-1.3,7c0,1,0.1,2,0.2,3c0.1,1,0.4,1.9,0.6,2.8
			c0.3,0.9,0.6,1.8,1,2.7c0.4,0.9,0.9,1.7,1.4,2.5 M18.5,15.9c-0.2,0.2-0.3,0.3-0.5,0.5c-0.4,0.4-0.8,0.9-1.2,1.3 M24.3,12.1
			c-0.6,0.2-1.1,0.5-1.7,0.8c-0.7,0.4-1.4,0.8-2.1,1.3 M40.8,12.6c-0.4-0.2-0.7-0.3-1.1-0.5 M46,16.3c-0.9-0.9-1.9-1.7-2.9-2.4
			 M50.2,22.6c-0.8-1.9-1.9-3.7-3.3-5.3 M47.8,42.1c0.6-0.8,1.2-1.7,1.7-2.6c0.5-0.9,0.9-1.9,1.2-2.9c0.3-1,0.6-2,0.8-3.1
			c0.1-0.5,0.2-1.1,0.2-1.6c0-0.5,0.1-1.1,0.1-1.6c0-1.9-0.3-3.7-0.8-5.5 M26.8,29.8l3.3,3.3l6.7-6.7 M32,7.4
			c-1.8,0-3.2,1.4-3.2,3.2s1.4,3.2,3.2,3.2c1.8,0,3.2-1.4,3.2-3.2S33.8,7.4,32,7.4z"/>
	</g>
	<g id="XMLID_519_" class="st0">
		<path id="XMLID_705_" class="st2" d="M48.7,17.6H15.7l-3.9,6.2l-2,3.4l22.1,25.2c0.1,0.1,0.2,0.1,0.3,0l22.1-25.2L48.7,17.6z"/>
		<linearGradient id="XMLID_716_" gradientUnits="userSpaceOnUse" x1="8.4847" y1="32.456" x2="55.4174" y2="32.456">
			<stop  offset="0" style="stop-color:#5357FF"/>
			<stop  offset="0.2407" style="stop-color:#6D46FF"/>
			<stop  offset="0.4912" style="stop-color:#813AFF"/>
			<stop  offset="0.7439" style="stop-color:#8D32FF"/>
			<stop  offset="1" style="stop-color:#9130FF"/>
		</linearGradient>
		<path id="XMLID_578_" class="st35" d="M21.2,17.6h27.4l5.6,9.6L32.1,52.4c-0.1,0.1-0.2,0.1-0.3,0L9.7,27.3l2-3.4 M54.2,27.3H9.7
			 M21.7,29.3l10.2,23.2 M41.8,29.3L32,52 M31.9,29.3V52 M19.6,23.3l1.5,2l5.9-8 M26.5,18.4l5.2,6.8l5.9-8 M37.1,18.4l5.2,6.8l5.9-8
			 M15.1,14.3v-2.9 M20.5,14.5L18,16 M20.5,20.7L18,19.3 M15.1,20.9l0,2.9 M9.8,20.8l2.5-1.5 M12.2,16l-2.5-1.4"/>
	</g>
	<g id="XMLID_51_" class="st0">
		<path id="XMLID_251_" class="st1" d="M47.4,31.6h-0.3c-2,0-3.7-1.6-3.7-3.7v-7.1c0-2,1.6-3.7,3.7-3.7h0.3c2,0,3.7,1.6,3.7,3.7v7.1
			C51.1,29.9,49.4,31.6,47.4,31.6z"/>
		<polygon id="XMLID_565_" class="st3" points="31.4,49.7 14.3,49.7 13.2,47.2 13.2,39.9 32.6,39.9 32.6,47.1 		"/>
		<rect id="XMLID_564_" x="20.1" y="49.7" class="st3" width="5.5" height="3.1"/>
		<path id="XMLID_563_" class="st1" d="M36.8,25c0-7.6-6.1-13.7-13.7-13.7c-7.6,0-13.7,6.1-13.7,13.7c0,4.8,2.5,9.1,6.3,11.5v3.4
			h14.8v-3.4C34.3,34,36.8,29.8,36.8,25z"/>
		<g id="XMLID_54_" class="st9">
			<path id="XMLID_238_" class="st21" d="M23.1,11.2c-5.4,0-10,3.1-12.3,7.6c2.4-2.3,5.7-3.6,9.3-3.6c7.6,0,13.7,6.1,13.7,13.7
				c0,2.2-0.5,4.2-1.4,6.1c2.7-2.5,4.4-6.1,4.4-10.1C36.8,17.4,30.6,11.2,23.1,11.2z"/>
		</g>
		<linearGradient id="XMLID_717_" gradientUnits="userSpaceOnUse" x1="8.1557" y1="32" x2="55.8443" y2="32">
			<stop  offset="0" style="stop-color:#5357FF"/>
			<stop  offset="0.2407" style="stop-color:#6D46FF"/>
			<stop  offset="0.4912" style="stop-color:#813AFF"/>
			<stop  offset="0.7439" style="stop-color:#8D32FF"/>
			<stop  offset="1" style="stop-color:#9130FF"/>
		</linearGradient>
		<path id="XMLID_48_" class="st36" d="M31.4,49.7H14.2l-1.1-2.5v-7.4h19.4v7.3L31.4,49.7z M25.5,49.7h-5.5v3.1h5.5V49.7z M36.6,25
			c0-7.6-6.1-13.7-13.7-13.7S9.2,17.4,9.2,25c0,4.8,2.5,9.1,6.3,11.5v3.4h14.8v-3.4C34.1,34,36.6,29.8,36.6,25z M21.5,44.8h-8.4
			 M47.3,28.1v-7.6 M51.1,27.9v-7.1c0-2-1.6-3.7-3.7-3.7h-0.3c-2,0-3.7,1.6-3.7,3.7v7.1c0,2,1.6,3.7,3.7,3.7h0.3
			C49.4,31.6,51.1,29.9,51.1,27.9z M51.1,28.1c2.1,0,3.8-1.7,3.8-3.8s-1.7-3.8-3.8-3.8 M22.8,24.3h21.1 M26.6,21.9
			c0-2.1-1.7-3.8-3.8-3.8c-2.1,0-3.8,1.7-3.8,3.8c0,1.3,0.7,2.5,1.7,3.2v6.1h4.2V25C25.9,24.4,26.6,23.2,26.6,21.9z"/>
	</g>
</g>
<g id="Icon_text" class="st0">
	<text id="XMLID_2_" transform="matrix(1 0 0 1 -158.0612 -73.1667)" class="st38 st39" style="display:inline;fill:#5357FF;">IDEA</text>
	<g id="XMLID_65_" class="st9">
		<text id="XMLID_614_" transform="matrix(1 0 0 1 -76.9106 -73.1667)" class="st37 st38 st39">ANALYSIS</text>
	</g>
	<g id="XMLID_66_" class="st9">
		<text id="XMLID_616_" transform="matrix(1 0 0 1 5.1667 -73.1667)" class="st37 st38 st39">M-COMMERCE</text>
	</g>
	<g id="XMLID_101_" class="st9">
		<text id="XMLID_617_" transform="matrix(1 0 0 1 109.0616 -73.167)" class="st37 st38 st39">MONEY</text>
	</g>
	<g id="XMLID_103_" class="st9">
		<text id="XMLID_619_" transform="matrix(1 0 0 1 197.1454 -73.1669)"><tspan x="0" y="0" class="st37 st38 st39">PROJECT</tspan><tspan x="-10.8" y="7" class="st37 st38 st39">DEVELOPMENT</tspan></text>
	</g>
	<g id="XMLID_118_" class="st9">
		<text id="XMLID_635_" transform="matrix(1 0 0 1 -166.5963 21.0416)" class="st37 st38 st39">GROWTH</text>
	</g>
	<g id="XMLID_138_" class="st9">
		<text id="XMLID_641_" transform="matrix(1 0 0 1 -77.1425 21.0416)"><tspan x="0" y="0" class="st37 st38 st39">BUSINESS</tspan><tspan x="5.3" y="7" class="st37 st38 st39">VISION</tspan></text>
	</g>
	<g id="XMLID_134_" class="st9">
		<text id="XMLID_660_" transform="matrix(1 0 0 1 23.2642 21.0416)"><tspan x="0" y="0" class="st37 st38 st39">IDEA</tspan><tspan x="-18.8" y="7" class="st37 st38 st39">DEVELOPMENT</tspan></text>
	</g>
	<g id="XMLID_168_" class="st9">
		<text id="XMLID_661_" transform="matrix(1 0 0 1 104.3105 21.0418)" class="st37 st38 st39">MANAGER</text>
	</g>
	<g id="XMLID_176_" class="st9">
		<text id="XMLID_663_" transform="matrix(1 0 0 1 202.4471 21.0416)"><tspan x="0" y="0" class="st37 st38 st39">VIDEO</tspan><tspan x="-6.2" y="7" class="st37 st38 st39">MESSAGE</tspan></text>
	</g>
	<g id="XMLID_185_" class="st9">
		<text id="XMLID_669_" transform="matrix(1 0 0 1 -168.2577 117.6666)" class="st37 st38 st39">STRATEGY</text>
	</g>
	<g id="XMLID_215_" class="st9">
		<text id="XMLID_671_" transform="matrix(1 0 0 1 -75.9106 117.667)" class="st37 st38 st39">SERVICES</text>
	</g>
	<g id="XMLID_227_" class="st9">
		<text id="XMLID_673_" transform="matrix(1 0 0 1 14.6032 117.667)" class="st37 st38 st39">SUPPORT</text>
	</g>
	<g id="XMLID_237_" class="st9">
		<text id="XMLID_674_" transform="matrix(1 0 0 1 111.2283 117.6666)" class="st37 st38 st39">VALUE</text>
	</g>
	<g id="XMLID_260_" class="st9">
		<text id="XMLID_691_" transform="matrix(1 0 0 1 196.2038 117.6666)"><tspan x="0" y="0" class="st37 st38 st39">PREMIUM</tspan><tspan x="2.1" y="7" class="st37 st38 st39">QUALITY</tspan></text>
	</g>
	<g id="XMLID_56_" class="st9">
		<text id="XMLID_692_" transform="matrix(1 0 0 1 -158.3332 211.1663)"><tspan x="0" y="0" class="st37 st38 st39">KEY </tspan><tspan x="-10.9" y="7" class="st37 st38 st39">SOLUTION</tspan></text>
	</g>
	<g id="XMLID_291_" class="st9">
		<text id="XMLID_693_" transform="matrix(1 0 0 1 -69.1653 211.167)" class="st37 st38 st39">BANK</text>
	</g>
	<g id="XMLID_295_" class="st9">
		<text id="XMLID_694_" transform="matrix(1 0 0 1 22.0008 211.167)" class="st37 st38 st39">LOAN</text>
	</g>
	<g id="XMLID_344_" class="st9">
		<text id="XMLID_695_" transform="matrix(1 0 0 1 101.2337 211.1671)" class="st37 st38 st39">ACCOUTING</text>
	</g>
	<g id="XMLID_348_" class="st9">
		<text id="XMLID_696_" transform="matrix(1 0 0 1 194.6282 211.1666)"><tspan x="0" y="0" class="st37 st38 st39">EMPLOYEE</tspan><tspan x="-8.2" y="7" class="st37 st38 st39">OF THE MONTH</tspan></text>
	</g>
	<g id="XMLID_351_" class="st9">
		<text id="XMLID_697_" transform="matrix(1 0 0 1 -161.4352 307.1667)" class="st37 st38 st39">SCALE</text>
	</g>
	<g id="XMLID_395_" class="st9">
		<text id="XMLID_698_" transform="matrix(1 0 0 1 -80.9337 307.1663)" class="st37 st38 st39">TEAMWORK</text>
	</g>
	<g id="XMLID_403_" class="st9">
		<text id="XMLID_699_" transform="matrix(1 0 0 1 11.0073 307.1667)" class="st37 st38 st39">PORTFOLIO</text>
	</g>
	<g id="XMLID_418_" class="st9">
		<text id="XMLID_700_" transform="matrix(1 0 0 1 112.2521 307.1667)"><tspan x="0" y="0" class="st37 st38 st39">PIGGY</tspan><tspan x="0.6" y="7" class="st37 st38 st39">BANK</tspan></text>
	</g>
	<g id="XMLID_446_" class="st9">
		<text id="XMLID_701_" transform="matrix(1 0 0 1 187.8177 307.1667)"><tspan x="0" y="0" class="st37 st38 st39">SOCIAL MEDIA</tspan><tspan x="6.3" y="7" class="st37 st38 st39">CAMPAIGN</tspan></text>
	</g>
</g>
<g id="headline" class="st0">
	<g id="XMLID_13_" class="st9">
		
			<text id="XMLID_702_" transform="matrix(1 0 0 1 143.9132 -193.9056)" class="st37" style="font-family:'Oswald-Bold'; font-size:11px;">BUSINESS &amp; FINANCE</text>
	</g>
	<g id="XMLID_25_" class="st9">
		<text id="XMLID_703_" transform="matrix(1 0 0 1 -169.5278 -221.0995)"><tspan x="0" y="0" class="st37" style="font-family:'Oswald-Bold'; font-size:22.512px;">MODERN </tspan><tspan x="0" y="27" class="st37" style="font-family:'Oswald-Bold'; font-size:22.512px;">FLAT </tspan><tspan x="45.5" y="27" style="fill:#9130FF; font-family:'Oswald-Light'; font-size:22.512px;">LINE</tspan><tspan x="79.5" y="27" class="st37" style="font-family:'Oswald-Light'; font-size:22.512px;"> </tspan><tspan x="83.9" y="27" class="st37" style="font-family:'Oswald-Bold'; font-size:22.512px;">ICONS</tspan></text>
	</g>
</g>
</svg>
