<svg xmlns="http://www.w3.org/2000/svg" xmlns:xlink="http://www.w3.org/1999/xlink" viewBox="0 0 113.09 129.1"><defs><style>.cls-1{fill:#fff;}.cls-2{fill:#dde7ff;}.cls-3{fill:#e8ddff;}.cls-4{fill:none;stroke-miterlimit:10;stroke-width:2px;stroke:url(#linear-gradient);}</style><linearGradient id="linear-gradient" x1="1.07" y1="64.74" x2="114.16" y2="64.74" gradientTransform="translate(114.16 129.29) rotate(180)" gradientUnits="userSpaceOnUse"><stop offset="0" stop-color="#5357ff"/><stop offset="0.02" stop-color="#5556ff"/><stop offset="0.43" stop-color="#7641ff"/><stop offset="0.77" stop-color="#8a35ff"/><stop offset="1" stop-color="#9130ff"/></linearGradient></defs><title>Asset 1</title><g id="Layer_2" data-name="Layer 2"><g id="Layer_1-2" data-name="Layer 1"><g id="icons"><g id="_Group_" data-name="&lt;Group&gt;"><path id="_Path_" data-name="&lt;Path&gt;" class="cls-1" d="M26.9,75.87H14.13L9.78,90.38l9.87,9.87,18.28,18.86a6.61,6.61,0,0,0,10.16-.87h0a6.55,6.55,0,0,0-.59-8.13L30.38,91.54a8.64,8.64,0,0,1-2.32-5.22L26.9,75.58Z"/><path id="_Path_2" data-name="&lt;Path&gt;" class="cls-2" d="M11.52,83.41l-2,6.68L19.36,100l18.28,18.86a6.57,6.57,0,0,0,9.57-9,6.58,6.58,0,0,1-9.57.29L19.36,91.25Z"/><path id="_Path_3" data-name="&lt;Path&gt;" class="cls-1" d="M7.46,124.91a6.27,6.27,0,0,0,6.09-4.35L30.38,65.13a1.42,1.42,0,0,1,2.62,0l5.8,17.41c1.45,2.91,4.06,3.2,7.25,3.2,3.78,0,7.26-1.45,7.84-5.23L58.82,45.4H72.46V8.54h-29a17.82,17.82,0,0,0-15.38,9L10.65,48.88a18.76,18.76,0,0,0-1.16,3.77L1.07,118A6.41,6.41,0,0,0,7.46,124.91Z"/><path id="_Path_4" data-name="&lt;Path&gt;" class="cls-3" d="M73.91,2.16V59a1.25,1.25,0,0,0,1.16,1.16h33.38V1H75.07A1.25,1.25,0,0,0,73.91,2.16Z"/><path id="_Compound_Path_" data-name="&lt;Compound Path&gt;" class="cls-4" d="M72.17,45.4H58.53L53.6,80.51c-.58,3.78-4.06,5.23-7.84,5.23h0c-3.19,0-5.8-.29-7.25-3.2l-5.8-17.41c-.3-1.45-2.33-1.16-2.62,0L13.26,120.56a6.54,6.54,0,0,1-6.09,4.35h0a6,6,0,0,1-6.1-7l8.42-65.3a8.22,8.22,0,0,1,1.16-3.77L28.06,17.54a17.82,17.82,0,0,1,15.38-9h29m36-7.54H75.07a1.25,1.25,0,0,0-1.16,1.16V59a1.25,1.25,0,0,0,1.16,1.16h33.38m-88.8,40.63,18.28,18.86a6.61,6.61,0,0,0,10.16-.87h0a6.55,6.55,0,0,0-.59-8.13L30.38,92.12a8.64,8.64,0,0,1-2.32-5.22L26.9,76.16M44.31,128.1h68.78"/></g></g></g></g></svg>